G04 #@! TF.GenerationSoftware,KiCad,Pcbnew,(5.1.10)-1*
G04 #@! TF.CreationDate,2021-10-20T19:59:30+02:00*
G04 #@! TF.ProjectId,Arcnet,4172636e-6574-42e6-9b69-6361645f7063,rev?*
G04 #@! TF.SameCoordinates,Original*
G04 #@! TF.FileFunction,Copper,L1,Top*
G04 #@! TF.FilePolarity,Positive*
%FSLAX46Y46*%
G04 Gerber Fmt 4.6, Leading zero omitted, Abs format (unit mm)*
G04 Created by KiCad (PCBNEW (5.1.10)-1) date 2021-10-20 19:59:30*
%MOMM*%
%LPD*%
G01*
G04 APERTURE LIST*
G04 #@! TA.AperFunction,ComponentPad*
%ADD10C,1.422400*%
G04 #@! TD*
G04 #@! TA.AperFunction,ComponentPad*
%ADD11R,1.422400X1.422400*%
G04 #@! TD*
G04 #@! TA.AperFunction,ComponentPad*
%ADD12O,1.600000X1.600000*%
G04 #@! TD*
G04 #@! TA.AperFunction,ComponentPad*
%ADD13C,1.600000*%
G04 #@! TD*
G04 #@! TA.AperFunction,ComponentPad*
%ADD14C,1.500000*%
G04 #@! TD*
G04 #@! TA.AperFunction,ComponentPad*
%ADD15O,1.700000X1.700000*%
G04 #@! TD*
G04 #@! TA.AperFunction,ComponentPad*
%ADD16R,1.700000X1.700000*%
G04 #@! TD*
G04 #@! TA.AperFunction,ComponentPad*
%ADD17R,1.600000X1.600000*%
G04 #@! TD*
G04 #@! TA.AperFunction,ViaPad*
%ADD18C,0.800000*%
G04 #@! TD*
G04 #@! TA.AperFunction,Conductor*
%ADD19C,0.304800*%
G04 #@! TD*
G04 #@! TA.AperFunction,Conductor*
%ADD20C,0.508000*%
G04 #@! TD*
G04 #@! TA.AperFunction,Conductor*
%ADD21C,0.406400*%
G04 #@! TD*
G04 #@! TA.AperFunction,Conductor*
%ADD22C,0.254000*%
G04 #@! TD*
G04 #@! TA.AperFunction,Conductor*
%ADD23C,0.100000*%
G04 #@! TD*
G04 APERTURE END LIST*
D10*
X183515000Y-99695000D03*
X186055000Y-99695000D03*
X188595000Y-99695000D03*
X180975000Y-102235000D03*
X186055000Y-102235000D03*
X188595000Y-102235000D03*
X191135000Y-102235000D03*
X193675000Y-102235000D03*
X193675000Y-104775000D03*
X193675000Y-107315000D03*
X193675000Y-109855000D03*
X191135000Y-99695000D03*
X191135000Y-104775000D03*
X191135000Y-107315000D03*
X191135000Y-109855000D03*
X191135000Y-112395000D03*
X188595000Y-112395000D03*
X186055000Y-112395000D03*
X183515000Y-112395000D03*
X188595000Y-109855000D03*
X186055000Y-109855000D03*
X183515000Y-109855000D03*
X180975000Y-104775000D03*
X180975000Y-109855000D03*
X180975000Y-107315000D03*
X183515000Y-102235000D03*
X183515000Y-107315000D03*
D11*
X183515000Y-104775000D03*
D12*
X170815000Y-108585000D03*
D13*
X170815000Y-100965000D03*
X155575000Y-104775000D03*
X155575000Y-109775000D03*
D14*
X201295000Y-110290000D03*
X201295000Y-105410000D03*
D15*
X173355000Y-113665000D03*
X170815000Y-113665000D03*
D16*
X168275000Y-113665000D03*
D12*
X180975000Y-85725000D03*
D13*
X180975000Y-93345000D03*
X170735000Y-83820000D03*
X165735000Y-83820000D03*
D12*
X186055000Y-85725000D03*
X193675000Y-93345000D03*
X188595000Y-85725000D03*
X191135000Y-93345000D03*
X191135000Y-85725000D03*
X188595000Y-93345000D03*
X193675000Y-85725000D03*
D17*
X186055000Y-93345000D03*
D12*
X149225000Y-73660000D03*
D13*
X156845000Y-73660000D03*
D12*
X156845000Y-83185000D03*
D13*
X149225000Y-83185000D03*
D15*
X142875000Y-73660000D03*
D16*
X145415000Y-73660000D03*
D15*
X145415000Y-83185000D03*
D16*
X142875000Y-83185000D03*
G04 #@! TA.AperFunction,ComponentPad*
G36*
G01*
X132753982Y-80922820D02*
X133072180Y-81241018D01*
G75*
G02*
X133072180Y-82471384I-615183J-615183D01*
G01*
X133072180Y-82471384D01*
G75*
G02*
X131841814Y-82471384I-615183J615183D01*
G01*
X131523616Y-82153186D01*
G75*
G02*
X131523616Y-80922820I615183J615183D01*
G01*
X131523616Y-80922820D01*
G75*
G02*
X132753982Y-80922820I615183J-615183D01*
G01*
G37*
G04 #@! TD.AperFunction*
G04 #@! TA.AperFunction,ComponentPad*
G36*
G01*
X134550033Y-79126769D02*
X134868231Y-79444967D01*
G75*
G02*
X134868231Y-80675333I-615183J-615183D01*
G01*
X134868231Y-80675333D01*
G75*
G02*
X133637865Y-80675333I-615183J615183D01*
G01*
X133319667Y-80357135D01*
G75*
G02*
X133319667Y-79126769I615183J615183D01*
G01*
X133319667Y-79126769D01*
G75*
G02*
X134550033Y-79126769I615183J-615183D01*
G01*
G37*
G04 #@! TD.AperFunction*
G04 #@! TA.AperFunction,ComponentPad*
G36*
G01*
X135907677Y-76892311D02*
X137102689Y-78087323D01*
G75*
G02*
X137102689Y-78440875I-176776J-176776D01*
G01*
X136225875Y-79317689D01*
G75*
G02*
X135872323Y-79317689I-176776J176776D01*
G01*
X134677311Y-78122677D01*
G75*
G02*
X134677311Y-77769125I176776J176776D01*
G01*
X135554125Y-76892311D01*
G75*
G02*
X135907677Y-76892311I176776J-176776D01*
G01*
G37*
G04 #@! TD.AperFunction*
G04 #@! TA.AperFunction,ComponentPad*
G36*
G01*
X126403982Y-87272820D02*
X126722180Y-87591018D01*
G75*
G02*
X126722180Y-88821384I-615183J-615183D01*
G01*
X126722180Y-88821384D01*
G75*
G02*
X125491814Y-88821384I-615183J615183D01*
G01*
X125173616Y-88503186D01*
G75*
G02*
X125173616Y-87272820I615183J615183D01*
G01*
X125173616Y-87272820D01*
G75*
G02*
X126403982Y-87272820I615183J-615183D01*
G01*
G37*
G04 #@! TD.AperFunction*
G04 #@! TA.AperFunction,ComponentPad*
G36*
G01*
X128200033Y-85476769D02*
X128518231Y-85794967D01*
G75*
G02*
X128518231Y-87025333I-615183J-615183D01*
G01*
X128518231Y-87025333D01*
G75*
G02*
X127287865Y-87025333I-615183J615183D01*
G01*
X126969667Y-86707135D01*
G75*
G02*
X126969667Y-85476769I615183J615183D01*
G01*
X126969667Y-85476769D01*
G75*
G02*
X128200033Y-85476769I615183J-615183D01*
G01*
G37*
G04 #@! TD.AperFunction*
G04 #@! TA.AperFunction,ComponentPad*
G36*
G01*
X129557677Y-83242311D02*
X130752689Y-84437323D01*
G75*
G02*
X130752689Y-84790875I-176776J-176776D01*
G01*
X129875875Y-85667689D01*
G75*
G02*
X129522323Y-85667689I-176776J176776D01*
G01*
X128327311Y-84472677D01*
G75*
G02*
X128327311Y-84119125I176776J176776D01*
G01*
X129204125Y-83242311D01*
G75*
G02*
X129557677Y-83242311I176776J-176776D01*
G01*
G37*
G04 #@! TD.AperFunction*
D12*
X156845000Y-76835000D03*
D13*
X149225000Y-76835000D03*
D12*
X149225000Y-80010000D03*
D13*
X156845000Y-80010000D03*
D12*
X163195000Y-80010000D03*
D13*
X170815000Y-80010000D03*
D15*
X168275000Y-75565000D03*
D16*
X170815000Y-75565000D03*
D13*
X174625000Y-101045000D03*
X174625000Y-106045000D03*
X129540000Y-104855000D03*
X129540000Y-109855000D03*
D12*
X133985000Y-104775000D03*
X151765000Y-112395000D03*
X136525000Y-104775000D03*
X149225000Y-112395000D03*
X139065000Y-104775000D03*
X146685000Y-112395000D03*
X141605000Y-104775000D03*
X144145000Y-112395000D03*
X144145000Y-104775000D03*
X141605000Y-112395000D03*
X146685000Y-104775000D03*
X139065000Y-112395000D03*
X149225000Y-104775000D03*
X136525000Y-112395000D03*
X151765000Y-104775000D03*
D17*
X133985000Y-112395000D03*
D15*
X154305000Y-98425000D03*
X154305000Y-100965000D03*
X151765000Y-98425000D03*
X151765000Y-100965000D03*
X149225000Y-98425000D03*
X149225000Y-100965000D03*
X146685000Y-98425000D03*
X146685000Y-100965000D03*
X144145000Y-98425000D03*
X144145000Y-100965000D03*
X141605000Y-98425000D03*
X141605000Y-100965000D03*
X139065000Y-98425000D03*
X139065000Y-100965000D03*
X136525000Y-98425000D03*
D16*
X136525000Y-100965000D03*
D13*
X210740000Y-110490000D03*
X205740000Y-110490000D03*
X210740000Y-105410000D03*
X205740000Y-105410000D03*
D15*
X211455000Y-120015000D03*
X208915000Y-120015000D03*
X206375000Y-120015000D03*
X203835000Y-120015000D03*
X201295000Y-120015000D03*
X198755000Y-120015000D03*
X196215000Y-120015000D03*
X193675000Y-120015000D03*
X191135000Y-120015000D03*
X188595000Y-120015000D03*
X186055000Y-120015000D03*
X183515000Y-120015000D03*
X180975000Y-120015000D03*
X178435000Y-120015000D03*
X175895000Y-120015000D03*
X173355000Y-120015000D03*
X170815000Y-120015000D03*
X168275000Y-120015000D03*
X165735000Y-120015000D03*
X163195000Y-120015000D03*
X160655000Y-120015000D03*
X158115000Y-120015000D03*
X155575000Y-120015000D03*
X153035000Y-120015000D03*
X150495000Y-120015000D03*
X147955000Y-120015000D03*
X145415000Y-120015000D03*
X142875000Y-120015000D03*
X140335000Y-120015000D03*
X137795000Y-120015000D03*
X135255000Y-120015000D03*
X132715000Y-120015000D03*
X130175000Y-120015000D03*
X127635000Y-120015000D03*
X125095000Y-120015000D03*
X122555000Y-120015000D03*
X120015000Y-120015000D03*
X117475000Y-120015000D03*
D16*
X114935000Y-120015000D03*
D18*
X159389200Y-114935000D03*
D19*
X175895000Y-116205000D02*
X173355000Y-113665000D01*
X202565000Y-116205000D02*
X175895000Y-116205000D01*
X206375000Y-120015000D02*
X202565000Y-116205000D01*
D20*
X195580000Y-104140000D02*
X195580000Y-105410000D01*
X195580000Y-105410000D02*
X193675000Y-107315000D01*
X194945000Y-103505000D02*
X195580000Y-104140000D01*
X189865000Y-103505000D02*
X194945000Y-103505000D01*
X188595000Y-102235000D02*
X189865000Y-103505000D01*
X186055000Y-112395000D02*
X187960000Y-114300000D01*
X187960000Y-114300000D02*
X193675000Y-114300000D01*
X193675000Y-114300000D02*
X195580000Y-112395000D01*
X195580000Y-112395000D02*
X195580000Y-109220000D01*
X195580000Y-109220000D02*
X193675000Y-107315000D01*
D19*
X201295000Y-105410000D02*
X205740000Y-105410000D01*
X201295000Y-110290000D02*
X205540000Y-110290000D01*
X205540000Y-110290000D02*
X205740000Y-110490000D01*
X176405500Y-118110000D02*
X178435000Y-120015000D01*
X163830000Y-118110000D02*
X176405500Y-118110000D01*
X159389200Y-114935000D02*
X163830000Y-118110000D01*
D20*
X129540000Y-104855000D02*
X129620000Y-104775000D01*
X129620000Y-104775000D02*
X133985000Y-104775000D01*
X180975000Y-104775000D02*
X182245000Y-103505000D01*
X182245000Y-103505000D02*
X184785000Y-103505000D01*
X184785000Y-103505000D02*
X188595000Y-107315000D01*
X188595000Y-107315000D02*
X191135000Y-107315000D01*
X159385000Y-100965000D02*
X170815000Y-100965000D01*
X155575000Y-104775000D02*
X159385000Y-100965000D01*
X170815000Y-100965000D02*
X174625000Y-101045000D01*
X178990000Y-104775000D02*
X180975000Y-104775000D01*
X174625000Y-101045000D02*
X178990000Y-104775000D01*
X154289426Y-106029426D02*
X155575000Y-104775000D01*
X135255000Y-106045000D02*
X154289426Y-106029426D01*
X133985000Y-104775000D02*
X135255000Y-106045000D01*
D19*
X184785000Y-106045000D02*
X183515000Y-104775000D01*
X184150000Y-108585000D02*
X184785000Y-107950000D01*
X184785000Y-107950000D02*
X184785000Y-106045000D01*
X178435000Y-108585000D02*
X184150000Y-108585000D01*
X160355400Y-111801400D02*
X175301400Y-111801400D01*
X175301400Y-111801400D02*
X178435000Y-108585000D01*
X153035000Y-119121800D02*
X160355400Y-111801400D01*
X153035000Y-120015000D02*
X153035000Y-119121800D01*
X178435000Y-107315000D02*
X180975000Y-107315000D01*
X174625000Y-111125000D02*
X178435000Y-107315000D01*
X159385000Y-111125000D02*
X174625000Y-111125000D01*
X150495000Y-120015000D02*
X159385000Y-111125000D01*
X157480000Y-110490000D02*
X147955000Y-120015000D01*
X173990000Y-110490000D02*
X157480000Y-110490000D01*
X178435000Y-106045000D02*
X173990000Y-110490000D01*
X182245000Y-106045000D02*
X178435000Y-106045000D01*
X183515000Y-107315000D02*
X182245000Y-106045000D01*
X136525000Y-114300000D02*
X136525000Y-112395000D01*
X137795000Y-115570000D02*
X136525000Y-114300000D01*
X137795000Y-120015000D02*
X137795000Y-115570000D01*
X151765000Y-98425000D02*
X154305000Y-98425000D01*
X149225000Y-98425000D02*
X151765000Y-98425000D01*
X146685000Y-98425000D02*
X149225000Y-98425000D01*
X144145000Y-98425000D02*
X146685000Y-98425000D01*
X141605000Y-98425000D02*
X144145000Y-98425000D01*
X139065000Y-98425000D02*
X141605000Y-98425000D01*
X136525000Y-98425000D02*
X139065000Y-98425000D01*
X155507700Y-98425000D02*
X154305000Y-98425000D01*
X182245000Y-98425000D02*
X155507700Y-98425000D01*
X183515000Y-99695000D02*
X182245000Y-98425000D01*
X188595000Y-99695000D02*
X188595000Y-93345000D01*
X188595000Y-93345000D02*
X191135000Y-93345000D01*
X186055000Y-93345000D02*
X186055000Y-94497700D01*
X191135000Y-102235000D02*
X189659000Y-100759000D01*
X189659000Y-100759000D02*
X188128200Y-100759000D01*
X188128200Y-100759000D02*
X187207700Y-99838500D01*
X187207700Y-99838500D02*
X187207700Y-95650400D01*
X187207700Y-95650400D02*
X186055000Y-94497700D01*
X193675000Y-93345000D02*
X193675000Y-102235000D01*
X156845000Y-75565000D02*
X156845000Y-73660000D01*
X156845000Y-76835000D02*
X156845000Y-75565000D01*
X168275000Y-75565000D02*
X156845000Y-75565000D01*
X191135000Y-85725000D02*
X187325000Y-81915000D01*
X187325000Y-81915000D02*
X166370000Y-81915000D01*
X166370000Y-81915000D02*
X164465000Y-80010000D01*
X164465000Y-80010000D02*
X163195000Y-80010000D01*
X156845000Y-83185000D02*
X156845000Y-80010000D01*
X156845000Y-80010000D02*
X163195000Y-80010000D01*
X170815000Y-80010000D02*
X170815000Y-75565000D01*
X134093900Y-79901100D02*
X134094000Y-79901100D01*
X127743900Y-86251100D02*
X127744000Y-86251100D01*
X136652000Y-80010000D02*
X130556000Y-86233000D01*
X130556000Y-86233000D02*
X127744000Y-86251100D01*
X136652000Y-80010000D02*
X136525000Y-80010000D01*
X136525000Y-80010000D02*
X134094000Y-79901100D01*
X149225000Y-80010000D02*
X136652000Y-80010000D01*
X129540000Y-84455000D02*
X129540000Y-81788000D01*
X129540000Y-81788000D02*
X133223000Y-78105000D01*
X133223000Y-78105000D02*
X135890000Y-78105000D01*
X149225000Y-76835000D02*
X137160000Y-76835000D01*
X137160000Y-76835000D02*
X135890000Y-78105000D01*
X145415000Y-83185000D02*
X149225000Y-83185000D01*
X145415000Y-73660000D02*
X149225000Y-73660000D01*
D21*
X179136000Y-85725000D02*
X180340000Y-85725000D01*
X170815000Y-85725000D02*
X179136000Y-85725000D01*
X180975000Y-85725000D02*
X180340000Y-85725000D01*
X186055000Y-85725000D02*
X180975000Y-85725000D01*
X142875000Y-83185000D02*
X142875000Y-84455000D01*
X142875000Y-84455000D02*
X144145000Y-85725000D01*
X144145000Y-85725000D02*
X170815000Y-85725000D01*
X170735000Y-83820000D02*
X170735000Y-85645000D01*
X170735000Y-85645000D02*
X170815000Y-85725000D01*
X180340000Y-85725000D02*
X179136000Y-85725000D01*
D22*
X158354200Y-115036939D02*
X158393974Y-115236898D01*
X158471995Y-115425256D01*
X158585263Y-115594774D01*
X158729426Y-115738937D01*
X158898944Y-115852205D01*
X159087302Y-115930226D01*
X159287261Y-115970000D01*
X159482986Y-115970000D01*
X163063597Y-118530000D01*
X163048740Y-118530000D01*
X162761842Y-118587068D01*
X162491589Y-118699010D01*
X162248368Y-118861525D01*
X162041525Y-119068368D01*
X161925000Y-119242760D01*
X161808475Y-119068368D01*
X161601632Y-118861525D01*
X161358411Y-118699010D01*
X161088158Y-118587068D01*
X160801260Y-118530000D01*
X160508740Y-118530000D01*
X160221842Y-118587068D01*
X159951589Y-118699010D01*
X159708368Y-118861525D01*
X159501525Y-119068368D01*
X159385000Y-119242760D01*
X159268475Y-119068368D01*
X159061632Y-118861525D01*
X158818411Y-118699010D01*
X158548158Y-118587068D01*
X158261260Y-118530000D01*
X157968740Y-118530000D01*
X157681842Y-118587068D01*
X157411589Y-118699010D01*
X157168368Y-118861525D01*
X156961525Y-119068368D01*
X156839805Y-119250534D01*
X156770178Y-119133645D01*
X156575269Y-118917412D01*
X156341920Y-118743359D01*
X156079099Y-118618175D01*
X155931890Y-118573524D01*
X155702000Y-118694845D01*
X155702000Y-119888000D01*
X155722000Y-119888000D01*
X155722000Y-120142000D01*
X155702000Y-120142000D01*
X155702000Y-120162000D01*
X155448000Y-120162000D01*
X155448000Y-120142000D01*
X155428000Y-120142000D01*
X155428000Y-119888000D01*
X155448000Y-119888000D01*
X155448000Y-118694845D01*
X155218110Y-118573524D01*
X155070901Y-118618175D01*
X154808080Y-118743359D01*
X154574731Y-118917412D01*
X154379822Y-119133645D01*
X154310195Y-119250534D01*
X154193885Y-119076465D01*
X158354200Y-114916151D01*
X158354200Y-115036939D01*
G04 #@! TA.AperFunction,Conductor*
D23*
G36*
X158354200Y-115036939D02*
G01*
X158393974Y-115236898D01*
X158471995Y-115425256D01*
X158585263Y-115594774D01*
X158729426Y-115738937D01*
X158898944Y-115852205D01*
X159087302Y-115930226D01*
X159287261Y-115970000D01*
X159482986Y-115970000D01*
X163063597Y-118530000D01*
X163048740Y-118530000D01*
X162761842Y-118587068D01*
X162491589Y-118699010D01*
X162248368Y-118861525D01*
X162041525Y-119068368D01*
X161925000Y-119242760D01*
X161808475Y-119068368D01*
X161601632Y-118861525D01*
X161358411Y-118699010D01*
X161088158Y-118587068D01*
X160801260Y-118530000D01*
X160508740Y-118530000D01*
X160221842Y-118587068D01*
X159951589Y-118699010D01*
X159708368Y-118861525D01*
X159501525Y-119068368D01*
X159385000Y-119242760D01*
X159268475Y-119068368D01*
X159061632Y-118861525D01*
X158818411Y-118699010D01*
X158548158Y-118587068D01*
X158261260Y-118530000D01*
X157968740Y-118530000D01*
X157681842Y-118587068D01*
X157411589Y-118699010D01*
X157168368Y-118861525D01*
X156961525Y-119068368D01*
X156839805Y-119250534D01*
X156770178Y-119133645D01*
X156575269Y-118917412D01*
X156341920Y-118743359D01*
X156079099Y-118618175D01*
X155931890Y-118573524D01*
X155702000Y-118694845D01*
X155702000Y-119888000D01*
X155722000Y-119888000D01*
X155722000Y-120142000D01*
X155702000Y-120142000D01*
X155702000Y-120162000D01*
X155448000Y-120162000D01*
X155448000Y-120142000D01*
X155428000Y-120142000D01*
X155428000Y-119888000D01*
X155448000Y-119888000D01*
X155448000Y-118694845D01*
X155218110Y-118573524D01*
X155070901Y-118618175D01*
X154808080Y-118743359D01*
X154574731Y-118917412D01*
X154379822Y-119133645D01*
X154310195Y-119250534D01*
X154193885Y-119076465D01*
X158354200Y-114916151D01*
X158354200Y-115036939D01*
G37*
G04 #@! TD.AperFunction*
D22*
X212700000Y-119205345D02*
X212608475Y-119068368D01*
X212401632Y-118861525D01*
X212158411Y-118699010D01*
X211888158Y-118587068D01*
X211601260Y-118530000D01*
X211308740Y-118530000D01*
X211021842Y-118587068D01*
X210751589Y-118699010D01*
X210508368Y-118861525D01*
X210301525Y-119068368D01*
X210185000Y-119242760D01*
X210068475Y-119068368D01*
X209861632Y-118861525D01*
X209618411Y-118699010D01*
X209348158Y-118587068D01*
X209061260Y-118530000D01*
X208768740Y-118530000D01*
X208481842Y-118587068D01*
X208211589Y-118699010D01*
X207968368Y-118861525D01*
X207761525Y-119068368D01*
X207645000Y-119242760D01*
X207528475Y-119068368D01*
X207321632Y-118861525D01*
X207078411Y-118699010D01*
X206808158Y-118587068D01*
X206521260Y-118530000D01*
X206228740Y-118530000D01*
X206040913Y-118567361D01*
X203149128Y-115675578D01*
X203124469Y-115645531D01*
X203004572Y-115547134D01*
X202867783Y-115474018D01*
X202719357Y-115428994D01*
X202603673Y-115417600D01*
X202603663Y-115417600D01*
X202565000Y-115413792D01*
X202526337Y-115417600D01*
X176221152Y-115417600D01*
X174802638Y-113999088D01*
X174840000Y-113811260D01*
X174840000Y-113518740D01*
X174782932Y-113231842D01*
X174670990Y-112961589D01*
X174508475Y-112718368D01*
X174378907Y-112588800D01*
X175267880Y-112588800D01*
X175311715Y-112592541D01*
X175383634Y-112584510D01*
X175455757Y-112577406D01*
X175460717Y-112575901D01*
X175465861Y-112575327D01*
X175534840Y-112553417D01*
X175604183Y-112532382D01*
X175608753Y-112529939D01*
X175613687Y-112528372D01*
X175677063Y-112493426D01*
X175740972Y-112459266D01*
X175744979Y-112455977D01*
X175749512Y-112453478D01*
X175804855Y-112406839D01*
X175860869Y-112360869D01*
X175888788Y-112326849D01*
X178767182Y-109372400D01*
X179717783Y-109372400D01*
X179680533Y-109462328D01*
X179628800Y-109722411D01*
X179628800Y-109987589D01*
X179680533Y-110247672D01*
X179782013Y-110492665D01*
X179929338Y-110713153D01*
X180116847Y-110900662D01*
X180337335Y-111047987D01*
X180582328Y-111149467D01*
X180842411Y-111201200D01*
X181107589Y-111201200D01*
X181367672Y-111149467D01*
X181612665Y-111047987D01*
X181833153Y-110900662D01*
X182020662Y-110713153D01*
X182167987Y-110492665D01*
X182245000Y-110306740D01*
X182322013Y-110492665D01*
X182469338Y-110713153D01*
X182656847Y-110900662D01*
X182877335Y-111047987D01*
X183063260Y-111125000D01*
X182877335Y-111202013D01*
X182656847Y-111349338D01*
X182469338Y-111536847D01*
X182322013Y-111757335D01*
X182220533Y-112002328D01*
X182168800Y-112262411D01*
X182168800Y-112527589D01*
X182220533Y-112787672D01*
X182322013Y-113032665D01*
X182469338Y-113253153D01*
X182656847Y-113440662D01*
X182877335Y-113587987D01*
X183122328Y-113689467D01*
X183382411Y-113741200D01*
X183647589Y-113741200D01*
X183907672Y-113689467D01*
X184152665Y-113587987D01*
X184373153Y-113440662D01*
X184489542Y-113324273D01*
X185305332Y-113324273D01*
X185366152Y-113559183D01*
X185606509Y-113671202D01*
X185864102Y-113734176D01*
X186129030Y-113745687D01*
X186391113Y-113705291D01*
X186640280Y-113614542D01*
X186743848Y-113559183D01*
X186804668Y-113324273D01*
X186055000Y-112574605D01*
X185305332Y-113324273D01*
X184489542Y-113324273D01*
X184560662Y-113253153D01*
X184707987Y-113032665D01*
X184785969Y-112844400D01*
X184835458Y-112980280D01*
X184890817Y-113083848D01*
X185125727Y-113144668D01*
X185875395Y-112395000D01*
X185125727Y-111645332D01*
X184890817Y-111706152D01*
X184782794Y-111937934D01*
X184707987Y-111757335D01*
X184560662Y-111536847D01*
X184373153Y-111349338D01*
X184152665Y-111202013D01*
X183966740Y-111125000D01*
X184152665Y-111047987D01*
X184373153Y-110900662D01*
X184560662Y-110713153D01*
X184707987Y-110492665D01*
X184785000Y-110306740D01*
X184862013Y-110492665D01*
X185009338Y-110713153D01*
X185196847Y-110900662D01*
X185417335Y-111047987D01*
X185605600Y-111125969D01*
X185469720Y-111175458D01*
X185366152Y-111230817D01*
X185305332Y-111465727D01*
X186055000Y-112215395D01*
X186804668Y-111465727D01*
X186743848Y-111230817D01*
X186512066Y-111122794D01*
X186692665Y-111047987D01*
X186913153Y-110900662D01*
X187100662Y-110713153D01*
X187247987Y-110492665D01*
X187325000Y-110306740D01*
X187402013Y-110492665D01*
X187549338Y-110713153D01*
X187736847Y-110900662D01*
X187957335Y-111047987D01*
X188143260Y-111125000D01*
X187957335Y-111202013D01*
X187736847Y-111349338D01*
X187549338Y-111536847D01*
X187402013Y-111757335D01*
X187324031Y-111945600D01*
X187274542Y-111809720D01*
X187219183Y-111706152D01*
X186984273Y-111645332D01*
X186234605Y-112395000D01*
X186984273Y-113144668D01*
X187219183Y-113083848D01*
X187327206Y-112852066D01*
X187402013Y-113032665D01*
X187549338Y-113253153D01*
X187736847Y-113440662D01*
X187957335Y-113587987D01*
X188202328Y-113689467D01*
X188462411Y-113741200D01*
X188727589Y-113741200D01*
X188987672Y-113689467D01*
X189232665Y-113587987D01*
X189453153Y-113440662D01*
X189640662Y-113253153D01*
X189787987Y-113032665D01*
X189865000Y-112846740D01*
X189942013Y-113032665D01*
X190089338Y-113253153D01*
X190276847Y-113440662D01*
X190497335Y-113587987D01*
X190742328Y-113689467D01*
X191002411Y-113741200D01*
X191267589Y-113741200D01*
X191527672Y-113689467D01*
X191772665Y-113587987D01*
X191993153Y-113440662D01*
X192180662Y-113253153D01*
X192327987Y-113032665D01*
X192429467Y-112787672D01*
X192481200Y-112527589D01*
X192481200Y-112262411D01*
X192429467Y-112002328D01*
X192327987Y-111757335D01*
X192180662Y-111536847D01*
X191993153Y-111349338D01*
X191772665Y-111202013D01*
X191586740Y-111125000D01*
X191772665Y-111047987D01*
X191993153Y-110900662D01*
X192180662Y-110713153D01*
X192327987Y-110492665D01*
X192405000Y-110306740D01*
X192482013Y-110492665D01*
X192629338Y-110713153D01*
X192816847Y-110900662D01*
X193037335Y-111047987D01*
X193282328Y-111149467D01*
X193542411Y-111201200D01*
X193807589Y-111201200D01*
X194067672Y-111149467D01*
X194312665Y-111047987D01*
X194533153Y-110900662D01*
X194720662Y-110713153D01*
X194867987Y-110492665D01*
X194969467Y-110247672D01*
X194988181Y-110153589D01*
X199910000Y-110153589D01*
X199910000Y-110426411D01*
X199963225Y-110693989D01*
X200067629Y-110946043D01*
X200219201Y-111172886D01*
X200412114Y-111365799D01*
X200638957Y-111517371D01*
X200891011Y-111621775D01*
X201158589Y-111675000D01*
X201431411Y-111675000D01*
X201698989Y-111621775D01*
X201951043Y-111517371D01*
X202177886Y-111365799D01*
X202370799Y-111172886D01*
X202434601Y-111077400D01*
X204430077Y-111077400D01*
X204468320Y-111169727D01*
X204625363Y-111404759D01*
X204825241Y-111604637D01*
X205060273Y-111761680D01*
X205321426Y-111869853D01*
X205598665Y-111925000D01*
X205881335Y-111925000D01*
X206158574Y-111869853D01*
X206419727Y-111761680D01*
X206654759Y-111604637D01*
X206776694Y-111482702D01*
X209926903Y-111482702D01*
X209998486Y-111726671D01*
X210253996Y-111847571D01*
X210528184Y-111916300D01*
X210810512Y-111930217D01*
X211090130Y-111888787D01*
X211356292Y-111793603D01*
X211481514Y-111726671D01*
X211553097Y-111482702D01*
X210740000Y-110669605D01*
X209926903Y-111482702D01*
X206776694Y-111482702D01*
X206854637Y-111404759D01*
X207011680Y-111169727D01*
X207119853Y-110908574D01*
X207175000Y-110631335D01*
X207175000Y-110560512D01*
X209299783Y-110560512D01*
X209341213Y-110840130D01*
X209436397Y-111106292D01*
X209503329Y-111231514D01*
X209747298Y-111303097D01*
X210560395Y-110490000D01*
X210919605Y-110490000D01*
X211732702Y-111303097D01*
X211976671Y-111231514D01*
X212097571Y-110976004D01*
X212166300Y-110701816D01*
X212180217Y-110419488D01*
X212138787Y-110139870D01*
X212043603Y-109873708D01*
X211976671Y-109748486D01*
X211732702Y-109676903D01*
X210919605Y-110490000D01*
X210560395Y-110490000D01*
X209747298Y-109676903D01*
X209503329Y-109748486D01*
X209382429Y-110003996D01*
X209313700Y-110278184D01*
X209299783Y-110560512D01*
X207175000Y-110560512D01*
X207175000Y-110348665D01*
X207119853Y-110071426D01*
X207011680Y-109810273D01*
X206854637Y-109575241D01*
X206776694Y-109497298D01*
X209926903Y-109497298D01*
X210740000Y-110310395D01*
X211553097Y-109497298D01*
X211481514Y-109253329D01*
X211226004Y-109132429D01*
X210951816Y-109063700D01*
X210669488Y-109049783D01*
X210389870Y-109091213D01*
X210123708Y-109186397D01*
X209998486Y-109253329D01*
X209926903Y-109497298D01*
X206776694Y-109497298D01*
X206654759Y-109375363D01*
X206419727Y-109218320D01*
X206158574Y-109110147D01*
X205881335Y-109055000D01*
X205598665Y-109055000D01*
X205321426Y-109110147D01*
X205060273Y-109218320D01*
X204825241Y-109375363D01*
X204698004Y-109502600D01*
X202434601Y-109502600D01*
X202370799Y-109407114D01*
X202177886Y-109214201D01*
X201951043Y-109062629D01*
X201698989Y-108958225D01*
X201431411Y-108905000D01*
X201158589Y-108905000D01*
X200891011Y-108958225D01*
X200638957Y-109062629D01*
X200412114Y-109214201D01*
X200219201Y-109407114D01*
X200067629Y-109633957D01*
X199963225Y-109886011D01*
X199910000Y-110153589D01*
X194988181Y-110153589D01*
X195021200Y-109987589D01*
X195021200Y-109722411D01*
X194969467Y-109462328D01*
X194867987Y-109217335D01*
X194720662Y-108996847D01*
X194533153Y-108809338D01*
X194312665Y-108662013D01*
X194124400Y-108584031D01*
X194260280Y-108534542D01*
X194363848Y-108479183D01*
X194424668Y-108244273D01*
X193675000Y-107494605D01*
X192925332Y-108244273D01*
X192986152Y-108479183D01*
X193217934Y-108587206D01*
X193037335Y-108662013D01*
X192816847Y-108809338D01*
X192629338Y-108996847D01*
X192482013Y-109217335D01*
X192405000Y-109403260D01*
X192327987Y-109217335D01*
X192180662Y-108996847D01*
X191993153Y-108809338D01*
X191772665Y-108662013D01*
X191586740Y-108585000D01*
X191772665Y-108507987D01*
X191993153Y-108360662D01*
X192180662Y-108173153D01*
X192327987Y-107952665D01*
X192405969Y-107764400D01*
X192455458Y-107900280D01*
X192510817Y-108003848D01*
X192745727Y-108064668D01*
X193495395Y-107315000D01*
X193854605Y-107315000D01*
X194604273Y-108064668D01*
X194839183Y-108003848D01*
X194951202Y-107763491D01*
X195014176Y-107505898D01*
X195025687Y-107240970D01*
X194985291Y-106978887D01*
X194894542Y-106729720D01*
X194839183Y-106626152D01*
X194604273Y-106565332D01*
X193854605Y-107315000D01*
X193495395Y-107315000D01*
X192745727Y-106565332D01*
X192510817Y-106626152D01*
X192402794Y-106857934D01*
X192327987Y-106677335D01*
X192180662Y-106456847D01*
X191993153Y-106269338D01*
X191772665Y-106122013D01*
X191586740Y-106045000D01*
X191772665Y-105967987D01*
X191993153Y-105820662D01*
X192180662Y-105633153D01*
X192327987Y-105412665D01*
X192405000Y-105226740D01*
X192482013Y-105412665D01*
X192629338Y-105633153D01*
X192816847Y-105820662D01*
X193037335Y-105967987D01*
X193225600Y-106045969D01*
X193089720Y-106095458D01*
X192986152Y-106150817D01*
X192925332Y-106385727D01*
X193675000Y-107135395D01*
X194424668Y-106385727D01*
X194363848Y-106150817D01*
X194132066Y-106042794D01*
X194312665Y-105967987D01*
X194533153Y-105820662D01*
X194720662Y-105633153D01*
X194867987Y-105412665D01*
X194925594Y-105273589D01*
X199910000Y-105273589D01*
X199910000Y-105546411D01*
X199963225Y-105813989D01*
X200067629Y-106066043D01*
X200219201Y-106292886D01*
X200412114Y-106485799D01*
X200638957Y-106637371D01*
X200891011Y-106741775D01*
X201158589Y-106795000D01*
X201431411Y-106795000D01*
X201698989Y-106741775D01*
X201951043Y-106637371D01*
X202177886Y-106485799D01*
X202370799Y-106292886D01*
X202434601Y-106197400D01*
X204540265Y-106197400D01*
X204625363Y-106324759D01*
X204825241Y-106524637D01*
X205060273Y-106681680D01*
X205321426Y-106789853D01*
X205598665Y-106845000D01*
X205881335Y-106845000D01*
X206158574Y-106789853D01*
X206419727Y-106681680D01*
X206654759Y-106524637D01*
X206776694Y-106402702D01*
X209926903Y-106402702D01*
X209998486Y-106646671D01*
X210253996Y-106767571D01*
X210528184Y-106836300D01*
X210810512Y-106850217D01*
X211090130Y-106808787D01*
X211356292Y-106713603D01*
X211481514Y-106646671D01*
X211553097Y-106402702D01*
X210740000Y-105589605D01*
X209926903Y-106402702D01*
X206776694Y-106402702D01*
X206854637Y-106324759D01*
X207011680Y-106089727D01*
X207119853Y-105828574D01*
X207175000Y-105551335D01*
X207175000Y-105480512D01*
X209299783Y-105480512D01*
X209341213Y-105760130D01*
X209436397Y-106026292D01*
X209503329Y-106151514D01*
X209747298Y-106223097D01*
X210560395Y-105410000D01*
X210919605Y-105410000D01*
X211732702Y-106223097D01*
X211976671Y-106151514D01*
X212097571Y-105896004D01*
X212166300Y-105621816D01*
X212180217Y-105339488D01*
X212138787Y-105059870D01*
X212043603Y-104793708D01*
X211976671Y-104668486D01*
X211732702Y-104596903D01*
X210919605Y-105410000D01*
X210560395Y-105410000D01*
X209747298Y-104596903D01*
X209503329Y-104668486D01*
X209382429Y-104923996D01*
X209313700Y-105198184D01*
X209299783Y-105480512D01*
X207175000Y-105480512D01*
X207175000Y-105268665D01*
X207119853Y-104991426D01*
X207011680Y-104730273D01*
X206854637Y-104495241D01*
X206776694Y-104417298D01*
X209926903Y-104417298D01*
X210740000Y-105230395D01*
X211553097Y-104417298D01*
X211481514Y-104173329D01*
X211226004Y-104052429D01*
X210951816Y-103983700D01*
X210669488Y-103969783D01*
X210389870Y-104011213D01*
X210123708Y-104106397D01*
X209998486Y-104173329D01*
X209926903Y-104417298D01*
X206776694Y-104417298D01*
X206654759Y-104295363D01*
X206419727Y-104138320D01*
X206158574Y-104030147D01*
X205881335Y-103975000D01*
X205598665Y-103975000D01*
X205321426Y-104030147D01*
X205060273Y-104138320D01*
X204825241Y-104295363D01*
X204625363Y-104495241D01*
X204540265Y-104622600D01*
X202434601Y-104622600D01*
X202370799Y-104527114D01*
X202177886Y-104334201D01*
X201951043Y-104182629D01*
X201698989Y-104078225D01*
X201431411Y-104025000D01*
X201158589Y-104025000D01*
X200891011Y-104078225D01*
X200638957Y-104182629D01*
X200412114Y-104334201D01*
X200219201Y-104527114D01*
X200067629Y-104753957D01*
X199963225Y-105006011D01*
X199910000Y-105273589D01*
X194925594Y-105273589D01*
X194969467Y-105167672D01*
X195021200Y-104907589D01*
X195021200Y-104642411D01*
X194969467Y-104382328D01*
X194867987Y-104137335D01*
X194720662Y-103916847D01*
X194533153Y-103729338D01*
X194312665Y-103582013D01*
X194126740Y-103505000D01*
X194312665Y-103427987D01*
X194533153Y-103280662D01*
X194720662Y-103093153D01*
X194867987Y-102872665D01*
X194969467Y-102627672D01*
X195021200Y-102367589D01*
X195021200Y-102102411D01*
X194969467Y-101842328D01*
X194867987Y-101597335D01*
X194720662Y-101376847D01*
X194533153Y-101189338D01*
X194462400Y-101142062D01*
X194462400Y-94544735D01*
X194589759Y-94459637D01*
X194789637Y-94259759D01*
X194946680Y-94024727D01*
X195054853Y-93763574D01*
X195110000Y-93486335D01*
X195110000Y-93203665D01*
X195054853Y-92926426D01*
X194946680Y-92665273D01*
X194789637Y-92430241D01*
X194589759Y-92230363D01*
X194354727Y-92073320D01*
X194093574Y-91965147D01*
X193816335Y-91910000D01*
X193533665Y-91910000D01*
X193256426Y-91965147D01*
X192995273Y-92073320D01*
X192760241Y-92230363D01*
X192560363Y-92430241D01*
X192405000Y-92662759D01*
X192249637Y-92430241D01*
X192049759Y-92230363D01*
X191814727Y-92073320D01*
X191553574Y-91965147D01*
X191276335Y-91910000D01*
X190993665Y-91910000D01*
X190716426Y-91965147D01*
X190455273Y-92073320D01*
X190220241Y-92230363D01*
X190020363Y-92430241D01*
X189935265Y-92557600D01*
X189794735Y-92557600D01*
X189709637Y-92430241D01*
X189509759Y-92230363D01*
X189274727Y-92073320D01*
X189013574Y-91965147D01*
X188736335Y-91910000D01*
X188453665Y-91910000D01*
X188176426Y-91965147D01*
X187915273Y-92073320D01*
X187680241Y-92230363D01*
X187481643Y-92428961D01*
X187480812Y-92420518D01*
X187444502Y-92300820D01*
X187385537Y-92190506D01*
X187306185Y-92093815D01*
X187209494Y-92014463D01*
X187099180Y-91955498D01*
X186979482Y-91919188D01*
X186855000Y-91906928D01*
X185255000Y-91906928D01*
X185130518Y-91919188D01*
X185010820Y-91955498D01*
X184900506Y-92014463D01*
X184803815Y-92093815D01*
X184724463Y-92190506D01*
X184665498Y-92300820D01*
X184629188Y-92420518D01*
X184616928Y-92545000D01*
X184616928Y-94145000D01*
X184629188Y-94269482D01*
X184665498Y-94389180D01*
X184724463Y-94499494D01*
X184803815Y-94596185D01*
X184900506Y-94675537D01*
X185010820Y-94734502D01*
X185130518Y-94770812D01*
X185255000Y-94783072D01*
X185318737Y-94783072D01*
X185324018Y-94800482D01*
X185387592Y-94919418D01*
X185397135Y-94937272D01*
X185495532Y-95057169D01*
X185525573Y-95081823D01*
X186420301Y-95976552D01*
X186420300Y-98395089D01*
X186187589Y-98348800D01*
X185922411Y-98348800D01*
X185662328Y-98400533D01*
X185417335Y-98502013D01*
X185196847Y-98649338D01*
X185009338Y-98836847D01*
X184862013Y-99057335D01*
X184785000Y-99243260D01*
X184707987Y-99057335D01*
X184560662Y-98836847D01*
X184373153Y-98649338D01*
X184152665Y-98502013D01*
X183907672Y-98400533D01*
X183647589Y-98348800D01*
X183382411Y-98348800D01*
X183298952Y-98365401D01*
X182829127Y-97895577D01*
X182804469Y-97865531D01*
X182684572Y-97767134D01*
X182547783Y-97694018D01*
X182399357Y-97648994D01*
X182283673Y-97637600D01*
X182283663Y-97637600D01*
X182245000Y-97633792D01*
X182206337Y-97637600D01*
X155564870Y-97637600D01*
X155458475Y-97478368D01*
X155251632Y-97271525D01*
X155008411Y-97109010D01*
X154738158Y-96997068D01*
X154451260Y-96940000D01*
X154158740Y-96940000D01*
X153871842Y-96997068D01*
X153601589Y-97109010D01*
X153358368Y-97271525D01*
X153151525Y-97478368D01*
X153045130Y-97637600D01*
X153024870Y-97637600D01*
X152918475Y-97478368D01*
X152711632Y-97271525D01*
X152468411Y-97109010D01*
X152198158Y-96997068D01*
X151911260Y-96940000D01*
X151618740Y-96940000D01*
X151331842Y-96997068D01*
X151061589Y-97109010D01*
X150818368Y-97271525D01*
X150611525Y-97478368D01*
X150505130Y-97637600D01*
X150484870Y-97637600D01*
X150378475Y-97478368D01*
X150171632Y-97271525D01*
X149928411Y-97109010D01*
X149658158Y-96997068D01*
X149371260Y-96940000D01*
X149078740Y-96940000D01*
X148791842Y-96997068D01*
X148521589Y-97109010D01*
X148278368Y-97271525D01*
X148071525Y-97478368D01*
X147965130Y-97637600D01*
X147944870Y-97637600D01*
X147838475Y-97478368D01*
X147631632Y-97271525D01*
X147388411Y-97109010D01*
X147118158Y-96997068D01*
X146831260Y-96940000D01*
X146538740Y-96940000D01*
X146251842Y-96997068D01*
X145981589Y-97109010D01*
X145738368Y-97271525D01*
X145531525Y-97478368D01*
X145425130Y-97637600D01*
X145404870Y-97637600D01*
X145298475Y-97478368D01*
X145091632Y-97271525D01*
X144848411Y-97109010D01*
X144578158Y-96997068D01*
X144291260Y-96940000D01*
X143998740Y-96940000D01*
X143711842Y-96997068D01*
X143441589Y-97109010D01*
X143198368Y-97271525D01*
X142991525Y-97478368D01*
X142885130Y-97637600D01*
X142864870Y-97637600D01*
X142758475Y-97478368D01*
X142551632Y-97271525D01*
X142308411Y-97109010D01*
X142038158Y-96997068D01*
X141751260Y-96940000D01*
X141458740Y-96940000D01*
X141171842Y-96997068D01*
X140901589Y-97109010D01*
X140658368Y-97271525D01*
X140451525Y-97478368D01*
X140345130Y-97637600D01*
X140324870Y-97637600D01*
X140218475Y-97478368D01*
X140011632Y-97271525D01*
X139768411Y-97109010D01*
X139498158Y-96997068D01*
X139211260Y-96940000D01*
X138918740Y-96940000D01*
X138631842Y-96997068D01*
X138361589Y-97109010D01*
X138118368Y-97271525D01*
X137911525Y-97478368D01*
X137805130Y-97637600D01*
X137784870Y-97637600D01*
X137678475Y-97478368D01*
X137471632Y-97271525D01*
X137228411Y-97109010D01*
X136958158Y-96997068D01*
X136671260Y-96940000D01*
X136378740Y-96940000D01*
X136091842Y-96997068D01*
X135821589Y-97109010D01*
X135578368Y-97271525D01*
X135371525Y-97478368D01*
X135209010Y-97721589D01*
X135097068Y-97991842D01*
X135040000Y-98278740D01*
X135040000Y-98571260D01*
X135097068Y-98858158D01*
X135209010Y-99128411D01*
X135371525Y-99371632D01*
X135503380Y-99503487D01*
X135430820Y-99525498D01*
X135320506Y-99584463D01*
X135223815Y-99663815D01*
X135144463Y-99760506D01*
X135085498Y-99870820D01*
X135049188Y-99990518D01*
X135036928Y-100115000D01*
X135036928Y-101815000D01*
X135049188Y-101939482D01*
X135085498Y-102059180D01*
X135144463Y-102169494D01*
X135223815Y-102266185D01*
X135320506Y-102345537D01*
X135430820Y-102404502D01*
X135550518Y-102440812D01*
X135675000Y-102453072D01*
X137375000Y-102453072D01*
X137499482Y-102440812D01*
X137619180Y-102404502D01*
X137729494Y-102345537D01*
X137826185Y-102266185D01*
X137905537Y-102169494D01*
X137964502Y-102059180D01*
X137986513Y-101986620D01*
X138118368Y-102118475D01*
X138361589Y-102280990D01*
X138631842Y-102392932D01*
X138918740Y-102450000D01*
X139211260Y-102450000D01*
X139498158Y-102392932D01*
X139768411Y-102280990D01*
X140011632Y-102118475D01*
X140218475Y-101911632D01*
X140335000Y-101737240D01*
X140451525Y-101911632D01*
X140658368Y-102118475D01*
X140901589Y-102280990D01*
X141171842Y-102392932D01*
X141458740Y-102450000D01*
X141751260Y-102450000D01*
X142038158Y-102392932D01*
X142308411Y-102280990D01*
X142551632Y-102118475D01*
X142758475Y-101911632D01*
X142875000Y-101737240D01*
X142991525Y-101911632D01*
X143198368Y-102118475D01*
X143441589Y-102280990D01*
X143711842Y-102392932D01*
X143998740Y-102450000D01*
X144291260Y-102450000D01*
X144578158Y-102392932D01*
X144848411Y-102280990D01*
X145091632Y-102118475D01*
X145298475Y-101911632D01*
X145415000Y-101737240D01*
X145531525Y-101911632D01*
X145738368Y-102118475D01*
X145981589Y-102280990D01*
X146251842Y-102392932D01*
X146538740Y-102450000D01*
X146831260Y-102450000D01*
X147118158Y-102392932D01*
X147388411Y-102280990D01*
X147631632Y-102118475D01*
X147838475Y-101911632D01*
X147955000Y-101737240D01*
X148071525Y-101911632D01*
X148278368Y-102118475D01*
X148521589Y-102280990D01*
X148791842Y-102392932D01*
X149078740Y-102450000D01*
X149371260Y-102450000D01*
X149658158Y-102392932D01*
X149928411Y-102280990D01*
X150171632Y-102118475D01*
X150378475Y-101911632D01*
X150495000Y-101737240D01*
X150611525Y-101911632D01*
X150818368Y-102118475D01*
X151061589Y-102280990D01*
X151331842Y-102392932D01*
X151618740Y-102450000D01*
X151911260Y-102450000D01*
X152198158Y-102392932D01*
X152468411Y-102280990D01*
X152711632Y-102118475D01*
X152918475Y-101911632D01*
X153035000Y-101737240D01*
X153151525Y-101911632D01*
X153358368Y-102118475D01*
X153601589Y-102280990D01*
X153871842Y-102392932D01*
X154158740Y-102450000D01*
X154451260Y-102450000D01*
X154738158Y-102392932D01*
X155008411Y-102280990D01*
X155251632Y-102118475D01*
X155458475Y-101911632D01*
X155620990Y-101668411D01*
X155732932Y-101398158D01*
X155790000Y-101111260D01*
X155790000Y-100818740D01*
X155732932Y-100531842D01*
X155620990Y-100261589D01*
X155458475Y-100018368D01*
X155251632Y-99811525D01*
X155077240Y-99695000D01*
X155251632Y-99578475D01*
X155458475Y-99371632D01*
X155564870Y-99212400D01*
X181918850Y-99212400D01*
X182185401Y-99478952D01*
X182168800Y-99562411D01*
X182168800Y-99827589D01*
X182220533Y-100087672D01*
X182322013Y-100332665D01*
X182469338Y-100553153D01*
X182656847Y-100740662D01*
X182877335Y-100887987D01*
X183063260Y-100965000D01*
X182877335Y-101042013D01*
X182656847Y-101189338D01*
X182469338Y-101376847D01*
X182322013Y-101597335D01*
X182245000Y-101783260D01*
X182167987Y-101597335D01*
X182020662Y-101376847D01*
X181833153Y-101189338D01*
X181612665Y-101042013D01*
X181367672Y-100940533D01*
X181107589Y-100888800D01*
X180842411Y-100888800D01*
X180582328Y-100940533D01*
X180337335Y-101042013D01*
X180116847Y-101189338D01*
X179929338Y-101376847D01*
X179782013Y-101597335D01*
X179680533Y-101842328D01*
X179628800Y-102102411D01*
X179628800Y-102367589D01*
X179680533Y-102627672D01*
X179782013Y-102872665D01*
X179929338Y-103093153D01*
X180116847Y-103280662D01*
X180337335Y-103427987D01*
X180523260Y-103505000D01*
X180337335Y-103582013D01*
X180116847Y-103729338D01*
X179960185Y-103886000D01*
X179318099Y-103886000D01*
X176060000Y-101101875D01*
X176060000Y-100903665D01*
X176004853Y-100626426D01*
X175896680Y-100365273D01*
X175739637Y-100130241D01*
X175539759Y-99930363D01*
X175304727Y-99773320D01*
X175043574Y-99665147D01*
X174766335Y-99610000D01*
X174483665Y-99610000D01*
X174206426Y-99665147D01*
X173945273Y-99773320D01*
X173710241Y-99930363D01*
X173510363Y-100130241D01*
X173508940Y-100132370D01*
X171962822Y-100099906D01*
X171929637Y-100050241D01*
X171729759Y-99850363D01*
X171494727Y-99693320D01*
X171233574Y-99585147D01*
X170956335Y-99530000D01*
X170673665Y-99530000D01*
X170396426Y-99585147D01*
X170135273Y-99693320D01*
X169900241Y-99850363D01*
X169700363Y-100050241D01*
X169683151Y-100076000D01*
X159428660Y-100076000D01*
X159385000Y-100071700D01*
X159341340Y-100076000D01*
X159341333Y-100076000D01*
X159227325Y-100087229D01*
X159210725Y-100088864D01*
X159170276Y-100101134D01*
X159043149Y-100139697D01*
X158888709Y-100222247D01*
X158753341Y-100333341D01*
X158725506Y-100367258D01*
X155746721Y-103346044D01*
X155716335Y-103340000D01*
X155433665Y-103340000D01*
X155156426Y-103395147D01*
X154895273Y-103503320D01*
X154660241Y-103660363D01*
X154460363Y-103860241D01*
X154303320Y-104095273D01*
X154195147Y-104356426D01*
X154140000Y-104633665D01*
X154140000Y-104916335D01*
X154142798Y-104930403D01*
X153927257Y-105140722D01*
X153155240Y-105141354D01*
X153200000Y-104916335D01*
X153200000Y-104633665D01*
X153144853Y-104356426D01*
X153036680Y-104095273D01*
X152879637Y-103860241D01*
X152679759Y-103660363D01*
X152444727Y-103503320D01*
X152183574Y-103395147D01*
X151906335Y-103340000D01*
X151623665Y-103340000D01*
X151346426Y-103395147D01*
X151085273Y-103503320D01*
X150850241Y-103660363D01*
X150650363Y-103860241D01*
X150495000Y-104092759D01*
X150339637Y-103860241D01*
X150139759Y-103660363D01*
X149904727Y-103503320D01*
X149643574Y-103395147D01*
X149366335Y-103340000D01*
X149083665Y-103340000D01*
X148806426Y-103395147D01*
X148545273Y-103503320D01*
X148310241Y-103660363D01*
X148110363Y-103860241D01*
X147955000Y-104092759D01*
X147799637Y-103860241D01*
X147599759Y-103660363D01*
X147364727Y-103503320D01*
X147103574Y-103395147D01*
X146826335Y-103340000D01*
X146543665Y-103340000D01*
X146266426Y-103395147D01*
X146005273Y-103503320D01*
X145770241Y-103660363D01*
X145570363Y-103860241D01*
X145415000Y-104092759D01*
X145259637Y-103860241D01*
X145059759Y-103660363D01*
X144824727Y-103503320D01*
X144563574Y-103395147D01*
X144286335Y-103340000D01*
X144003665Y-103340000D01*
X143726426Y-103395147D01*
X143465273Y-103503320D01*
X143230241Y-103660363D01*
X143030363Y-103860241D01*
X142875000Y-104092759D01*
X142719637Y-103860241D01*
X142519759Y-103660363D01*
X142284727Y-103503320D01*
X142023574Y-103395147D01*
X141746335Y-103340000D01*
X141463665Y-103340000D01*
X141186426Y-103395147D01*
X140925273Y-103503320D01*
X140690241Y-103660363D01*
X140490363Y-103860241D01*
X140335000Y-104092759D01*
X140179637Y-103860241D01*
X139979759Y-103660363D01*
X139744727Y-103503320D01*
X139483574Y-103395147D01*
X139206335Y-103340000D01*
X138923665Y-103340000D01*
X138646426Y-103395147D01*
X138385273Y-103503320D01*
X138150241Y-103660363D01*
X137950363Y-103860241D01*
X137795000Y-104092759D01*
X137639637Y-103860241D01*
X137439759Y-103660363D01*
X137204727Y-103503320D01*
X136943574Y-103395147D01*
X136666335Y-103340000D01*
X136383665Y-103340000D01*
X136106426Y-103395147D01*
X135845273Y-103503320D01*
X135610241Y-103660363D01*
X135410363Y-103860241D01*
X135255000Y-104092759D01*
X135099637Y-103860241D01*
X134899759Y-103660363D01*
X134664727Y-103503320D01*
X134403574Y-103395147D01*
X134126335Y-103340000D01*
X133843665Y-103340000D01*
X133566426Y-103395147D01*
X133305273Y-103503320D01*
X133070241Y-103660363D01*
X132870363Y-103860241D01*
X132853151Y-103886000D01*
X130600396Y-103886000D01*
X130454759Y-103740363D01*
X130219727Y-103583320D01*
X129958574Y-103475147D01*
X129681335Y-103420000D01*
X129398665Y-103420000D01*
X129121426Y-103475147D01*
X128860273Y-103583320D01*
X128625241Y-103740363D01*
X128425363Y-103940241D01*
X128268320Y-104175273D01*
X128160147Y-104436426D01*
X128105000Y-104713665D01*
X128105000Y-104996335D01*
X128160147Y-105273574D01*
X128268320Y-105534727D01*
X128425363Y-105769759D01*
X128625241Y-105969637D01*
X128860273Y-106126680D01*
X129121426Y-106234853D01*
X129398665Y-106290000D01*
X129681335Y-106290000D01*
X129958574Y-106234853D01*
X130219727Y-106126680D01*
X130454759Y-105969637D01*
X130654637Y-105769759D01*
X130725303Y-105664000D01*
X132853151Y-105664000D01*
X132870363Y-105689759D01*
X133070241Y-105889637D01*
X133305273Y-106046680D01*
X133566426Y-106154853D01*
X133843665Y-106210000D01*
X134126335Y-106210000D01*
X134156720Y-106203956D01*
X134595771Y-106643007D01*
X134623859Y-106677175D01*
X134690679Y-106731921D01*
X134758708Y-106787751D01*
X134759031Y-106787924D01*
X134759317Y-106788158D01*
X134836133Y-106829136D01*
X134913147Y-106870302D01*
X134913502Y-106870410D01*
X134913825Y-106870582D01*
X134996645Y-106895631D01*
X135080724Y-106921136D01*
X135081094Y-106921172D01*
X135081443Y-106921278D01*
X135168093Y-106929741D01*
X135254999Y-106938300D01*
X135299026Y-106933964D01*
X154240653Y-106918465D01*
X154278473Y-106922659D01*
X154327998Y-106918394D01*
X154333819Y-106918389D01*
X154371467Y-106914650D01*
X154452944Y-106907633D01*
X154458580Y-106905999D01*
X154464416Y-106905419D01*
X154542613Y-106881629D01*
X154621132Y-106858858D01*
X154626339Y-106856156D01*
X154631951Y-106854449D01*
X154704033Y-106815845D01*
X154776572Y-106778207D01*
X154781150Y-106774543D01*
X154786324Y-106771772D01*
X154849464Y-106719867D01*
X154879034Y-106696201D01*
X154883208Y-106692128D01*
X154921601Y-106660567D01*
X154945713Y-106631138D01*
X155386851Y-106200688D01*
X155433665Y-106210000D01*
X155716335Y-106210000D01*
X155993574Y-106154853D01*
X156088551Y-106115512D01*
X173184783Y-106115512D01*
X173226213Y-106395130D01*
X173321397Y-106661292D01*
X173388329Y-106786514D01*
X173632298Y-106858097D01*
X174445395Y-106045000D01*
X174804605Y-106045000D01*
X175617702Y-106858097D01*
X175861671Y-106786514D01*
X175982571Y-106531004D01*
X176051300Y-106256816D01*
X176065217Y-105974488D01*
X176023787Y-105694870D01*
X175928603Y-105428708D01*
X175861671Y-105303486D01*
X175617702Y-105231903D01*
X174804605Y-106045000D01*
X174445395Y-106045000D01*
X173632298Y-105231903D01*
X173388329Y-105303486D01*
X173267429Y-105558996D01*
X173198700Y-105833184D01*
X173184783Y-106115512D01*
X156088551Y-106115512D01*
X156254727Y-106046680D01*
X156489759Y-105889637D01*
X156689637Y-105689759D01*
X156846680Y-105454727D01*
X156954853Y-105193574D01*
X156982954Y-105052298D01*
X173811903Y-105052298D01*
X174625000Y-105865395D01*
X175438097Y-105052298D01*
X175366514Y-104808329D01*
X175111004Y-104687429D01*
X174836816Y-104618700D01*
X174554488Y-104604783D01*
X174274870Y-104646213D01*
X174008708Y-104741397D01*
X173883486Y-104808329D01*
X173811903Y-105052298D01*
X156982954Y-105052298D01*
X157010000Y-104916335D01*
X157010000Y-104633665D01*
X157003956Y-104603279D01*
X159753236Y-101854000D01*
X169683151Y-101854000D01*
X169700363Y-101879759D01*
X169900241Y-102079637D01*
X170135273Y-102236680D01*
X170396426Y-102344853D01*
X170673665Y-102400000D01*
X170956335Y-102400000D01*
X171233574Y-102344853D01*
X171494727Y-102236680D01*
X171729759Y-102079637D01*
X171929637Y-101879759D01*
X171931060Y-101877630D01*
X173477178Y-101910094D01*
X173510363Y-101959759D01*
X173710241Y-102159637D01*
X173945273Y-102316680D01*
X174206426Y-102424853D01*
X174483665Y-102480000D01*
X174766335Y-102480000D01*
X174903844Y-102452647D01*
X178220868Y-105287126D01*
X178132217Y-105314018D01*
X177995428Y-105387134D01*
X177971637Y-105406659D01*
X177905569Y-105460879D01*
X177905567Y-105460881D01*
X177875531Y-105485531D01*
X177850881Y-105515567D01*
X173663850Y-109702600D01*
X171725325Y-109702600D01*
X171729759Y-109699637D01*
X171929637Y-109499759D01*
X172086680Y-109264727D01*
X172194853Y-109003574D01*
X172250000Y-108726335D01*
X172250000Y-108443665D01*
X172194853Y-108166426D01*
X172086680Y-107905273D01*
X171929637Y-107670241D01*
X171729759Y-107470363D01*
X171494727Y-107313320D01*
X171233574Y-107205147D01*
X170956335Y-107150000D01*
X170673665Y-107150000D01*
X170396426Y-107205147D01*
X170135273Y-107313320D01*
X169900241Y-107470363D01*
X169700363Y-107670241D01*
X169543320Y-107905273D01*
X169435147Y-108166426D01*
X169380000Y-108443665D01*
X169380000Y-108726335D01*
X169435147Y-109003574D01*
X169543320Y-109264727D01*
X169700363Y-109499759D01*
X169900241Y-109699637D01*
X169904675Y-109702600D01*
X157518662Y-109702600D01*
X157479999Y-109698792D01*
X157441336Y-109702600D01*
X157441327Y-109702600D01*
X157325643Y-109713994D01*
X157177217Y-109759018D01*
X157040428Y-109832134D01*
X157040426Y-109832135D01*
X157040427Y-109832135D01*
X157007597Y-109859078D01*
X157015217Y-109704488D01*
X156973787Y-109424870D01*
X156878603Y-109158708D01*
X156811671Y-109033486D01*
X156567702Y-108961903D01*
X155754605Y-109775000D01*
X155768748Y-109789143D01*
X155589143Y-109968748D01*
X155575000Y-109954605D01*
X154761903Y-110767702D01*
X154833486Y-111011671D01*
X155088996Y-111132571D01*
X155363184Y-111201300D01*
X155641432Y-111215016D01*
X148289088Y-118567362D01*
X148101260Y-118530000D01*
X147808740Y-118530000D01*
X147521842Y-118587068D01*
X147251589Y-118699010D01*
X147008368Y-118861525D01*
X146801525Y-119068368D01*
X146685000Y-119242760D01*
X146568475Y-119068368D01*
X146361632Y-118861525D01*
X146118411Y-118699010D01*
X145848158Y-118587068D01*
X145561260Y-118530000D01*
X145268740Y-118530000D01*
X144981842Y-118587068D01*
X144711589Y-118699010D01*
X144468368Y-118861525D01*
X144261525Y-119068368D01*
X144145000Y-119242760D01*
X144028475Y-119068368D01*
X143821632Y-118861525D01*
X143578411Y-118699010D01*
X143308158Y-118587068D01*
X143021260Y-118530000D01*
X142728740Y-118530000D01*
X142441842Y-118587068D01*
X142171589Y-118699010D01*
X141928368Y-118861525D01*
X141721525Y-119068368D01*
X141605000Y-119242760D01*
X141488475Y-119068368D01*
X141281632Y-118861525D01*
X141038411Y-118699010D01*
X140768158Y-118587068D01*
X140481260Y-118530000D01*
X140188740Y-118530000D01*
X139901842Y-118587068D01*
X139631589Y-118699010D01*
X139388368Y-118861525D01*
X139181525Y-119068368D01*
X139065000Y-119242760D01*
X138948475Y-119068368D01*
X138741632Y-118861525D01*
X138582400Y-118755130D01*
X138582400Y-115608662D01*
X138586208Y-115569999D01*
X138582400Y-115531336D01*
X138582400Y-115531327D01*
X138571006Y-115415643D01*
X138525982Y-115267217D01*
X138452866Y-115130428D01*
X138354469Y-115010531D01*
X138324433Y-114985881D01*
X137312400Y-113973850D01*
X137312400Y-113594735D01*
X137439759Y-113509637D01*
X137639637Y-113309759D01*
X137795000Y-113077241D01*
X137950363Y-113309759D01*
X138150241Y-113509637D01*
X138385273Y-113666680D01*
X138646426Y-113774853D01*
X138923665Y-113830000D01*
X139206335Y-113830000D01*
X139483574Y-113774853D01*
X139744727Y-113666680D01*
X139979759Y-113509637D01*
X140179637Y-113309759D01*
X140335000Y-113077241D01*
X140490363Y-113309759D01*
X140690241Y-113509637D01*
X140925273Y-113666680D01*
X141186426Y-113774853D01*
X141463665Y-113830000D01*
X141746335Y-113830000D01*
X142023574Y-113774853D01*
X142284727Y-113666680D01*
X142519759Y-113509637D01*
X142719637Y-113309759D01*
X142875000Y-113077241D01*
X143030363Y-113309759D01*
X143230241Y-113509637D01*
X143465273Y-113666680D01*
X143726426Y-113774853D01*
X144003665Y-113830000D01*
X144286335Y-113830000D01*
X144563574Y-113774853D01*
X144824727Y-113666680D01*
X145059759Y-113509637D01*
X145259637Y-113309759D01*
X145415000Y-113077241D01*
X145570363Y-113309759D01*
X145770241Y-113509637D01*
X146005273Y-113666680D01*
X146266426Y-113774853D01*
X146543665Y-113830000D01*
X146826335Y-113830000D01*
X147103574Y-113774853D01*
X147364727Y-113666680D01*
X147599759Y-113509637D01*
X147799637Y-113309759D01*
X147955000Y-113077241D01*
X148110363Y-113309759D01*
X148310241Y-113509637D01*
X148545273Y-113666680D01*
X148806426Y-113774853D01*
X149083665Y-113830000D01*
X149366335Y-113830000D01*
X149643574Y-113774853D01*
X149904727Y-113666680D01*
X150139759Y-113509637D01*
X150339637Y-113309759D01*
X150496680Y-113074727D01*
X150501067Y-113064135D01*
X150612615Y-113250131D01*
X150801586Y-113458519D01*
X151027580Y-113626037D01*
X151281913Y-113746246D01*
X151415961Y-113786904D01*
X151638000Y-113664915D01*
X151638000Y-112522000D01*
X151892000Y-112522000D01*
X151892000Y-113664915D01*
X152114039Y-113786904D01*
X152248087Y-113746246D01*
X152502420Y-113626037D01*
X152728414Y-113458519D01*
X152917385Y-113250131D01*
X153062070Y-113008881D01*
X153156909Y-112744040D01*
X153035624Y-112522000D01*
X151892000Y-112522000D01*
X151638000Y-112522000D01*
X151618000Y-112522000D01*
X151618000Y-112268000D01*
X151638000Y-112268000D01*
X151638000Y-111125085D01*
X151892000Y-111125085D01*
X151892000Y-112268000D01*
X153035624Y-112268000D01*
X153156909Y-112045960D01*
X153062070Y-111781119D01*
X152917385Y-111539869D01*
X152728414Y-111331481D01*
X152502420Y-111163963D01*
X152248087Y-111043754D01*
X152114039Y-111003096D01*
X151892000Y-111125085D01*
X151638000Y-111125085D01*
X151415961Y-111003096D01*
X151281913Y-111043754D01*
X151027580Y-111163963D01*
X150801586Y-111331481D01*
X150612615Y-111539869D01*
X150501067Y-111725865D01*
X150496680Y-111715273D01*
X150339637Y-111480241D01*
X150139759Y-111280363D01*
X149904727Y-111123320D01*
X149643574Y-111015147D01*
X149366335Y-110960000D01*
X149083665Y-110960000D01*
X148806426Y-111015147D01*
X148545273Y-111123320D01*
X148310241Y-111280363D01*
X148110363Y-111480241D01*
X147955000Y-111712759D01*
X147799637Y-111480241D01*
X147599759Y-111280363D01*
X147364727Y-111123320D01*
X147103574Y-111015147D01*
X146826335Y-110960000D01*
X146543665Y-110960000D01*
X146266426Y-111015147D01*
X146005273Y-111123320D01*
X145770241Y-111280363D01*
X145570363Y-111480241D01*
X145415000Y-111712759D01*
X145259637Y-111480241D01*
X145059759Y-111280363D01*
X144824727Y-111123320D01*
X144563574Y-111015147D01*
X144286335Y-110960000D01*
X144003665Y-110960000D01*
X143726426Y-111015147D01*
X143465273Y-111123320D01*
X143230241Y-111280363D01*
X143030363Y-111480241D01*
X142875000Y-111712759D01*
X142719637Y-111480241D01*
X142519759Y-111280363D01*
X142284727Y-111123320D01*
X142023574Y-111015147D01*
X141746335Y-110960000D01*
X141463665Y-110960000D01*
X141186426Y-111015147D01*
X140925273Y-111123320D01*
X140690241Y-111280363D01*
X140490363Y-111480241D01*
X140335000Y-111712759D01*
X140179637Y-111480241D01*
X139979759Y-111280363D01*
X139744727Y-111123320D01*
X139483574Y-111015147D01*
X139206335Y-110960000D01*
X138923665Y-110960000D01*
X138646426Y-111015147D01*
X138385273Y-111123320D01*
X138150241Y-111280363D01*
X137950363Y-111480241D01*
X137795000Y-111712759D01*
X137639637Y-111480241D01*
X137439759Y-111280363D01*
X137204727Y-111123320D01*
X136943574Y-111015147D01*
X136666335Y-110960000D01*
X136383665Y-110960000D01*
X136106426Y-111015147D01*
X135845273Y-111123320D01*
X135610241Y-111280363D01*
X135411643Y-111478961D01*
X135410812Y-111470518D01*
X135374502Y-111350820D01*
X135315537Y-111240506D01*
X135236185Y-111143815D01*
X135139494Y-111064463D01*
X135029180Y-111005498D01*
X134909482Y-110969188D01*
X134785000Y-110956928D01*
X133185000Y-110956928D01*
X133060518Y-110969188D01*
X132940820Y-111005498D01*
X132830506Y-111064463D01*
X132733815Y-111143815D01*
X132654463Y-111240506D01*
X132595498Y-111350820D01*
X132559188Y-111470518D01*
X132546928Y-111595000D01*
X132546928Y-113195000D01*
X132559188Y-113319482D01*
X132595498Y-113439180D01*
X132654463Y-113549494D01*
X132733815Y-113646185D01*
X132830506Y-113725537D01*
X132940820Y-113784502D01*
X133060518Y-113820812D01*
X133185000Y-113833072D01*
X134785000Y-113833072D01*
X134909482Y-113820812D01*
X135029180Y-113784502D01*
X135139494Y-113725537D01*
X135236185Y-113646185D01*
X135315537Y-113549494D01*
X135374502Y-113439180D01*
X135410812Y-113319482D01*
X135411643Y-113311039D01*
X135610241Y-113509637D01*
X135737600Y-113594736D01*
X135737600Y-114261337D01*
X135733792Y-114300000D01*
X135737600Y-114338663D01*
X135737600Y-114338672D01*
X135748994Y-114454356D01*
X135794018Y-114602782D01*
X135867134Y-114739571D01*
X135965531Y-114859469D01*
X135995577Y-114884127D01*
X137007601Y-115896153D01*
X137007600Y-118755129D01*
X136848368Y-118861525D01*
X136641525Y-119068368D01*
X136525000Y-119242760D01*
X136408475Y-119068368D01*
X136201632Y-118861525D01*
X135958411Y-118699010D01*
X135688158Y-118587068D01*
X135401260Y-118530000D01*
X135108740Y-118530000D01*
X134821842Y-118587068D01*
X134551589Y-118699010D01*
X134308368Y-118861525D01*
X134101525Y-119068368D01*
X133985000Y-119242760D01*
X133868475Y-119068368D01*
X133661632Y-118861525D01*
X133418411Y-118699010D01*
X133148158Y-118587068D01*
X132861260Y-118530000D01*
X132568740Y-118530000D01*
X132281842Y-118587068D01*
X132011589Y-118699010D01*
X131768368Y-118861525D01*
X131561525Y-119068368D01*
X131445000Y-119242760D01*
X131328475Y-119068368D01*
X131121632Y-118861525D01*
X130878411Y-118699010D01*
X130608158Y-118587068D01*
X130321260Y-118530000D01*
X130028740Y-118530000D01*
X129741842Y-118587068D01*
X129471589Y-118699010D01*
X129228368Y-118861525D01*
X129021525Y-119068368D01*
X128905000Y-119242760D01*
X128788475Y-119068368D01*
X128581632Y-118861525D01*
X128338411Y-118699010D01*
X128068158Y-118587068D01*
X127781260Y-118530000D01*
X127488740Y-118530000D01*
X127201842Y-118587068D01*
X126931589Y-118699010D01*
X126688368Y-118861525D01*
X126481525Y-119068368D01*
X126365000Y-119242760D01*
X126248475Y-119068368D01*
X126041632Y-118861525D01*
X125798411Y-118699010D01*
X125528158Y-118587068D01*
X125241260Y-118530000D01*
X124948740Y-118530000D01*
X124661842Y-118587068D01*
X124391589Y-118699010D01*
X124148368Y-118861525D01*
X123941525Y-119068368D01*
X123825000Y-119242760D01*
X123708475Y-119068368D01*
X123501632Y-118861525D01*
X123258411Y-118699010D01*
X122988158Y-118587068D01*
X122701260Y-118530000D01*
X122408740Y-118530000D01*
X122121842Y-118587068D01*
X121851589Y-118699010D01*
X121608368Y-118861525D01*
X121401525Y-119068368D01*
X121285000Y-119242760D01*
X121168475Y-119068368D01*
X120961632Y-118861525D01*
X120718411Y-118699010D01*
X120448158Y-118587068D01*
X120161260Y-118530000D01*
X119868740Y-118530000D01*
X119581842Y-118587068D01*
X119311589Y-118699010D01*
X119068368Y-118861525D01*
X118861525Y-119068368D01*
X118745000Y-119242760D01*
X118628475Y-119068368D01*
X118421632Y-118861525D01*
X118178411Y-118699010D01*
X117908158Y-118587068D01*
X117621260Y-118530000D01*
X117328740Y-118530000D01*
X117041842Y-118587068D01*
X116771589Y-118699010D01*
X116528368Y-118861525D01*
X116396513Y-118993380D01*
X116374502Y-118920820D01*
X116315537Y-118810506D01*
X116236185Y-118713815D01*
X116139494Y-118634463D01*
X116029180Y-118575498D01*
X115909482Y-118539188D01*
X115785000Y-118526928D01*
X114325000Y-118526928D01*
X114325000Y-110847702D01*
X128726903Y-110847702D01*
X128798486Y-111091671D01*
X129053996Y-111212571D01*
X129328184Y-111281300D01*
X129610512Y-111295217D01*
X129890130Y-111253787D01*
X130156292Y-111158603D01*
X130281514Y-111091671D01*
X130353097Y-110847702D01*
X129540000Y-110034605D01*
X128726903Y-110847702D01*
X114325000Y-110847702D01*
X114325000Y-109925512D01*
X128099783Y-109925512D01*
X128141213Y-110205130D01*
X128236397Y-110471292D01*
X128303329Y-110596514D01*
X128547298Y-110668097D01*
X129360395Y-109855000D01*
X129719605Y-109855000D01*
X130532702Y-110668097D01*
X130776671Y-110596514D01*
X130897571Y-110341004D01*
X130966300Y-110066816D01*
X130977208Y-109845512D01*
X154134783Y-109845512D01*
X154176213Y-110125130D01*
X154271397Y-110391292D01*
X154338329Y-110516514D01*
X154582298Y-110588097D01*
X155395395Y-109775000D01*
X154582298Y-108961903D01*
X154338329Y-109033486D01*
X154217429Y-109288996D01*
X154148700Y-109563184D01*
X154134783Y-109845512D01*
X130977208Y-109845512D01*
X130980217Y-109784488D01*
X130938787Y-109504870D01*
X130843603Y-109238708D01*
X130776671Y-109113486D01*
X130532702Y-109041903D01*
X129719605Y-109855000D01*
X129360395Y-109855000D01*
X128547298Y-109041903D01*
X128303329Y-109113486D01*
X128182429Y-109368996D01*
X128113700Y-109643184D01*
X128099783Y-109925512D01*
X114325000Y-109925512D01*
X114325000Y-108862298D01*
X128726903Y-108862298D01*
X129540000Y-109675395D01*
X130353097Y-108862298D01*
X130329625Y-108782298D01*
X154761903Y-108782298D01*
X155575000Y-109595395D01*
X156388097Y-108782298D01*
X156316514Y-108538329D01*
X156061004Y-108417429D01*
X155786816Y-108348700D01*
X155504488Y-108334783D01*
X155224870Y-108376213D01*
X154958708Y-108471397D01*
X154833486Y-108538329D01*
X154761903Y-108782298D01*
X130329625Y-108782298D01*
X130281514Y-108618329D01*
X130026004Y-108497429D01*
X129751816Y-108428700D01*
X129469488Y-108414783D01*
X129189870Y-108456213D01*
X128923708Y-108551397D01*
X128798486Y-108618329D01*
X128726903Y-108862298D01*
X114325000Y-108862298D01*
X114325000Y-107037702D01*
X173811903Y-107037702D01*
X173883486Y-107281671D01*
X174138996Y-107402571D01*
X174413184Y-107471300D01*
X174695512Y-107485217D01*
X174975130Y-107443787D01*
X175241292Y-107348603D01*
X175366514Y-107281671D01*
X175438097Y-107037702D01*
X174625000Y-106224605D01*
X173811903Y-107037702D01*
X114325000Y-107037702D01*
X114325000Y-93203665D01*
X179540000Y-93203665D01*
X179540000Y-93486335D01*
X179595147Y-93763574D01*
X179703320Y-94024727D01*
X179860363Y-94259759D01*
X180060241Y-94459637D01*
X180295273Y-94616680D01*
X180556426Y-94724853D01*
X180833665Y-94780000D01*
X181116335Y-94780000D01*
X181393574Y-94724853D01*
X181654727Y-94616680D01*
X181889759Y-94459637D01*
X182089637Y-94259759D01*
X182246680Y-94024727D01*
X182354853Y-93763574D01*
X182410000Y-93486335D01*
X182410000Y-93203665D01*
X182354853Y-92926426D01*
X182246680Y-92665273D01*
X182089637Y-92430241D01*
X181889759Y-92230363D01*
X181654727Y-92073320D01*
X181393574Y-91965147D01*
X181116335Y-91910000D01*
X180833665Y-91910000D01*
X180556426Y-91965147D01*
X180295273Y-92073320D01*
X180060241Y-92230363D01*
X179860363Y-92430241D01*
X179703320Y-92665273D01*
X179595147Y-92926426D01*
X179540000Y-93203665D01*
X114325000Y-93203665D01*
X114325000Y-91567000D01*
X212700001Y-91567000D01*
X212700000Y-119205345D01*
G04 #@! TA.AperFunction,Conductor*
D23*
G36*
X212700000Y-119205345D02*
G01*
X212608475Y-119068368D01*
X212401632Y-118861525D01*
X212158411Y-118699010D01*
X211888158Y-118587068D01*
X211601260Y-118530000D01*
X211308740Y-118530000D01*
X211021842Y-118587068D01*
X210751589Y-118699010D01*
X210508368Y-118861525D01*
X210301525Y-119068368D01*
X210185000Y-119242760D01*
X210068475Y-119068368D01*
X209861632Y-118861525D01*
X209618411Y-118699010D01*
X209348158Y-118587068D01*
X209061260Y-118530000D01*
X208768740Y-118530000D01*
X208481842Y-118587068D01*
X208211589Y-118699010D01*
X207968368Y-118861525D01*
X207761525Y-119068368D01*
X207645000Y-119242760D01*
X207528475Y-119068368D01*
X207321632Y-118861525D01*
X207078411Y-118699010D01*
X206808158Y-118587068D01*
X206521260Y-118530000D01*
X206228740Y-118530000D01*
X206040913Y-118567361D01*
X203149128Y-115675578D01*
X203124469Y-115645531D01*
X203004572Y-115547134D01*
X202867783Y-115474018D01*
X202719357Y-115428994D01*
X202603673Y-115417600D01*
X202603663Y-115417600D01*
X202565000Y-115413792D01*
X202526337Y-115417600D01*
X176221152Y-115417600D01*
X174802638Y-113999088D01*
X174840000Y-113811260D01*
X174840000Y-113518740D01*
X174782932Y-113231842D01*
X174670990Y-112961589D01*
X174508475Y-112718368D01*
X174378907Y-112588800D01*
X175267880Y-112588800D01*
X175311715Y-112592541D01*
X175383634Y-112584510D01*
X175455757Y-112577406D01*
X175460717Y-112575901D01*
X175465861Y-112575327D01*
X175534840Y-112553417D01*
X175604183Y-112532382D01*
X175608753Y-112529939D01*
X175613687Y-112528372D01*
X175677063Y-112493426D01*
X175740972Y-112459266D01*
X175744979Y-112455977D01*
X175749512Y-112453478D01*
X175804855Y-112406839D01*
X175860869Y-112360869D01*
X175888788Y-112326849D01*
X178767182Y-109372400D01*
X179717783Y-109372400D01*
X179680533Y-109462328D01*
X179628800Y-109722411D01*
X179628800Y-109987589D01*
X179680533Y-110247672D01*
X179782013Y-110492665D01*
X179929338Y-110713153D01*
X180116847Y-110900662D01*
X180337335Y-111047987D01*
X180582328Y-111149467D01*
X180842411Y-111201200D01*
X181107589Y-111201200D01*
X181367672Y-111149467D01*
X181612665Y-111047987D01*
X181833153Y-110900662D01*
X182020662Y-110713153D01*
X182167987Y-110492665D01*
X182245000Y-110306740D01*
X182322013Y-110492665D01*
X182469338Y-110713153D01*
X182656847Y-110900662D01*
X182877335Y-111047987D01*
X183063260Y-111125000D01*
X182877335Y-111202013D01*
X182656847Y-111349338D01*
X182469338Y-111536847D01*
X182322013Y-111757335D01*
X182220533Y-112002328D01*
X182168800Y-112262411D01*
X182168800Y-112527589D01*
X182220533Y-112787672D01*
X182322013Y-113032665D01*
X182469338Y-113253153D01*
X182656847Y-113440662D01*
X182877335Y-113587987D01*
X183122328Y-113689467D01*
X183382411Y-113741200D01*
X183647589Y-113741200D01*
X183907672Y-113689467D01*
X184152665Y-113587987D01*
X184373153Y-113440662D01*
X184489542Y-113324273D01*
X185305332Y-113324273D01*
X185366152Y-113559183D01*
X185606509Y-113671202D01*
X185864102Y-113734176D01*
X186129030Y-113745687D01*
X186391113Y-113705291D01*
X186640280Y-113614542D01*
X186743848Y-113559183D01*
X186804668Y-113324273D01*
X186055000Y-112574605D01*
X185305332Y-113324273D01*
X184489542Y-113324273D01*
X184560662Y-113253153D01*
X184707987Y-113032665D01*
X184785969Y-112844400D01*
X184835458Y-112980280D01*
X184890817Y-113083848D01*
X185125727Y-113144668D01*
X185875395Y-112395000D01*
X185125727Y-111645332D01*
X184890817Y-111706152D01*
X184782794Y-111937934D01*
X184707987Y-111757335D01*
X184560662Y-111536847D01*
X184373153Y-111349338D01*
X184152665Y-111202013D01*
X183966740Y-111125000D01*
X184152665Y-111047987D01*
X184373153Y-110900662D01*
X184560662Y-110713153D01*
X184707987Y-110492665D01*
X184785000Y-110306740D01*
X184862013Y-110492665D01*
X185009338Y-110713153D01*
X185196847Y-110900662D01*
X185417335Y-111047987D01*
X185605600Y-111125969D01*
X185469720Y-111175458D01*
X185366152Y-111230817D01*
X185305332Y-111465727D01*
X186055000Y-112215395D01*
X186804668Y-111465727D01*
X186743848Y-111230817D01*
X186512066Y-111122794D01*
X186692665Y-111047987D01*
X186913153Y-110900662D01*
X187100662Y-110713153D01*
X187247987Y-110492665D01*
X187325000Y-110306740D01*
X187402013Y-110492665D01*
X187549338Y-110713153D01*
X187736847Y-110900662D01*
X187957335Y-111047987D01*
X188143260Y-111125000D01*
X187957335Y-111202013D01*
X187736847Y-111349338D01*
X187549338Y-111536847D01*
X187402013Y-111757335D01*
X187324031Y-111945600D01*
X187274542Y-111809720D01*
X187219183Y-111706152D01*
X186984273Y-111645332D01*
X186234605Y-112395000D01*
X186984273Y-113144668D01*
X187219183Y-113083848D01*
X187327206Y-112852066D01*
X187402013Y-113032665D01*
X187549338Y-113253153D01*
X187736847Y-113440662D01*
X187957335Y-113587987D01*
X188202328Y-113689467D01*
X188462411Y-113741200D01*
X188727589Y-113741200D01*
X188987672Y-113689467D01*
X189232665Y-113587987D01*
X189453153Y-113440662D01*
X189640662Y-113253153D01*
X189787987Y-113032665D01*
X189865000Y-112846740D01*
X189942013Y-113032665D01*
X190089338Y-113253153D01*
X190276847Y-113440662D01*
X190497335Y-113587987D01*
X190742328Y-113689467D01*
X191002411Y-113741200D01*
X191267589Y-113741200D01*
X191527672Y-113689467D01*
X191772665Y-113587987D01*
X191993153Y-113440662D01*
X192180662Y-113253153D01*
X192327987Y-113032665D01*
X192429467Y-112787672D01*
X192481200Y-112527589D01*
X192481200Y-112262411D01*
X192429467Y-112002328D01*
X192327987Y-111757335D01*
X192180662Y-111536847D01*
X191993153Y-111349338D01*
X191772665Y-111202013D01*
X191586740Y-111125000D01*
X191772665Y-111047987D01*
X191993153Y-110900662D01*
X192180662Y-110713153D01*
X192327987Y-110492665D01*
X192405000Y-110306740D01*
X192482013Y-110492665D01*
X192629338Y-110713153D01*
X192816847Y-110900662D01*
X193037335Y-111047987D01*
X193282328Y-111149467D01*
X193542411Y-111201200D01*
X193807589Y-111201200D01*
X194067672Y-111149467D01*
X194312665Y-111047987D01*
X194533153Y-110900662D01*
X194720662Y-110713153D01*
X194867987Y-110492665D01*
X194969467Y-110247672D01*
X194988181Y-110153589D01*
X199910000Y-110153589D01*
X199910000Y-110426411D01*
X199963225Y-110693989D01*
X200067629Y-110946043D01*
X200219201Y-111172886D01*
X200412114Y-111365799D01*
X200638957Y-111517371D01*
X200891011Y-111621775D01*
X201158589Y-111675000D01*
X201431411Y-111675000D01*
X201698989Y-111621775D01*
X201951043Y-111517371D01*
X202177886Y-111365799D01*
X202370799Y-111172886D01*
X202434601Y-111077400D01*
X204430077Y-111077400D01*
X204468320Y-111169727D01*
X204625363Y-111404759D01*
X204825241Y-111604637D01*
X205060273Y-111761680D01*
X205321426Y-111869853D01*
X205598665Y-111925000D01*
X205881335Y-111925000D01*
X206158574Y-111869853D01*
X206419727Y-111761680D01*
X206654759Y-111604637D01*
X206776694Y-111482702D01*
X209926903Y-111482702D01*
X209998486Y-111726671D01*
X210253996Y-111847571D01*
X210528184Y-111916300D01*
X210810512Y-111930217D01*
X211090130Y-111888787D01*
X211356292Y-111793603D01*
X211481514Y-111726671D01*
X211553097Y-111482702D01*
X210740000Y-110669605D01*
X209926903Y-111482702D01*
X206776694Y-111482702D01*
X206854637Y-111404759D01*
X207011680Y-111169727D01*
X207119853Y-110908574D01*
X207175000Y-110631335D01*
X207175000Y-110560512D01*
X209299783Y-110560512D01*
X209341213Y-110840130D01*
X209436397Y-111106292D01*
X209503329Y-111231514D01*
X209747298Y-111303097D01*
X210560395Y-110490000D01*
X210919605Y-110490000D01*
X211732702Y-111303097D01*
X211976671Y-111231514D01*
X212097571Y-110976004D01*
X212166300Y-110701816D01*
X212180217Y-110419488D01*
X212138787Y-110139870D01*
X212043603Y-109873708D01*
X211976671Y-109748486D01*
X211732702Y-109676903D01*
X210919605Y-110490000D01*
X210560395Y-110490000D01*
X209747298Y-109676903D01*
X209503329Y-109748486D01*
X209382429Y-110003996D01*
X209313700Y-110278184D01*
X209299783Y-110560512D01*
X207175000Y-110560512D01*
X207175000Y-110348665D01*
X207119853Y-110071426D01*
X207011680Y-109810273D01*
X206854637Y-109575241D01*
X206776694Y-109497298D01*
X209926903Y-109497298D01*
X210740000Y-110310395D01*
X211553097Y-109497298D01*
X211481514Y-109253329D01*
X211226004Y-109132429D01*
X210951816Y-109063700D01*
X210669488Y-109049783D01*
X210389870Y-109091213D01*
X210123708Y-109186397D01*
X209998486Y-109253329D01*
X209926903Y-109497298D01*
X206776694Y-109497298D01*
X206654759Y-109375363D01*
X206419727Y-109218320D01*
X206158574Y-109110147D01*
X205881335Y-109055000D01*
X205598665Y-109055000D01*
X205321426Y-109110147D01*
X205060273Y-109218320D01*
X204825241Y-109375363D01*
X204698004Y-109502600D01*
X202434601Y-109502600D01*
X202370799Y-109407114D01*
X202177886Y-109214201D01*
X201951043Y-109062629D01*
X201698989Y-108958225D01*
X201431411Y-108905000D01*
X201158589Y-108905000D01*
X200891011Y-108958225D01*
X200638957Y-109062629D01*
X200412114Y-109214201D01*
X200219201Y-109407114D01*
X200067629Y-109633957D01*
X199963225Y-109886011D01*
X199910000Y-110153589D01*
X194988181Y-110153589D01*
X195021200Y-109987589D01*
X195021200Y-109722411D01*
X194969467Y-109462328D01*
X194867987Y-109217335D01*
X194720662Y-108996847D01*
X194533153Y-108809338D01*
X194312665Y-108662013D01*
X194124400Y-108584031D01*
X194260280Y-108534542D01*
X194363848Y-108479183D01*
X194424668Y-108244273D01*
X193675000Y-107494605D01*
X192925332Y-108244273D01*
X192986152Y-108479183D01*
X193217934Y-108587206D01*
X193037335Y-108662013D01*
X192816847Y-108809338D01*
X192629338Y-108996847D01*
X192482013Y-109217335D01*
X192405000Y-109403260D01*
X192327987Y-109217335D01*
X192180662Y-108996847D01*
X191993153Y-108809338D01*
X191772665Y-108662013D01*
X191586740Y-108585000D01*
X191772665Y-108507987D01*
X191993153Y-108360662D01*
X192180662Y-108173153D01*
X192327987Y-107952665D01*
X192405969Y-107764400D01*
X192455458Y-107900280D01*
X192510817Y-108003848D01*
X192745727Y-108064668D01*
X193495395Y-107315000D01*
X193854605Y-107315000D01*
X194604273Y-108064668D01*
X194839183Y-108003848D01*
X194951202Y-107763491D01*
X195014176Y-107505898D01*
X195025687Y-107240970D01*
X194985291Y-106978887D01*
X194894542Y-106729720D01*
X194839183Y-106626152D01*
X194604273Y-106565332D01*
X193854605Y-107315000D01*
X193495395Y-107315000D01*
X192745727Y-106565332D01*
X192510817Y-106626152D01*
X192402794Y-106857934D01*
X192327987Y-106677335D01*
X192180662Y-106456847D01*
X191993153Y-106269338D01*
X191772665Y-106122013D01*
X191586740Y-106045000D01*
X191772665Y-105967987D01*
X191993153Y-105820662D01*
X192180662Y-105633153D01*
X192327987Y-105412665D01*
X192405000Y-105226740D01*
X192482013Y-105412665D01*
X192629338Y-105633153D01*
X192816847Y-105820662D01*
X193037335Y-105967987D01*
X193225600Y-106045969D01*
X193089720Y-106095458D01*
X192986152Y-106150817D01*
X192925332Y-106385727D01*
X193675000Y-107135395D01*
X194424668Y-106385727D01*
X194363848Y-106150817D01*
X194132066Y-106042794D01*
X194312665Y-105967987D01*
X194533153Y-105820662D01*
X194720662Y-105633153D01*
X194867987Y-105412665D01*
X194925594Y-105273589D01*
X199910000Y-105273589D01*
X199910000Y-105546411D01*
X199963225Y-105813989D01*
X200067629Y-106066043D01*
X200219201Y-106292886D01*
X200412114Y-106485799D01*
X200638957Y-106637371D01*
X200891011Y-106741775D01*
X201158589Y-106795000D01*
X201431411Y-106795000D01*
X201698989Y-106741775D01*
X201951043Y-106637371D01*
X202177886Y-106485799D01*
X202370799Y-106292886D01*
X202434601Y-106197400D01*
X204540265Y-106197400D01*
X204625363Y-106324759D01*
X204825241Y-106524637D01*
X205060273Y-106681680D01*
X205321426Y-106789853D01*
X205598665Y-106845000D01*
X205881335Y-106845000D01*
X206158574Y-106789853D01*
X206419727Y-106681680D01*
X206654759Y-106524637D01*
X206776694Y-106402702D01*
X209926903Y-106402702D01*
X209998486Y-106646671D01*
X210253996Y-106767571D01*
X210528184Y-106836300D01*
X210810512Y-106850217D01*
X211090130Y-106808787D01*
X211356292Y-106713603D01*
X211481514Y-106646671D01*
X211553097Y-106402702D01*
X210740000Y-105589605D01*
X209926903Y-106402702D01*
X206776694Y-106402702D01*
X206854637Y-106324759D01*
X207011680Y-106089727D01*
X207119853Y-105828574D01*
X207175000Y-105551335D01*
X207175000Y-105480512D01*
X209299783Y-105480512D01*
X209341213Y-105760130D01*
X209436397Y-106026292D01*
X209503329Y-106151514D01*
X209747298Y-106223097D01*
X210560395Y-105410000D01*
X210919605Y-105410000D01*
X211732702Y-106223097D01*
X211976671Y-106151514D01*
X212097571Y-105896004D01*
X212166300Y-105621816D01*
X212180217Y-105339488D01*
X212138787Y-105059870D01*
X212043603Y-104793708D01*
X211976671Y-104668486D01*
X211732702Y-104596903D01*
X210919605Y-105410000D01*
X210560395Y-105410000D01*
X209747298Y-104596903D01*
X209503329Y-104668486D01*
X209382429Y-104923996D01*
X209313700Y-105198184D01*
X209299783Y-105480512D01*
X207175000Y-105480512D01*
X207175000Y-105268665D01*
X207119853Y-104991426D01*
X207011680Y-104730273D01*
X206854637Y-104495241D01*
X206776694Y-104417298D01*
X209926903Y-104417298D01*
X210740000Y-105230395D01*
X211553097Y-104417298D01*
X211481514Y-104173329D01*
X211226004Y-104052429D01*
X210951816Y-103983700D01*
X210669488Y-103969783D01*
X210389870Y-104011213D01*
X210123708Y-104106397D01*
X209998486Y-104173329D01*
X209926903Y-104417298D01*
X206776694Y-104417298D01*
X206654759Y-104295363D01*
X206419727Y-104138320D01*
X206158574Y-104030147D01*
X205881335Y-103975000D01*
X205598665Y-103975000D01*
X205321426Y-104030147D01*
X205060273Y-104138320D01*
X204825241Y-104295363D01*
X204625363Y-104495241D01*
X204540265Y-104622600D01*
X202434601Y-104622600D01*
X202370799Y-104527114D01*
X202177886Y-104334201D01*
X201951043Y-104182629D01*
X201698989Y-104078225D01*
X201431411Y-104025000D01*
X201158589Y-104025000D01*
X200891011Y-104078225D01*
X200638957Y-104182629D01*
X200412114Y-104334201D01*
X200219201Y-104527114D01*
X200067629Y-104753957D01*
X199963225Y-105006011D01*
X199910000Y-105273589D01*
X194925594Y-105273589D01*
X194969467Y-105167672D01*
X195021200Y-104907589D01*
X195021200Y-104642411D01*
X194969467Y-104382328D01*
X194867987Y-104137335D01*
X194720662Y-103916847D01*
X194533153Y-103729338D01*
X194312665Y-103582013D01*
X194126740Y-103505000D01*
X194312665Y-103427987D01*
X194533153Y-103280662D01*
X194720662Y-103093153D01*
X194867987Y-102872665D01*
X194969467Y-102627672D01*
X195021200Y-102367589D01*
X195021200Y-102102411D01*
X194969467Y-101842328D01*
X194867987Y-101597335D01*
X194720662Y-101376847D01*
X194533153Y-101189338D01*
X194462400Y-101142062D01*
X194462400Y-94544735D01*
X194589759Y-94459637D01*
X194789637Y-94259759D01*
X194946680Y-94024727D01*
X195054853Y-93763574D01*
X195110000Y-93486335D01*
X195110000Y-93203665D01*
X195054853Y-92926426D01*
X194946680Y-92665273D01*
X194789637Y-92430241D01*
X194589759Y-92230363D01*
X194354727Y-92073320D01*
X194093574Y-91965147D01*
X193816335Y-91910000D01*
X193533665Y-91910000D01*
X193256426Y-91965147D01*
X192995273Y-92073320D01*
X192760241Y-92230363D01*
X192560363Y-92430241D01*
X192405000Y-92662759D01*
X192249637Y-92430241D01*
X192049759Y-92230363D01*
X191814727Y-92073320D01*
X191553574Y-91965147D01*
X191276335Y-91910000D01*
X190993665Y-91910000D01*
X190716426Y-91965147D01*
X190455273Y-92073320D01*
X190220241Y-92230363D01*
X190020363Y-92430241D01*
X189935265Y-92557600D01*
X189794735Y-92557600D01*
X189709637Y-92430241D01*
X189509759Y-92230363D01*
X189274727Y-92073320D01*
X189013574Y-91965147D01*
X188736335Y-91910000D01*
X188453665Y-91910000D01*
X188176426Y-91965147D01*
X187915273Y-92073320D01*
X187680241Y-92230363D01*
X187481643Y-92428961D01*
X187480812Y-92420518D01*
X187444502Y-92300820D01*
X187385537Y-92190506D01*
X187306185Y-92093815D01*
X187209494Y-92014463D01*
X187099180Y-91955498D01*
X186979482Y-91919188D01*
X186855000Y-91906928D01*
X185255000Y-91906928D01*
X185130518Y-91919188D01*
X185010820Y-91955498D01*
X184900506Y-92014463D01*
X184803815Y-92093815D01*
X184724463Y-92190506D01*
X184665498Y-92300820D01*
X184629188Y-92420518D01*
X184616928Y-92545000D01*
X184616928Y-94145000D01*
X184629188Y-94269482D01*
X184665498Y-94389180D01*
X184724463Y-94499494D01*
X184803815Y-94596185D01*
X184900506Y-94675537D01*
X185010820Y-94734502D01*
X185130518Y-94770812D01*
X185255000Y-94783072D01*
X185318737Y-94783072D01*
X185324018Y-94800482D01*
X185387592Y-94919418D01*
X185397135Y-94937272D01*
X185495532Y-95057169D01*
X185525573Y-95081823D01*
X186420301Y-95976552D01*
X186420300Y-98395089D01*
X186187589Y-98348800D01*
X185922411Y-98348800D01*
X185662328Y-98400533D01*
X185417335Y-98502013D01*
X185196847Y-98649338D01*
X185009338Y-98836847D01*
X184862013Y-99057335D01*
X184785000Y-99243260D01*
X184707987Y-99057335D01*
X184560662Y-98836847D01*
X184373153Y-98649338D01*
X184152665Y-98502013D01*
X183907672Y-98400533D01*
X183647589Y-98348800D01*
X183382411Y-98348800D01*
X183298952Y-98365401D01*
X182829127Y-97895577D01*
X182804469Y-97865531D01*
X182684572Y-97767134D01*
X182547783Y-97694018D01*
X182399357Y-97648994D01*
X182283673Y-97637600D01*
X182283663Y-97637600D01*
X182245000Y-97633792D01*
X182206337Y-97637600D01*
X155564870Y-97637600D01*
X155458475Y-97478368D01*
X155251632Y-97271525D01*
X155008411Y-97109010D01*
X154738158Y-96997068D01*
X154451260Y-96940000D01*
X154158740Y-96940000D01*
X153871842Y-96997068D01*
X153601589Y-97109010D01*
X153358368Y-97271525D01*
X153151525Y-97478368D01*
X153045130Y-97637600D01*
X153024870Y-97637600D01*
X152918475Y-97478368D01*
X152711632Y-97271525D01*
X152468411Y-97109010D01*
X152198158Y-96997068D01*
X151911260Y-96940000D01*
X151618740Y-96940000D01*
X151331842Y-96997068D01*
X151061589Y-97109010D01*
X150818368Y-97271525D01*
X150611525Y-97478368D01*
X150505130Y-97637600D01*
X150484870Y-97637600D01*
X150378475Y-97478368D01*
X150171632Y-97271525D01*
X149928411Y-97109010D01*
X149658158Y-96997068D01*
X149371260Y-96940000D01*
X149078740Y-96940000D01*
X148791842Y-96997068D01*
X148521589Y-97109010D01*
X148278368Y-97271525D01*
X148071525Y-97478368D01*
X147965130Y-97637600D01*
X147944870Y-97637600D01*
X147838475Y-97478368D01*
X147631632Y-97271525D01*
X147388411Y-97109010D01*
X147118158Y-96997068D01*
X146831260Y-96940000D01*
X146538740Y-96940000D01*
X146251842Y-96997068D01*
X145981589Y-97109010D01*
X145738368Y-97271525D01*
X145531525Y-97478368D01*
X145425130Y-97637600D01*
X145404870Y-97637600D01*
X145298475Y-97478368D01*
X145091632Y-97271525D01*
X144848411Y-97109010D01*
X144578158Y-96997068D01*
X144291260Y-96940000D01*
X143998740Y-96940000D01*
X143711842Y-96997068D01*
X143441589Y-97109010D01*
X143198368Y-97271525D01*
X142991525Y-97478368D01*
X142885130Y-97637600D01*
X142864870Y-97637600D01*
X142758475Y-97478368D01*
X142551632Y-97271525D01*
X142308411Y-97109010D01*
X142038158Y-96997068D01*
X141751260Y-96940000D01*
X141458740Y-96940000D01*
X141171842Y-96997068D01*
X140901589Y-97109010D01*
X140658368Y-97271525D01*
X140451525Y-97478368D01*
X140345130Y-97637600D01*
X140324870Y-97637600D01*
X140218475Y-97478368D01*
X140011632Y-97271525D01*
X139768411Y-97109010D01*
X139498158Y-96997068D01*
X139211260Y-96940000D01*
X138918740Y-96940000D01*
X138631842Y-96997068D01*
X138361589Y-97109010D01*
X138118368Y-97271525D01*
X137911525Y-97478368D01*
X137805130Y-97637600D01*
X137784870Y-97637600D01*
X137678475Y-97478368D01*
X137471632Y-97271525D01*
X137228411Y-97109010D01*
X136958158Y-96997068D01*
X136671260Y-96940000D01*
X136378740Y-96940000D01*
X136091842Y-96997068D01*
X135821589Y-97109010D01*
X135578368Y-97271525D01*
X135371525Y-97478368D01*
X135209010Y-97721589D01*
X135097068Y-97991842D01*
X135040000Y-98278740D01*
X135040000Y-98571260D01*
X135097068Y-98858158D01*
X135209010Y-99128411D01*
X135371525Y-99371632D01*
X135503380Y-99503487D01*
X135430820Y-99525498D01*
X135320506Y-99584463D01*
X135223815Y-99663815D01*
X135144463Y-99760506D01*
X135085498Y-99870820D01*
X135049188Y-99990518D01*
X135036928Y-100115000D01*
X135036928Y-101815000D01*
X135049188Y-101939482D01*
X135085498Y-102059180D01*
X135144463Y-102169494D01*
X135223815Y-102266185D01*
X135320506Y-102345537D01*
X135430820Y-102404502D01*
X135550518Y-102440812D01*
X135675000Y-102453072D01*
X137375000Y-102453072D01*
X137499482Y-102440812D01*
X137619180Y-102404502D01*
X137729494Y-102345537D01*
X137826185Y-102266185D01*
X137905537Y-102169494D01*
X137964502Y-102059180D01*
X137986513Y-101986620D01*
X138118368Y-102118475D01*
X138361589Y-102280990D01*
X138631842Y-102392932D01*
X138918740Y-102450000D01*
X139211260Y-102450000D01*
X139498158Y-102392932D01*
X139768411Y-102280990D01*
X140011632Y-102118475D01*
X140218475Y-101911632D01*
X140335000Y-101737240D01*
X140451525Y-101911632D01*
X140658368Y-102118475D01*
X140901589Y-102280990D01*
X141171842Y-102392932D01*
X141458740Y-102450000D01*
X141751260Y-102450000D01*
X142038158Y-102392932D01*
X142308411Y-102280990D01*
X142551632Y-102118475D01*
X142758475Y-101911632D01*
X142875000Y-101737240D01*
X142991525Y-101911632D01*
X143198368Y-102118475D01*
X143441589Y-102280990D01*
X143711842Y-102392932D01*
X143998740Y-102450000D01*
X144291260Y-102450000D01*
X144578158Y-102392932D01*
X144848411Y-102280990D01*
X145091632Y-102118475D01*
X145298475Y-101911632D01*
X145415000Y-101737240D01*
X145531525Y-101911632D01*
X145738368Y-102118475D01*
X145981589Y-102280990D01*
X146251842Y-102392932D01*
X146538740Y-102450000D01*
X146831260Y-102450000D01*
X147118158Y-102392932D01*
X147388411Y-102280990D01*
X147631632Y-102118475D01*
X147838475Y-101911632D01*
X147955000Y-101737240D01*
X148071525Y-101911632D01*
X148278368Y-102118475D01*
X148521589Y-102280990D01*
X148791842Y-102392932D01*
X149078740Y-102450000D01*
X149371260Y-102450000D01*
X149658158Y-102392932D01*
X149928411Y-102280990D01*
X150171632Y-102118475D01*
X150378475Y-101911632D01*
X150495000Y-101737240D01*
X150611525Y-101911632D01*
X150818368Y-102118475D01*
X151061589Y-102280990D01*
X151331842Y-102392932D01*
X151618740Y-102450000D01*
X151911260Y-102450000D01*
X152198158Y-102392932D01*
X152468411Y-102280990D01*
X152711632Y-102118475D01*
X152918475Y-101911632D01*
X153035000Y-101737240D01*
X153151525Y-101911632D01*
X153358368Y-102118475D01*
X153601589Y-102280990D01*
X153871842Y-102392932D01*
X154158740Y-102450000D01*
X154451260Y-102450000D01*
X154738158Y-102392932D01*
X155008411Y-102280990D01*
X155251632Y-102118475D01*
X155458475Y-101911632D01*
X155620990Y-101668411D01*
X155732932Y-101398158D01*
X155790000Y-101111260D01*
X155790000Y-100818740D01*
X155732932Y-100531842D01*
X155620990Y-100261589D01*
X155458475Y-100018368D01*
X155251632Y-99811525D01*
X155077240Y-99695000D01*
X155251632Y-99578475D01*
X155458475Y-99371632D01*
X155564870Y-99212400D01*
X181918850Y-99212400D01*
X182185401Y-99478952D01*
X182168800Y-99562411D01*
X182168800Y-99827589D01*
X182220533Y-100087672D01*
X182322013Y-100332665D01*
X182469338Y-100553153D01*
X182656847Y-100740662D01*
X182877335Y-100887987D01*
X183063260Y-100965000D01*
X182877335Y-101042013D01*
X182656847Y-101189338D01*
X182469338Y-101376847D01*
X182322013Y-101597335D01*
X182245000Y-101783260D01*
X182167987Y-101597335D01*
X182020662Y-101376847D01*
X181833153Y-101189338D01*
X181612665Y-101042013D01*
X181367672Y-100940533D01*
X181107589Y-100888800D01*
X180842411Y-100888800D01*
X180582328Y-100940533D01*
X180337335Y-101042013D01*
X180116847Y-101189338D01*
X179929338Y-101376847D01*
X179782013Y-101597335D01*
X179680533Y-101842328D01*
X179628800Y-102102411D01*
X179628800Y-102367589D01*
X179680533Y-102627672D01*
X179782013Y-102872665D01*
X179929338Y-103093153D01*
X180116847Y-103280662D01*
X180337335Y-103427987D01*
X180523260Y-103505000D01*
X180337335Y-103582013D01*
X180116847Y-103729338D01*
X179960185Y-103886000D01*
X179318099Y-103886000D01*
X176060000Y-101101875D01*
X176060000Y-100903665D01*
X176004853Y-100626426D01*
X175896680Y-100365273D01*
X175739637Y-100130241D01*
X175539759Y-99930363D01*
X175304727Y-99773320D01*
X175043574Y-99665147D01*
X174766335Y-99610000D01*
X174483665Y-99610000D01*
X174206426Y-99665147D01*
X173945273Y-99773320D01*
X173710241Y-99930363D01*
X173510363Y-100130241D01*
X173508940Y-100132370D01*
X171962822Y-100099906D01*
X171929637Y-100050241D01*
X171729759Y-99850363D01*
X171494727Y-99693320D01*
X171233574Y-99585147D01*
X170956335Y-99530000D01*
X170673665Y-99530000D01*
X170396426Y-99585147D01*
X170135273Y-99693320D01*
X169900241Y-99850363D01*
X169700363Y-100050241D01*
X169683151Y-100076000D01*
X159428660Y-100076000D01*
X159385000Y-100071700D01*
X159341340Y-100076000D01*
X159341333Y-100076000D01*
X159227325Y-100087229D01*
X159210725Y-100088864D01*
X159170276Y-100101134D01*
X159043149Y-100139697D01*
X158888709Y-100222247D01*
X158753341Y-100333341D01*
X158725506Y-100367258D01*
X155746721Y-103346044D01*
X155716335Y-103340000D01*
X155433665Y-103340000D01*
X155156426Y-103395147D01*
X154895273Y-103503320D01*
X154660241Y-103660363D01*
X154460363Y-103860241D01*
X154303320Y-104095273D01*
X154195147Y-104356426D01*
X154140000Y-104633665D01*
X154140000Y-104916335D01*
X154142798Y-104930403D01*
X153927257Y-105140722D01*
X153155240Y-105141354D01*
X153200000Y-104916335D01*
X153200000Y-104633665D01*
X153144853Y-104356426D01*
X153036680Y-104095273D01*
X152879637Y-103860241D01*
X152679759Y-103660363D01*
X152444727Y-103503320D01*
X152183574Y-103395147D01*
X151906335Y-103340000D01*
X151623665Y-103340000D01*
X151346426Y-103395147D01*
X151085273Y-103503320D01*
X150850241Y-103660363D01*
X150650363Y-103860241D01*
X150495000Y-104092759D01*
X150339637Y-103860241D01*
X150139759Y-103660363D01*
X149904727Y-103503320D01*
X149643574Y-103395147D01*
X149366335Y-103340000D01*
X149083665Y-103340000D01*
X148806426Y-103395147D01*
X148545273Y-103503320D01*
X148310241Y-103660363D01*
X148110363Y-103860241D01*
X147955000Y-104092759D01*
X147799637Y-103860241D01*
X147599759Y-103660363D01*
X147364727Y-103503320D01*
X147103574Y-103395147D01*
X146826335Y-103340000D01*
X146543665Y-103340000D01*
X146266426Y-103395147D01*
X146005273Y-103503320D01*
X145770241Y-103660363D01*
X145570363Y-103860241D01*
X145415000Y-104092759D01*
X145259637Y-103860241D01*
X145059759Y-103660363D01*
X144824727Y-103503320D01*
X144563574Y-103395147D01*
X144286335Y-103340000D01*
X144003665Y-103340000D01*
X143726426Y-103395147D01*
X143465273Y-103503320D01*
X143230241Y-103660363D01*
X143030363Y-103860241D01*
X142875000Y-104092759D01*
X142719637Y-103860241D01*
X142519759Y-103660363D01*
X142284727Y-103503320D01*
X142023574Y-103395147D01*
X141746335Y-103340000D01*
X141463665Y-103340000D01*
X141186426Y-103395147D01*
X140925273Y-103503320D01*
X140690241Y-103660363D01*
X140490363Y-103860241D01*
X140335000Y-104092759D01*
X140179637Y-103860241D01*
X139979759Y-103660363D01*
X139744727Y-103503320D01*
X139483574Y-103395147D01*
X139206335Y-103340000D01*
X138923665Y-103340000D01*
X138646426Y-103395147D01*
X138385273Y-103503320D01*
X138150241Y-103660363D01*
X137950363Y-103860241D01*
X137795000Y-104092759D01*
X137639637Y-103860241D01*
X137439759Y-103660363D01*
X137204727Y-103503320D01*
X136943574Y-103395147D01*
X136666335Y-103340000D01*
X136383665Y-103340000D01*
X136106426Y-103395147D01*
X135845273Y-103503320D01*
X135610241Y-103660363D01*
X135410363Y-103860241D01*
X135255000Y-104092759D01*
X135099637Y-103860241D01*
X134899759Y-103660363D01*
X134664727Y-103503320D01*
X134403574Y-103395147D01*
X134126335Y-103340000D01*
X133843665Y-103340000D01*
X133566426Y-103395147D01*
X133305273Y-103503320D01*
X133070241Y-103660363D01*
X132870363Y-103860241D01*
X132853151Y-103886000D01*
X130600396Y-103886000D01*
X130454759Y-103740363D01*
X130219727Y-103583320D01*
X129958574Y-103475147D01*
X129681335Y-103420000D01*
X129398665Y-103420000D01*
X129121426Y-103475147D01*
X128860273Y-103583320D01*
X128625241Y-103740363D01*
X128425363Y-103940241D01*
X128268320Y-104175273D01*
X128160147Y-104436426D01*
X128105000Y-104713665D01*
X128105000Y-104996335D01*
X128160147Y-105273574D01*
X128268320Y-105534727D01*
X128425363Y-105769759D01*
X128625241Y-105969637D01*
X128860273Y-106126680D01*
X129121426Y-106234853D01*
X129398665Y-106290000D01*
X129681335Y-106290000D01*
X129958574Y-106234853D01*
X130219727Y-106126680D01*
X130454759Y-105969637D01*
X130654637Y-105769759D01*
X130725303Y-105664000D01*
X132853151Y-105664000D01*
X132870363Y-105689759D01*
X133070241Y-105889637D01*
X133305273Y-106046680D01*
X133566426Y-106154853D01*
X133843665Y-106210000D01*
X134126335Y-106210000D01*
X134156720Y-106203956D01*
X134595771Y-106643007D01*
X134623859Y-106677175D01*
X134690679Y-106731921D01*
X134758708Y-106787751D01*
X134759031Y-106787924D01*
X134759317Y-106788158D01*
X134836133Y-106829136D01*
X134913147Y-106870302D01*
X134913502Y-106870410D01*
X134913825Y-106870582D01*
X134996645Y-106895631D01*
X135080724Y-106921136D01*
X135081094Y-106921172D01*
X135081443Y-106921278D01*
X135168093Y-106929741D01*
X135254999Y-106938300D01*
X135299026Y-106933964D01*
X154240653Y-106918465D01*
X154278473Y-106922659D01*
X154327998Y-106918394D01*
X154333819Y-106918389D01*
X154371467Y-106914650D01*
X154452944Y-106907633D01*
X154458580Y-106905999D01*
X154464416Y-106905419D01*
X154542613Y-106881629D01*
X154621132Y-106858858D01*
X154626339Y-106856156D01*
X154631951Y-106854449D01*
X154704033Y-106815845D01*
X154776572Y-106778207D01*
X154781150Y-106774543D01*
X154786324Y-106771772D01*
X154849464Y-106719867D01*
X154879034Y-106696201D01*
X154883208Y-106692128D01*
X154921601Y-106660567D01*
X154945713Y-106631138D01*
X155386851Y-106200688D01*
X155433665Y-106210000D01*
X155716335Y-106210000D01*
X155993574Y-106154853D01*
X156088551Y-106115512D01*
X173184783Y-106115512D01*
X173226213Y-106395130D01*
X173321397Y-106661292D01*
X173388329Y-106786514D01*
X173632298Y-106858097D01*
X174445395Y-106045000D01*
X174804605Y-106045000D01*
X175617702Y-106858097D01*
X175861671Y-106786514D01*
X175982571Y-106531004D01*
X176051300Y-106256816D01*
X176065217Y-105974488D01*
X176023787Y-105694870D01*
X175928603Y-105428708D01*
X175861671Y-105303486D01*
X175617702Y-105231903D01*
X174804605Y-106045000D01*
X174445395Y-106045000D01*
X173632298Y-105231903D01*
X173388329Y-105303486D01*
X173267429Y-105558996D01*
X173198700Y-105833184D01*
X173184783Y-106115512D01*
X156088551Y-106115512D01*
X156254727Y-106046680D01*
X156489759Y-105889637D01*
X156689637Y-105689759D01*
X156846680Y-105454727D01*
X156954853Y-105193574D01*
X156982954Y-105052298D01*
X173811903Y-105052298D01*
X174625000Y-105865395D01*
X175438097Y-105052298D01*
X175366514Y-104808329D01*
X175111004Y-104687429D01*
X174836816Y-104618700D01*
X174554488Y-104604783D01*
X174274870Y-104646213D01*
X174008708Y-104741397D01*
X173883486Y-104808329D01*
X173811903Y-105052298D01*
X156982954Y-105052298D01*
X157010000Y-104916335D01*
X157010000Y-104633665D01*
X157003956Y-104603279D01*
X159753236Y-101854000D01*
X169683151Y-101854000D01*
X169700363Y-101879759D01*
X169900241Y-102079637D01*
X170135273Y-102236680D01*
X170396426Y-102344853D01*
X170673665Y-102400000D01*
X170956335Y-102400000D01*
X171233574Y-102344853D01*
X171494727Y-102236680D01*
X171729759Y-102079637D01*
X171929637Y-101879759D01*
X171931060Y-101877630D01*
X173477178Y-101910094D01*
X173510363Y-101959759D01*
X173710241Y-102159637D01*
X173945273Y-102316680D01*
X174206426Y-102424853D01*
X174483665Y-102480000D01*
X174766335Y-102480000D01*
X174903844Y-102452647D01*
X178220868Y-105287126D01*
X178132217Y-105314018D01*
X177995428Y-105387134D01*
X177971637Y-105406659D01*
X177905569Y-105460879D01*
X177905567Y-105460881D01*
X177875531Y-105485531D01*
X177850881Y-105515567D01*
X173663850Y-109702600D01*
X171725325Y-109702600D01*
X171729759Y-109699637D01*
X171929637Y-109499759D01*
X172086680Y-109264727D01*
X172194853Y-109003574D01*
X172250000Y-108726335D01*
X172250000Y-108443665D01*
X172194853Y-108166426D01*
X172086680Y-107905273D01*
X171929637Y-107670241D01*
X171729759Y-107470363D01*
X171494727Y-107313320D01*
X171233574Y-107205147D01*
X170956335Y-107150000D01*
X170673665Y-107150000D01*
X170396426Y-107205147D01*
X170135273Y-107313320D01*
X169900241Y-107470363D01*
X169700363Y-107670241D01*
X169543320Y-107905273D01*
X169435147Y-108166426D01*
X169380000Y-108443665D01*
X169380000Y-108726335D01*
X169435147Y-109003574D01*
X169543320Y-109264727D01*
X169700363Y-109499759D01*
X169900241Y-109699637D01*
X169904675Y-109702600D01*
X157518662Y-109702600D01*
X157479999Y-109698792D01*
X157441336Y-109702600D01*
X157441327Y-109702600D01*
X157325643Y-109713994D01*
X157177217Y-109759018D01*
X157040428Y-109832134D01*
X157040426Y-109832135D01*
X157040427Y-109832135D01*
X157007597Y-109859078D01*
X157015217Y-109704488D01*
X156973787Y-109424870D01*
X156878603Y-109158708D01*
X156811671Y-109033486D01*
X156567702Y-108961903D01*
X155754605Y-109775000D01*
X155768748Y-109789143D01*
X155589143Y-109968748D01*
X155575000Y-109954605D01*
X154761903Y-110767702D01*
X154833486Y-111011671D01*
X155088996Y-111132571D01*
X155363184Y-111201300D01*
X155641432Y-111215016D01*
X148289088Y-118567362D01*
X148101260Y-118530000D01*
X147808740Y-118530000D01*
X147521842Y-118587068D01*
X147251589Y-118699010D01*
X147008368Y-118861525D01*
X146801525Y-119068368D01*
X146685000Y-119242760D01*
X146568475Y-119068368D01*
X146361632Y-118861525D01*
X146118411Y-118699010D01*
X145848158Y-118587068D01*
X145561260Y-118530000D01*
X145268740Y-118530000D01*
X144981842Y-118587068D01*
X144711589Y-118699010D01*
X144468368Y-118861525D01*
X144261525Y-119068368D01*
X144145000Y-119242760D01*
X144028475Y-119068368D01*
X143821632Y-118861525D01*
X143578411Y-118699010D01*
X143308158Y-118587068D01*
X143021260Y-118530000D01*
X142728740Y-118530000D01*
X142441842Y-118587068D01*
X142171589Y-118699010D01*
X141928368Y-118861525D01*
X141721525Y-119068368D01*
X141605000Y-119242760D01*
X141488475Y-119068368D01*
X141281632Y-118861525D01*
X141038411Y-118699010D01*
X140768158Y-118587068D01*
X140481260Y-118530000D01*
X140188740Y-118530000D01*
X139901842Y-118587068D01*
X139631589Y-118699010D01*
X139388368Y-118861525D01*
X139181525Y-119068368D01*
X139065000Y-119242760D01*
X138948475Y-119068368D01*
X138741632Y-118861525D01*
X138582400Y-118755130D01*
X138582400Y-115608662D01*
X138586208Y-115569999D01*
X138582400Y-115531336D01*
X138582400Y-115531327D01*
X138571006Y-115415643D01*
X138525982Y-115267217D01*
X138452866Y-115130428D01*
X138354469Y-115010531D01*
X138324433Y-114985881D01*
X137312400Y-113973850D01*
X137312400Y-113594735D01*
X137439759Y-113509637D01*
X137639637Y-113309759D01*
X137795000Y-113077241D01*
X137950363Y-113309759D01*
X138150241Y-113509637D01*
X138385273Y-113666680D01*
X138646426Y-113774853D01*
X138923665Y-113830000D01*
X139206335Y-113830000D01*
X139483574Y-113774853D01*
X139744727Y-113666680D01*
X139979759Y-113509637D01*
X140179637Y-113309759D01*
X140335000Y-113077241D01*
X140490363Y-113309759D01*
X140690241Y-113509637D01*
X140925273Y-113666680D01*
X141186426Y-113774853D01*
X141463665Y-113830000D01*
X141746335Y-113830000D01*
X142023574Y-113774853D01*
X142284727Y-113666680D01*
X142519759Y-113509637D01*
X142719637Y-113309759D01*
X142875000Y-113077241D01*
X143030363Y-113309759D01*
X143230241Y-113509637D01*
X143465273Y-113666680D01*
X143726426Y-113774853D01*
X144003665Y-113830000D01*
X144286335Y-113830000D01*
X144563574Y-113774853D01*
X144824727Y-113666680D01*
X145059759Y-113509637D01*
X145259637Y-113309759D01*
X145415000Y-113077241D01*
X145570363Y-113309759D01*
X145770241Y-113509637D01*
X146005273Y-113666680D01*
X146266426Y-113774853D01*
X146543665Y-113830000D01*
X146826335Y-113830000D01*
X147103574Y-113774853D01*
X147364727Y-113666680D01*
X147599759Y-113509637D01*
X147799637Y-113309759D01*
X147955000Y-113077241D01*
X148110363Y-113309759D01*
X148310241Y-113509637D01*
X148545273Y-113666680D01*
X148806426Y-113774853D01*
X149083665Y-113830000D01*
X149366335Y-113830000D01*
X149643574Y-113774853D01*
X149904727Y-113666680D01*
X150139759Y-113509637D01*
X150339637Y-113309759D01*
X150496680Y-113074727D01*
X150501067Y-113064135D01*
X150612615Y-113250131D01*
X150801586Y-113458519D01*
X151027580Y-113626037D01*
X151281913Y-113746246D01*
X151415961Y-113786904D01*
X151638000Y-113664915D01*
X151638000Y-112522000D01*
X151892000Y-112522000D01*
X151892000Y-113664915D01*
X152114039Y-113786904D01*
X152248087Y-113746246D01*
X152502420Y-113626037D01*
X152728414Y-113458519D01*
X152917385Y-113250131D01*
X153062070Y-113008881D01*
X153156909Y-112744040D01*
X153035624Y-112522000D01*
X151892000Y-112522000D01*
X151638000Y-112522000D01*
X151618000Y-112522000D01*
X151618000Y-112268000D01*
X151638000Y-112268000D01*
X151638000Y-111125085D01*
X151892000Y-111125085D01*
X151892000Y-112268000D01*
X153035624Y-112268000D01*
X153156909Y-112045960D01*
X153062070Y-111781119D01*
X152917385Y-111539869D01*
X152728414Y-111331481D01*
X152502420Y-111163963D01*
X152248087Y-111043754D01*
X152114039Y-111003096D01*
X151892000Y-111125085D01*
X151638000Y-111125085D01*
X151415961Y-111003096D01*
X151281913Y-111043754D01*
X151027580Y-111163963D01*
X150801586Y-111331481D01*
X150612615Y-111539869D01*
X150501067Y-111725865D01*
X150496680Y-111715273D01*
X150339637Y-111480241D01*
X150139759Y-111280363D01*
X149904727Y-111123320D01*
X149643574Y-111015147D01*
X149366335Y-110960000D01*
X149083665Y-110960000D01*
X148806426Y-111015147D01*
X148545273Y-111123320D01*
X148310241Y-111280363D01*
X148110363Y-111480241D01*
X147955000Y-111712759D01*
X147799637Y-111480241D01*
X147599759Y-111280363D01*
X147364727Y-111123320D01*
X147103574Y-111015147D01*
X146826335Y-110960000D01*
X146543665Y-110960000D01*
X146266426Y-111015147D01*
X146005273Y-111123320D01*
X145770241Y-111280363D01*
X145570363Y-111480241D01*
X145415000Y-111712759D01*
X145259637Y-111480241D01*
X145059759Y-111280363D01*
X144824727Y-111123320D01*
X144563574Y-111015147D01*
X144286335Y-110960000D01*
X144003665Y-110960000D01*
X143726426Y-111015147D01*
X143465273Y-111123320D01*
X143230241Y-111280363D01*
X143030363Y-111480241D01*
X142875000Y-111712759D01*
X142719637Y-111480241D01*
X142519759Y-111280363D01*
X142284727Y-111123320D01*
X142023574Y-111015147D01*
X141746335Y-110960000D01*
X141463665Y-110960000D01*
X141186426Y-111015147D01*
X140925273Y-111123320D01*
X140690241Y-111280363D01*
X140490363Y-111480241D01*
X140335000Y-111712759D01*
X140179637Y-111480241D01*
X139979759Y-111280363D01*
X139744727Y-111123320D01*
X139483574Y-111015147D01*
X139206335Y-110960000D01*
X138923665Y-110960000D01*
X138646426Y-111015147D01*
X138385273Y-111123320D01*
X138150241Y-111280363D01*
X137950363Y-111480241D01*
X137795000Y-111712759D01*
X137639637Y-111480241D01*
X137439759Y-111280363D01*
X137204727Y-111123320D01*
X136943574Y-111015147D01*
X136666335Y-110960000D01*
X136383665Y-110960000D01*
X136106426Y-111015147D01*
X135845273Y-111123320D01*
X135610241Y-111280363D01*
X135411643Y-111478961D01*
X135410812Y-111470518D01*
X135374502Y-111350820D01*
X135315537Y-111240506D01*
X135236185Y-111143815D01*
X135139494Y-111064463D01*
X135029180Y-111005498D01*
X134909482Y-110969188D01*
X134785000Y-110956928D01*
X133185000Y-110956928D01*
X133060518Y-110969188D01*
X132940820Y-111005498D01*
X132830506Y-111064463D01*
X132733815Y-111143815D01*
X132654463Y-111240506D01*
X132595498Y-111350820D01*
X132559188Y-111470518D01*
X132546928Y-111595000D01*
X132546928Y-113195000D01*
X132559188Y-113319482D01*
X132595498Y-113439180D01*
X132654463Y-113549494D01*
X132733815Y-113646185D01*
X132830506Y-113725537D01*
X132940820Y-113784502D01*
X133060518Y-113820812D01*
X133185000Y-113833072D01*
X134785000Y-113833072D01*
X134909482Y-113820812D01*
X135029180Y-113784502D01*
X135139494Y-113725537D01*
X135236185Y-113646185D01*
X135315537Y-113549494D01*
X135374502Y-113439180D01*
X135410812Y-113319482D01*
X135411643Y-113311039D01*
X135610241Y-113509637D01*
X135737600Y-113594736D01*
X135737600Y-114261337D01*
X135733792Y-114300000D01*
X135737600Y-114338663D01*
X135737600Y-114338672D01*
X135748994Y-114454356D01*
X135794018Y-114602782D01*
X135867134Y-114739571D01*
X135965531Y-114859469D01*
X135995577Y-114884127D01*
X137007601Y-115896153D01*
X137007600Y-118755129D01*
X136848368Y-118861525D01*
X136641525Y-119068368D01*
X136525000Y-119242760D01*
X136408475Y-119068368D01*
X136201632Y-118861525D01*
X135958411Y-118699010D01*
X135688158Y-118587068D01*
X135401260Y-118530000D01*
X135108740Y-118530000D01*
X134821842Y-118587068D01*
X134551589Y-118699010D01*
X134308368Y-118861525D01*
X134101525Y-119068368D01*
X133985000Y-119242760D01*
X133868475Y-119068368D01*
X133661632Y-118861525D01*
X133418411Y-118699010D01*
X133148158Y-118587068D01*
X132861260Y-118530000D01*
X132568740Y-118530000D01*
X132281842Y-118587068D01*
X132011589Y-118699010D01*
X131768368Y-118861525D01*
X131561525Y-119068368D01*
X131445000Y-119242760D01*
X131328475Y-119068368D01*
X131121632Y-118861525D01*
X130878411Y-118699010D01*
X130608158Y-118587068D01*
X130321260Y-118530000D01*
X130028740Y-118530000D01*
X129741842Y-118587068D01*
X129471589Y-118699010D01*
X129228368Y-118861525D01*
X129021525Y-119068368D01*
X128905000Y-119242760D01*
X128788475Y-119068368D01*
X128581632Y-118861525D01*
X128338411Y-118699010D01*
X128068158Y-118587068D01*
X127781260Y-118530000D01*
X127488740Y-118530000D01*
X127201842Y-118587068D01*
X126931589Y-118699010D01*
X126688368Y-118861525D01*
X126481525Y-119068368D01*
X126365000Y-119242760D01*
X126248475Y-119068368D01*
X126041632Y-118861525D01*
X125798411Y-118699010D01*
X125528158Y-118587068D01*
X125241260Y-118530000D01*
X124948740Y-118530000D01*
X124661842Y-118587068D01*
X124391589Y-118699010D01*
X124148368Y-118861525D01*
X123941525Y-119068368D01*
X123825000Y-119242760D01*
X123708475Y-119068368D01*
X123501632Y-118861525D01*
X123258411Y-118699010D01*
X122988158Y-118587068D01*
X122701260Y-118530000D01*
X122408740Y-118530000D01*
X122121842Y-118587068D01*
X121851589Y-118699010D01*
X121608368Y-118861525D01*
X121401525Y-119068368D01*
X121285000Y-119242760D01*
X121168475Y-119068368D01*
X120961632Y-118861525D01*
X120718411Y-118699010D01*
X120448158Y-118587068D01*
X120161260Y-118530000D01*
X119868740Y-118530000D01*
X119581842Y-118587068D01*
X119311589Y-118699010D01*
X119068368Y-118861525D01*
X118861525Y-119068368D01*
X118745000Y-119242760D01*
X118628475Y-119068368D01*
X118421632Y-118861525D01*
X118178411Y-118699010D01*
X117908158Y-118587068D01*
X117621260Y-118530000D01*
X117328740Y-118530000D01*
X117041842Y-118587068D01*
X116771589Y-118699010D01*
X116528368Y-118861525D01*
X116396513Y-118993380D01*
X116374502Y-118920820D01*
X116315537Y-118810506D01*
X116236185Y-118713815D01*
X116139494Y-118634463D01*
X116029180Y-118575498D01*
X115909482Y-118539188D01*
X115785000Y-118526928D01*
X114325000Y-118526928D01*
X114325000Y-110847702D01*
X128726903Y-110847702D01*
X128798486Y-111091671D01*
X129053996Y-111212571D01*
X129328184Y-111281300D01*
X129610512Y-111295217D01*
X129890130Y-111253787D01*
X130156292Y-111158603D01*
X130281514Y-111091671D01*
X130353097Y-110847702D01*
X129540000Y-110034605D01*
X128726903Y-110847702D01*
X114325000Y-110847702D01*
X114325000Y-109925512D01*
X128099783Y-109925512D01*
X128141213Y-110205130D01*
X128236397Y-110471292D01*
X128303329Y-110596514D01*
X128547298Y-110668097D01*
X129360395Y-109855000D01*
X129719605Y-109855000D01*
X130532702Y-110668097D01*
X130776671Y-110596514D01*
X130897571Y-110341004D01*
X130966300Y-110066816D01*
X130977208Y-109845512D01*
X154134783Y-109845512D01*
X154176213Y-110125130D01*
X154271397Y-110391292D01*
X154338329Y-110516514D01*
X154582298Y-110588097D01*
X155395395Y-109775000D01*
X154582298Y-108961903D01*
X154338329Y-109033486D01*
X154217429Y-109288996D01*
X154148700Y-109563184D01*
X154134783Y-109845512D01*
X130977208Y-109845512D01*
X130980217Y-109784488D01*
X130938787Y-109504870D01*
X130843603Y-109238708D01*
X130776671Y-109113486D01*
X130532702Y-109041903D01*
X129719605Y-109855000D01*
X129360395Y-109855000D01*
X128547298Y-109041903D01*
X128303329Y-109113486D01*
X128182429Y-109368996D01*
X128113700Y-109643184D01*
X128099783Y-109925512D01*
X114325000Y-109925512D01*
X114325000Y-108862298D01*
X128726903Y-108862298D01*
X129540000Y-109675395D01*
X130353097Y-108862298D01*
X130329625Y-108782298D01*
X154761903Y-108782298D01*
X155575000Y-109595395D01*
X156388097Y-108782298D01*
X156316514Y-108538329D01*
X156061004Y-108417429D01*
X155786816Y-108348700D01*
X155504488Y-108334783D01*
X155224870Y-108376213D01*
X154958708Y-108471397D01*
X154833486Y-108538329D01*
X154761903Y-108782298D01*
X130329625Y-108782298D01*
X130281514Y-108618329D01*
X130026004Y-108497429D01*
X129751816Y-108428700D01*
X129469488Y-108414783D01*
X129189870Y-108456213D01*
X128923708Y-108551397D01*
X128798486Y-108618329D01*
X128726903Y-108862298D01*
X114325000Y-108862298D01*
X114325000Y-107037702D01*
X173811903Y-107037702D01*
X173883486Y-107281671D01*
X174138996Y-107402571D01*
X174413184Y-107471300D01*
X174695512Y-107485217D01*
X174975130Y-107443787D01*
X175241292Y-107348603D01*
X175366514Y-107281671D01*
X175438097Y-107037702D01*
X174625000Y-106224605D01*
X173811903Y-107037702D01*
X114325000Y-107037702D01*
X114325000Y-93203665D01*
X179540000Y-93203665D01*
X179540000Y-93486335D01*
X179595147Y-93763574D01*
X179703320Y-94024727D01*
X179860363Y-94259759D01*
X180060241Y-94459637D01*
X180295273Y-94616680D01*
X180556426Y-94724853D01*
X180833665Y-94780000D01*
X181116335Y-94780000D01*
X181393574Y-94724853D01*
X181654727Y-94616680D01*
X181889759Y-94459637D01*
X182089637Y-94259759D01*
X182246680Y-94024727D01*
X182354853Y-93763574D01*
X182410000Y-93486335D01*
X182410000Y-93203665D01*
X182354853Y-92926426D01*
X182246680Y-92665273D01*
X182089637Y-92430241D01*
X181889759Y-92230363D01*
X181654727Y-92073320D01*
X181393574Y-91965147D01*
X181116335Y-91910000D01*
X180833665Y-91910000D01*
X180556426Y-91965147D01*
X180295273Y-92073320D01*
X180060241Y-92230363D01*
X179860363Y-92430241D01*
X179703320Y-92665273D01*
X179595147Y-92926426D01*
X179540000Y-93203665D01*
X114325000Y-93203665D01*
X114325000Y-91567000D01*
X212700001Y-91567000D01*
X212700000Y-119205345D01*
G37*
G04 #@! TD.AperFunction*
D22*
X188788748Y-102220858D02*
X188774605Y-102235000D01*
X189524273Y-102984668D01*
X189759183Y-102923848D01*
X189867206Y-102692066D01*
X189942013Y-102872665D01*
X190089338Y-103093153D01*
X190276847Y-103280662D01*
X190497335Y-103427987D01*
X190683260Y-103505000D01*
X190497335Y-103582013D01*
X190276847Y-103729338D01*
X190089338Y-103916847D01*
X189942013Y-104137335D01*
X189840533Y-104382328D01*
X189788800Y-104642411D01*
X189788800Y-104907589D01*
X189840533Y-105167672D01*
X189942013Y-105412665D01*
X190089338Y-105633153D01*
X190276847Y-105820662D01*
X190497335Y-105967987D01*
X190683260Y-106045000D01*
X190497335Y-106122013D01*
X190276847Y-106269338D01*
X190120185Y-106426000D01*
X188963236Y-106426000D01*
X186118435Y-103581200D01*
X186187589Y-103581200D01*
X186447672Y-103529467D01*
X186692665Y-103427987D01*
X186913153Y-103280662D01*
X187029542Y-103164273D01*
X187845332Y-103164273D01*
X187906152Y-103399183D01*
X188146509Y-103511202D01*
X188404102Y-103574176D01*
X188669030Y-103585687D01*
X188931113Y-103545291D01*
X189180280Y-103454542D01*
X189283848Y-103399183D01*
X189344668Y-103164273D01*
X188595000Y-102414605D01*
X187845332Y-103164273D01*
X187029542Y-103164273D01*
X187100662Y-103093153D01*
X187247987Y-102872665D01*
X187325969Y-102684400D01*
X187375458Y-102820280D01*
X187430817Y-102923848D01*
X187665727Y-102984668D01*
X188415395Y-102235000D01*
X188401253Y-102220858D01*
X188580858Y-102041253D01*
X188595000Y-102055395D01*
X188609143Y-102041253D01*
X188788748Y-102220858D01*
G04 #@! TA.AperFunction,Conductor*
D23*
G36*
X188788748Y-102220858D02*
G01*
X188774605Y-102235000D01*
X189524273Y-102984668D01*
X189759183Y-102923848D01*
X189867206Y-102692066D01*
X189942013Y-102872665D01*
X190089338Y-103093153D01*
X190276847Y-103280662D01*
X190497335Y-103427987D01*
X190683260Y-103505000D01*
X190497335Y-103582013D01*
X190276847Y-103729338D01*
X190089338Y-103916847D01*
X189942013Y-104137335D01*
X189840533Y-104382328D01*
X189788800Y-104642411D01*
X189788800Y-104907589D01*
X189840533Y-105167672D01*
X189942013Y-105412665D01*
X190089338Y-105633153D01*
X190276847Y-105820662D01*
X190497335Y-105967987D01*
X190683260Y-106045000D01*
X190497335Y-106122013D01*
X190276847Y-106269338D01*
X190120185Y-106426000D01*
X188963236Y-106426000D01*
X186118435Y-103581200D01*
X186187589Y-103581200D01*
X186447672Y-103529467D01*
X186692665Y-103427987D01*
X186913153Y-103280662D01*
X187029542Y-103164273D01*
X187845332Y-103164273D01*
X187906152Y-103399183D01*
X188146509Y-103511202D01*
X188404102Y-103574176D01*
X188669030Y-103585687D01*
X188931113Y-103545291D01*
X189180280Y-103454542D01*
X189283848Y-103399183D01*
X189344668Y-103164273D01*
X188595000Y-102414605D01*
X187845332Y-103164273D01*
X187029542Y-103164273D01*
X187100662Y-103093153D01*
X187247987Y-102872665D01*
X187325969Y-102684400D01*
X187375458Y-102820280D01*
X187430817Y-102923848D01*
X187665727Y-102984668D01*
X188415395Y-102235000D01*
X188401253Y-102220858D01*
X188580858Y-102041253D01*
X188595000Y-102055395D01*
X188609143Y-102041253D01*
X188788748Y-102220858D01*
G37*
G04 #@! TD.AperFunction*
D22*
X192560363Y-94259759D02*
X192760241Y-94459637D01*
X192887600Y-94544735D01*
X192887601Y-101142062D01*
X192816847Y-101189338D01*
X192629338Y-101376847D01*
X192482013Y-101597335D01*
X192405000Y-101783260D01*
X192327987Y-101597335D01*
X192180662Y-101376847D01*
X191993153Y-101189338D01*
X191772665Y-101042013D01*
X191584400Y-100964031D01*
X191720280Y-100914542D01*
X191823848Y-100859183D01*
X191884668Y-100624273D01*
X191135000Y-99874605D01*
X191120858Y-99888748D01*
X190941253Y-99709143D01*
X190955395Y-99695000D01*
X191314605Y-99695000D01*
X192064273Y-100444668D01*
X192299183Y-100383848D01*
X192411202Y-100143491D01*
X192474176Y-99885898D01*
X192485687Y-99620970D01*
X192445291Y-99358887D01*
X192354542Y-99109720D01*
X192299183Y-99006152D01*
X192064273Y-98945332D01*
X191314605Y-99695000D01*
X190955395Y-99695000D01*
X190205727Y-98945332D01*
X189970817Y-99006152D01*
X189862794Y-99237934D01*
X189787987Y-99057335D01*
X189640662Y-98836847D01*
X189569542Y-98765727D01*
X190385332Y-98765727D01*
X191135000Y-99515395D01*
X191884668Y-98765727D01*
X191823848Y-98530817D01*
X191583491Y-98418798D01*
X191325898Y-98355824D01*
X191060970Y-98344313D01*
X190798887Y-98384709D01*
X190549720Y-98475458D01*
X190446152Y-98530817D01*
X190385332Y-98765727D01*
X189569542Y-98765727D01*
X189453153Y-98649338D01*
X189382400Y-98602062D01*
X189382400Y-94544735D01*
X189509759Y-94459637D01*
X189709637Y-94259759D01*
X189794735Y-94132400D01*
X189935265Y-94132400D01*
X190020363Y-94259759D01*
X190220241Y-94459637D01*
X190455273Y-94616680D01*
X190716426Y-94724853D01*
X190993665Y-94780000D01*
X191276335Y-94780000D01*
X191553574Y-94724853D01*
X191814727Y-94616680D01*
X192049759Y-94459637D01*
X192249637Y-94259759D01*
X192405000Y-94027241D01*
X192560363Y-94259759D01*
G04 #@! TA.AperFunction,Conductor*
D23*
G36*
X192560363Y-94259759D02*
G01*
X192760241Y-94459637D01*
X192887600Y-94544735D01*
X192887601Y-101142062D01*
X192816847Y-101189338D01*
X192629338Y-101376847D01*
X192482013Y-101597335D01*
X192405000Y-101783260D01*
X192327987Y-101597335D01*
X192180662Y-101376847D01*
X191993153Y-101189338D01*
X191772665Y-101042013D01*
X191584400Y-100964031D01*
X191720280Y-100914542D01*
X191823848Y-100859183D01*
X191884668Y-100624273D01*
X191135000Y-99874605D01*
X191120858Y-99888748D01*
X190941253Y-99709143D01*
X190955395Y-99695000D01*
X191314605Y-99695000D01*
X192064273Y-100444668D01*
X192299183Y-100383848D01*
X192411202Y-100143491D01*
X192474176Y-99885898D01*
X192485687Y-99620970D01*
X192445291Y-99358887D01*
X192354542Y-99109720D01*
X192299183Y-99006152D01*
X192064273Y-98945332D01*
X191314605Y-99695000D01*
X190955395Y-99695000D01*
X190205727Y-98945332D01*
X189970817Y-99006152D01*
X189862794Y-99237934D01*
X189787987Y-99057335D01*
X189640662Y-98836847D01*
X189569542Y-98765727D01*
X190385332Y-98765727D01*
X191135000Y-99515395D01*
X191884668Y-98765727D01*
X191823848Y-98530817D01*
X191583491Y-98418798D01*
X191325898Y-98355824D01*
X191060970Y-98344313D01*
X190798887Y-98384709D01*
X190549720Y-98475458D01*
X190446152Y-98530817D01*
X190385332Y-98765727D01*
X189569542Y-98765727D01*
X189453153Y-98649338D01*
X189382400Y-98602062D01*
X189382400Y-94544735D01*
X189509759Y-94459637D01*
X189709637Y-94259759D01*
X189794735Y-94132400D01*
X189935265Y-94132400D01*
X190020363Y-94259759D01*
X190220241Y-94459637D01*
X190455273Y-94616680D01*
X190716426Y-94724853D01*
X190993665Y-94780000D01*
X191276335Y-94780000D01*
X191553574Y-94724853D01*
X191814727Y-94616680D01*
X192049759Y-94459637D01*
X192249637Y-94259759D01*
X192405000Y-94027241D01*
X192560363Y-94259759D01*
G37*
G04 #@! TD.AperFunction*
M02*
