G04 #@! TF.GenerationSoftware,KiCad,Pcbnew,(5.1.10)-1*
G04 #@! TF.CreationDate,2021-10-20T19:59:30+02:00*
G04 #@! TF.ProjectId,Arcnet,4172636e-6574-42e6-9b69-6361645f7063,rev?*
G04 #@! TF.SameCoordinates,Original*
G04 #@! TF.FileFunction,Soldermask,Top*
G04 #@! TF.FilePolarity,Negative*
%FSLAX46Y46*%
G04 Gerber Fmt 4.6, Leading zero omitted, Abs format (unit mm)*
G04 Created by KiCad (PCBNEW (5.1.10)-1) date 2021-10-20 19:59:30*
%MOMM*%
%LPD*%
G01*
G04 APERTURE LIST*
%ADD10C,1.524400*%
%ADD11O,1.702000X1.702000*%
%ADD12C,1.702000*%
%ADD13C,1.602000*%
%ADD14O,1.802000X1.802000*%
%ADD15C,3.302000*%
%ADD16C,0.100000*%
G04 APERTURE END LIST*
D10*
X183515000Y-99695000D03*
X186055000Y-99695000D03*
X188595000Y-99695000D03*
X180975000Y-102235000D03*
X186055000Y-102235000D03*
X188595000Y-102235000D03*
X191135000Y-102235000D03*
X193675000Y-102235000D03*
X193675000Y-104775000D03*
X193675000Y-107315000D03*
X193675000Y-109855000D03*
X191135000Y-99695000D03*
X191135000Y-104775000D03*
X191135000Y-107315000D03*
X191135000Y-109855000D03*
X191135000Y-112395000D03*
X188595000Y-112395000D03*
X186055000Y-112395000D03*
X183515000Y-112395000D03*
X188595000Y-109855000D03*
X186055000Y-109855000D03*
X183515000Y-109855000D03*
X180975000Y-104775000D03*
X180975000Y-109855000D03*
X180975000Y-107315000D03*
X183515000Y-102235000D03*
X183515000Y-107315000D03*
G36*
G01*
X184226200Y-105537200D02*
X182803800Y-105537200D01*
G75*
G02*
X182752800Y-105486200I0J51000D01*
G01*
X182752800Y-104063800D01*
G75*
G02*
X182803800Y-104012800I51000J0D01*
G01*
X184226200Y-104012800D01*
G75*
G02*
X184277200Y-104063800I0J-51000D01*
G01*
X184277200Y-105486200D01*
G75*
G02*
X184226200Y-105537200I-51000J0D01*
G01*
G37*
D11*
X170815000Y-108585000D03*
D12*
X170815000Y-100965000D03*
X155575000Y-104775000D03*
X155575000Y-109775000D03*
D13*
X201295000Y-110290000D03*
X201295000Y-105410000D03*
D14*
X173355000Y-113665000D03*
X170815000Y-113665000D03*
G36*
G01*
X169125000Y-114566000D02*
X167425000Y-114566000D01*
G75*
G02*
X167374000Y-114515000I0J51000D01*
G01*
X167374000Y-112815000D01*
G75*
G02*
X167425000Y-112764000I51000J0D01*
G01*
X169125000Y-112764000D01*
G75*
G02*
X169176000Y-112815000I0J-51000D01*
G01*
X169176000Y-114515000D01*
G75*
G02*
X169125000Y-114566000I-51000J0D01*
G01*
G37*
D11*
X180975000Y-85725000D03*
D12*
X180975000Y-93345000D03*
X170735000Y-83820000D03*
X165735000Y-83820000D03*
D11*
X186055000Y-85725000D03*
X193675000Y-93345000D03*
X188595000Y-85725000D03*
X191135000Y-93345000D03*
X191135000Y-85725000D03*
X188595000Y-93345000D03*
X193675000Y-85725000D03*
G36*
G01*
X186855000Y-94196000D02*
X185255000Y-94196000D01*
G75*
G02*
X185204000Y-94145000I0J51000D01*
G01*
X185204000Y-92545000D01*
G75*
G02*
X185255000Y-92494000I51000J0D01*
G01*
X186855000Y-92494000D01*
G75*
G02*
X186906000Y-92545000I0J-51000D01*
G01*
X186906000Y-94145000D01*
G75*
G02*
X186855000Y-94196000I-51000J0D01*
G01*
G37*
X149225000Y-73660000D03*
D12*
X156845000Y-73660000D03*
D11*
X156845000Y-83185000D03*
D12*
X149225000Y-83185000D03*
D14*
X142875000Y-73660000D03*
G36*
G01*
X144565000Y-72759000D02*
X146265000Y-72759000D01*
G75*
G02*
X146316000Y-72810000I0J-51000D01*
G01*
X146316000Y-74510000D01*
G75*
G02*
X146265000Y-74561000I-51000J0D01*
G01*
X144565000Y-74561000D01*
G75*
G02*
X144514000Y-74510000I0J51000D01*
G01*
X144514000Y-72810000D01*
G75*
G02*
X144565000Y-72759000I51000J0D01*
G01*
G37*
X145415000Y-83185000D03*
G36*
G01*
X143725000Y-84086000D02*
X142025000Y-84086000D01*
G75*
G02*
X141974000Y-84035000I0J51000D01*
G01*
X141974000Y-82335000D01*
G75*
G02*
X142025000Y-82284000I51000J0D01*
G01*
X143725000Y-82284000D01*
G75*
G02*
X143776000Y-82335000I0J-51000D01*
G01*
X143776000Y-84035000D01*
G75*
G02*
X143725000Y-84086000I-51000J0D01*
G01*
G37*
G36*
G01*
X132790044Y-80886758D02*
X133108242Y-81204956D01*
G75*
G02*
X133108242Y-82507446I-651245J-651245D01*
G01*
X133108242Y-82507446D01*
G75*
G02*
X131805752Y-82507446I-651245J651245D01*
G01*
X131487554Y-82189248D01*
G75*
G02*
X131487554Y-80886758I651245J651245D01*
G01*
X131487554Y-80886758D01*
G75*
G02*
X132790044Y-80886758I651245J-651245D01*
G01*
G37*
G36*
G01*
X134586095Y-79090707D02*
X134904293Y-79408905D01*
G75*
G02*
X134904293Y-80711395I-651245J-651245D01*
G01*
X134904293Y-80711395D01*
G75*
G02*
X133601803Y-80711395I-651245J651245D01*
G01*
X133283605Y-80393197D01*
G75*
G02*
X133283605Y-79090707I651245J651245D01*
G01*
X133283605Y-79090707D01*
G75*
G02*
X134586095Y-79090707I651245J-651245D01*
G01*
G37*
G36*
G01*
X135918040Y-76830549D02*
X137164451Y-78076960D01*
G75*
G02*
X137164451Y-78451238I-187139J-187139D01*
G01*
X136236238Y-79379451D01*
G75*
G02*
X135861960Y-79379451I-187139J187139D01*
G01*
X134615549Y-78133040D01*
G75*
G02*
X134615549Y-77758762I187139J187139D01*
G01*
X135543762Y-76830549D01*
G75*
G02*
X135918040Y-76830549I187139J-187139D01*
G01*
G37*
G36*
G01*
X126440044Y-87236758D02*
X126758242Y-87554956D01*
G75*
G02*
X126758242Y-88857446I-651245J-651245D01*
G01*
X126758242Y-88857446D01*
G75*
G02*
X125455752Y-88857446I-651245J651245D01*
G01*
X125137554Y-88539248D01*
G75*
G02*
X125137554Y-87236758I651245J651245D01*
G01*
X125137554Y-87236758D01*
G75*
G02*
X126440044Y-87236758I651245J-651245D01*
G01*
G37*
G36*
G01*
X128236095Y-85440707D02*
X128554293Y-85758905D01*
G75*
G02*
X128554293Y-87061395I-651245J-651245D01*
G01*
X128554293Y-87061395D01*
G75*
G02*
X127251803Y-87061395I-651245J651245D01*
G01*
X126933605Y-86743197D01*
G75*
G02*
X126933605Y-85440707I651245J651245D01*
G01*
X126933605Y-85440707D01*
G75*
G02*
X128236095Y-85440707I651245J-651245D01*
G01*
G37*
G36*
G01*
X129568040Y-83180549D02*
X130814451Y-84426960D01*
G75*
G02*
X130814451Y-84801238I-187139J-187139D01*
G01*
X129886238Y-85729451D01*
G75*
G02*
X129511960Y-85729451I-187139J187139D01*
G01*
X128265549Y-84483040D01*
G75*
G02*
X128265549Y-84108762I187139J187139D01*
G01*
X129193762Y-83180549D01*
G75*
G02*
X129568040Y-83180549I187139J-187139D01*
G01*
G37*
D11*
X156845000Y-76835000D03*
D12*
X149225000Y-76835000D03*
D11*
X149225000Y-80010000D03*
D12*
X156845000Y-80010000D03*
D11*
X163195000Y-80010000D03*
D12*
X170815000Y-80010000D03*
D14*
X168275000Y-75565000D03*
G36*
G01*
X169965000Y-74664000D02*
X171665000Y-74664000D01*
G75*
G02*
X171716000Y-74715000I0J-51000D01*
G01*
X171716000Y-76415000D01*
G75*
G02*
X171665000Y-76466000I-51000J0D01*
G01*
X169965000Y-76466000D01*
G75*
G02*
X169914000Y-76415000I0J51000D01*
G01*
X169914000Y-74715000D01*
G75*
G02*
X169965000Y-74664000I51000J0D01*
G01*
G37*
D12*
X174625000Y-101045000D03*
X174625000Y-106045000D03*
X129540000Y-104855000D03*
X129540000Y-109855000D03*
D11*
X133985000Y-104775000D03*
X151765000Y-112395000D03*
X136525000Y-104775000D03*
X149225000Y-112395000D03*
X139065000Y-104775000D03*
X146685000Y-112395000D03*
X141605000Y-104775000D03*
X144145000Y-112395000D03*
X144145000Y-104775000D03*
X141605000Y-112395000D03*
X146685000Y-104775000D03*
X139065000Y-112395000D03*
X149225000Y-104775000D03*
X136525000Y-112395000D03*
X151765000Y-104775000D03*
G36*
G01*
X134785000Y-113246000D02*
X133185000Y-113246000D01*
G75*
G02*
X133134000Y-113195000I0J51000D01*
G01*
X133134000Y-111595000D01*
G75*
G02*
X133185000Y-111544000I51000J0D01*
G01*
X134785000Y-111544000D01*
G75*
G02*
X134836000Y-111595000I0J-51000D01*
G01*
X134836000Y-113195000D01*
G75*
G02*
X134785000Y-113246000I-51000J0D01*
G01*
G37*
D14*
X154305000Y-98425000D03*
X154305000Y-100965000D03*
X151765000Y-98425000D03*
X151765000Y-100965000D03*
X149225000Y-98425000D03*
X149225000Y-100965000D03*
X146685000Y-98425000D03*
X146685000Y-100965000D03*
X144145000Y-98425000D03*
X144145000Y-100965000D03*
X141605000Y-98425000D03*
X141605000Y-100965000D03*
X139065000Y-98425000D03*
X139065000Y-100965000D03*
X136525000Y-98425000D03*
G36*
G01*
X137375000Y-101866000D02*
X135675000Y-101866000D01*
G75*
G02*
X135624000Y-101815000I0J51000D01*
G01*
X135624000Y-100115000D01*
G75*
G02*
X135675000Y-100064000I51000J0D01*
G01*
X137375000Y-100064000D01*
G75*
G02*
X137426000Y-100115000I0J-51000D01*
G01*
X137426000Y-101815000D01*
G75*
G02*
X137375000Y-101866000I-51000J0D01*
G01*
G37*
D12*
X210740000Y-110490000D03*
X205740000Y-110490000D03*
X210740000Y-105410000D03*
X205740000Y-105410000D03*
D14*
X211455000Y-120015000D03*
X208915000Y-120015000D03*
X206375000Y-120015000D03*
X203835000Y-120015000D03*
X201295000Y-120015000D03*
X198755000Y-120015000D03*
X196215000Y-120015000D03*
X193675000Y-120015000D03*
X191135000Y-120015000D03*
X188595000Y-120015000D03*
X186055000Y-120015000D03*
X183515000Y-120015000D03*
X180975000Y-120015000D03*
X178435000Y-120015000D03*
X175895000Y-120015000D03*
X173355000Y-120015000D03*
X170815000Y-120015000D03*
X168275000Y-120015000D03*
X165735000Y-120015000D03*
X163195000Y-120015000D03*
X160655000Y-120015000D03*
X158115000Y-120015000D03*
X155575000Y-120015000D03*
X153035000Y-120015000D03*
X150495000Y-120015000D03*
X147955000Y-120015000D03*
X145415000Y-120015000D03*
X142875000Y-120015000D03*
X140335000Y-120015000D03*
X137795000Y-120015000D03*
X135255000Y-120015000D03*
X132715000Y-120015000D03*
X130175000Y-120015000D03*
X127635000Y-120015000D03*
X125095000Y-120015000D03*
X122555000Y-120015000D03*
X120015000Y-120015000D03*
X117475000Y-120015000D03*
G36*
G01*
X115785000Y-120916000D02*
X114085000Y-120916000D01*
G75*
G02*
X114034000Y-120865000I0J51000D01*
G01*
X114034000Y-119165000D01*
G75*
G02*
X114085000Y-119114000I51000J0D01*
G01*
X115785000Y-119114000D01*
G75*
G02*
X115836000Y-119165000I0J-51000D01*
G01*
X115836000Y-120865000D01*
G75*
G02*
X115785000Y-120916000I-51000J0D01*
G01*
G37*
D15*
X118745000Y-88265000D03*
D16*
G36*
X129513235Y-85727910D02*
G01*
X129553181Y-85760693D01*
X129598589Y-85784963D01*
X129647863Y-85799911D01*
X129699099Y-85804957D01*
X129750335Y-85799911D01*
X129799609Y-85784963D01*
X129845017Y-85760693D01*
X129884963Y-85727910D01*
X129886937Y-85727584D01*
X129888205Y-85729130D01*
X129887646Y-85730870D01*
X129828064Y-85790452D01*
X129827919Y-85790584D01*
X129796777Y-85816142D01*
X129796451Y-85816360D01*
X129766449Y-85832396D01*
X129766087Y-85832546D01*
X129733539Y-85842420D01*
X129733154Y-85842496D01*
X129699295Y-85845830D01*
X129698903Y-85845830D01*
X129665044Y-85842496D01*
X129664659Y-85842420D01*
X129632111Y-85832546D01*
X129631749Y-85832396D01*
X129601747Y-85816360D01*
X129601421Y-85816142D01*
X129570279Y-85790584D01*
X129570134Y-85790452D01*
X129510552Y-85730870D01*
X129510034Y-85728938D01*
X129511448Y-85727524D01*
X129513235Y-85727910D01*
G37*
G36*
X130815870Y-84425552D02*
G01*
X130875452Y-84485134D01*
X130875584Y-84485279D01*
X130901142Y-84516421D01*
X130901360Y-84516747D01*
X130917396Y-84546749D01*
X130917546Y-84547111D01*
X130927420Y-84579659D01*
X130927496Y-84580044D01*
X130930830Y-84613903D01*
X130930830Y-84614295D01*
X130927496Y-84648154D01*
X130927420Y-84648539D01*
X130917546Y-84681087D01*
X130917396Y-84681449D01*
X130901360Y-84711451D01*
X130901142Y-84711777D01*
X130875584Y-84742919D01*
X130875452Y-84743064D01*
X130815870Y-84802646D01*
X130813938Y-84803164D01*
X130812524Y-84801750D01*
X130812910Y-84799963D01*
X130845693Y-84760017D01*
X130869963Y-84714609D01*
X130884911Y-84665335D01*
X130889957Y-84614099D01*
X130884911Y-84562863D01*
X130869963Y-84513589D01*
X130845693Y-84468181D01*
X130812910Y-84428235D01*
X130812584Y-84426261D01*
X130814130Y-84424993D01*
X130815870Y-84425552D01*
G37*
G36*
X128267476Y-84108250D02*
G01*
X128267090Y-84110037D01*
X128234307Y-84149983D01*
X128210037Y-84195391D01*
X128195089Y-84244665D01*
X128190043Y-84295901D01*
X128195089Y-84347137D01*
X128210037Y-84396411D01*
X128234307Y-84441819D01*
X128267090Y-84481765D01*
X128267416Y-84483739D01*
X128265870Y-84485007D01*
X128264130Y-84484448D01*
X128204548Y-84424866D01*
X128204416Y-84424721D01*
X128178858Y-84393579D01*
X128178640Y-84393253D01*
X128162604Y-84363251D01*
X128162454Y-84362889D01*
X128152580Y-84330341D01*
X128152504Y-84329956D01*
X128149170Y-84296097D01*
X128149170Y-84295705D01*
X128152504Y-84261846D01*
X128152580Y-84261461D01*
X128162454Y-84228913D01*
X128162604Y-84228551D01*
X128178640Y-84198549D01*
X128178858Y-84198223D01*
X128204416Y-84167081D01*
X128204548Y-84166936D01*
X128264130Y-84107354D01*
X128266062Y-84106836D01*
X128267476Y-84108250D01*
G37*
G36*
X129414956Y-83067504D02*
G01*
X129415341Y-83067580D01*
X129447889Y-83077454D01*
X129448251Y-83077604D01*
X129478253Y-83093640D01*
X129478579Y-83093858D01*
X129509721Y-83119416D01*
X129509866Y-83119548D01*
X129569448Y-83179130D01*
X129569966Y-83181062D01*
X129568552Y-83182476D01*
X129566765Y-83182090D01*
X129526819Y-83149307D01*
X129481411Y-83125037D01*
X129432137Y-83110089D01*
X129380901Y-83105043D01*
X129329665Y-83110089D01*
X129280391Y-83125037D01*
X129234983Y-83149307D01*
X129195037Y-83182090D01*
X129193063Y-83182416D01*
X129191795Y-83180870D01*
X129192354Y-83179130D01*
X129251936Y-83119548D01*
X129252081Y-83119416D01*
X129283223Y-83093858D01*
X129283549Y-83093640D01*
X129313551Y-83077604D01*
X129313913Y-83077454D01*
X129346461Y-83067580D01*
X129346846Y-83067504D01*
X129380705Y-83064170D01*
X129381097Y-83064170D01*
X129414956Y-83067504D01*
G37*
G36*
X135863235Y-79377910D02*
G01*
X135903181Y-79410693D01*
X135948589Y-79434963D01*
X135997863Y-79449911D01*
X136049099Y-79454957D01*
X136100335Y-79449911D01*
X136149609Y-79434963D01*
X136195017Y-79410693D01*
X136234963Y-79377910D01*
X136236937Y-79377584D01*
X136238205Y-79379130D01*
X136237646Y-79380870D01*
X136178064Y-79440452D01*
X136177919Y-79440584D01*
X136146777Y-79466142D01*
X136146451Y-79466360D01*
X136116449Y-79482396D01*
X136116087Y-79482546D01*
X136083539Y-79492420D01*
X136083154Y-79492496D01*
X136049295Y-79495830D01*
X136048903Y-79495830D01*
X136015044Y-79492496D01*
X136014659Y-79492420D01*
X135982111Y-79482546D01*
X135981749Y-79482396D01*
X135951747Y-79466360D01*
X135951421Y-79466142D01*
X135920279Y-79440584D01*
X135920134Y-79440452D01*
X135860552Y-79380870D01*
X135860034Y-79378938D01*
X135861448Y-79377524D01*
X135863235Y-79377910D01*
G37*
G36*
X137165870Y-78075552D02*
G01*
X137225452Y-78135134D01*
X137225584Y-78135279D01*
X137251142Y-78166421D01*
X137251360Y-78166747D01*
X137267396Y-78196749D01*
X137267546Y-78197111D01*
X137277420Y-78229659D01*
X137277496Y-78230044D01*
X137280830Y-78263903D01*
X137280830Y-78264295D01*
X137277496Y-78298154D01*
X137277420Y-78298539D01*
X137267546Y-78331087D01*
X137267396Y-78331449D01*
X137251360Y-78361451D01*
X137251142Y-78361777D01*
X137225584Y-78392919D01*
X137225452Y-78393064D01*
X137165870Y-78452646D01*
X137163938Y-78453164D01*
X137162524Y-78451750D01*
X137162910Y-78449963D01*
X137195693Y-78410017D01*
X137219963Y-78364609D01*
X137234911Y-78315335D01*
X137239957Y-78264099D01*
X137234911Y-78212863D01*
X137219963Y-78163589D01*
X137195693Y-78118181D01*
X137162910Y-78078235D01*
X137162584Y-78076261D01*
X137164130Y-78074993D01*
X137165870Y-78075552D01*
G37*
G36*
X134617476Y-77758250D02*
G01*
X134617090Y-77760037D01*
X134584307Y-77799983D01*
X134560037Y-77845391D01*
X134545089Y-77894665D01*
X134540043Y-77945901D01*
X134545089Y-77997137D01*
X134560037Y-78046411D01*
X134584307Y-78091819D01*
X134617090Y-78131765D01*
X134617416Y-78133739D01*
X134615870Y-78135007D01*
X134614130Y-78134448D01*
X134554548Y-78074866D01*
X134554416Y-78074721D01*
X134528858Y-78043579D01*
X134528640Y-78043253D01*
X134512604Y-78013251D01*
X134512454Y-78012889D01*
X134502580Y-77980341D01*
X134502504Y-77979956D01*
X134499170Y-77946097D01*
X134499170Y-77945705D01*
X134502504Y-77911846D01*
X134502580Y-77911461D01*
X134512454Y-77878913D01*
X134512604Y-77878551D01*
X134528640Y-77848549D01*
X134528858Y-77848223D01*
X134554416Y-77817081D01*
X134554548Y-77816936D01*
X134614130Y-77757354D01*
X134616062Y-77756836D01*
X134617476Y-77758250D01*
G37*
G36*
X135764956Y-76717504D02*
G01*
X135765341Y-76717580D01*
X135797889Y-76727454D01*
X135798251Y-76727604D01*
X135828253Y-76743640D01*
X135828579Y-76743858D01*
X135859721Y-76769416D01*
X135859866Y-76769548D01*
X135919448Y-76829130D01*
X135919966Y-76831062D01*
X135918552Y-76832476D01*
X135916765Y-76832090D01*
X135876819Y-76799307D01*
X135831411Y-76775037D01*
X135782137Y-76760089D01*
X135730901Y-76755043D01*
X135679665Y-76760089D01*
X135630391Y-76775037D01*
X135584983Y-76799307D01*
X135545037Y-76832090D01*
X135543063Y-76832416D01*
X135541795Y-76830870D01*
X135542354Y-76829130D01*
X135601936Y-76769548D01*
X135602081Y-76769416D01*
X135633223Y-76743858D01*
X135633549Y-76743640D01*
X135663551Y-76727604D01*
X135663913Y-76727454D01*
X135696461Y-76717580D01*
X135696846Y-76717504D01*
X135730705Y-76714170D01*
X135731097Y-76714170D01*
X135764956Y-76717504D01*
G37*
M02*
