G04 #@! TF.GenerationSoftware,KiCad,Pcbnew,(5.1.10)-1*
G04 #@! TF.CreationDate,2021-10-20T19:59:30+02:00*
G04 #@! TF.ProjectId,Arcnet,4172636e-6574-42e6-9b69-6361645f7063,rev?*
G04 #@! TF.SameCoordinates,Original*
G04 #@! TF.FileFunction,Copper,L2,Bot*
G04 #@! TF.FilePolarity,Positive*
%FSLAX46Y46*%
G04 Gerber Fmt 4.6, Leading zero omitted, Abs format (unit mm)*
G04 Created by KiCad (PCBNEW (5.1.10)-1) date 2021-10-20 19:59:30*
%MOMM*%
%LPD*%
G01*
G04 APERTURE LIST*
G04 #@! TA.AperFunction,ComponentPad*
%ADD10C,1.422400*%
G04 #@! TD*
G04 #@! TA.AperFunction,ComponentPad*
%ADD11R,1.422400X1.422400*%
G04 #@! TD*
G04 #@! TA.AperFunction,ComponentPad*
%ADD12O,1.600000X1.600000*%
G04 #@! TD*
G04 #@! TA.AperFunction,ComponentPad*
%ADD13C,1.600000*%
G04 #@! TD*
G04 #@! TA.AperFunction,ComponentPad*
%ADD14C,1.500000*%
G04 #@! TD*
G04 #@! TA.AperFunction,ComponentPad*
%ADD15O,1.700000X1.700000*%
G04 #@! TD*
G04 #@! TA.AperFunction,ComponentPad*
%ADD16R,1.700000X1.700000*%
G04 #@! TD*
G04 #@! TA.AperFunction,SMDPad,CuDef*
%ADD17R,1.000000X1.000000*%
G04 #@! TD*
G04 #@! TA.AperFunction,ComponentPad*
%ADD18R,1.600000X1.600000*%
G04 #@! TD*
G04 #@! TA.AperFunction,ViaPad*
%ADD19C,0.800000*%
G04 #@! TD*
G04 #@! TA.AperFunction,Conductor*
%ADD20C,0.508000*%
G04 #@! TD*
G04 #@! TA.AperFunction,Conductor*
%ADD21C,1.016000*%
G04 #@! TD*
G04 #@! TA.AperFunction,Conductor*
%ADD22C,0.304800*%
G04 #@! TD*
G04 #@! TA.AperFunction,Conductor*
%ADD23C,0.254000*%
G04 #@! TD*
G04 #@! TA.AperFunction,Conductor*
%ADD24C,0.100000*%
G04 #@! TD*
G04 APERTURE END LIST*
D10*
X183515000Y-99695000D03*
X186055000Y-99695000D03*
X188595000Y-99695000D03*
X180975000Y-102235000D03*
X186055000Y-102235000D03*
X188595000Y-102235000D03*
X191135000Y-102235000D03*
X193675000Y-102235000D03*
X193675000Y-104775000D03*
X193675000Y-107315000D03*
X193675000Y-109855000D03*
X191135000Y-99695000D03*
X191135000Y-104775000D03*
X191135000Y-107315000D03*
X191135000Y-109855000D03*
X191135000Y-112395000D03*
X188595000Y-112395000D03*
X186055000Y-112395000D03*
X183515000Y-112395000D03*
X188595000Y-109855000D03*
X186055000Y-109855000D03*
X183515000Y-109855000D03*
X180975000Y-104775000D03*
X180975000Y-109855000D03*
X180975000Y-107315000D03*
X183515000Y-102235000D03*
X183515000Y-107315000D03*
D11*
X183515000Y-104775000D03*
D12*
X170815000Y-108585000D03*
D13*
X170815000Y-100965000D03*
X155575000Y-104775000D03*
X155575000Y-109775000D03*
D14*
X201295000Y-110290000D03*
X201295000Y-105410000D03*
D15*
X173355000Y-113665000D03*
X170815000Y-113665000D03*
D16*
X168275000Y-113665000D03*
D17*
X160020000Y-76537500D03*
X160020000Y-79037500D03*
X160020000Y-83546000D03*
X160020000Y-81046000D03*
X160020000Y-72029000D03*
X160020000Y-74529000D03*
D12*
X180975000Y-85725000D03*
D13*
X180975000Y-93345000D03*
X170735000Y-83820000D03*
X165735000Y-83820000D03*
D12*
X186055000Y-85725000D03*
X193675000Y-93345000D03*
X188595000Y-85725000D03*
X191135000Y-93345000D03*
X191135000Y-85725000D03*
X188595000Y-93345000D03*
X193675000Y-85725000D03*
D18*
X186055000Y-93345000D03*
D12*
X149225000Y-73660000D03*
D13*
X156845000Y-73660000D03*
D12*
X156845000Y-83185000D03*
D13*
X149225000Y-83185000D03*
D15*
X142875000Y-73660000D03*
D16*
X145415000Y-73660000D03*
D15*
X145415000Y-83185000D03*
D16*
X142875000Y-83185000D03*
G04 #@! TA.AperFunction,ComponentPad*
G36*
G01*
X132753982Y-80922820D02*
X133072180Y-81241018D01*
G75*
G02*
X133072180Y-82471384I-615183J-615183D01*
G01*
X133072180Y-82471384D01*
G75*
G02*
X131841814Y-82471384I-615183J615183D01*
G01*
X131523616Y-82153186D01*
G75*
G02*
X131523616Y-80922820I615183J615183D01*
G01*
X131523616Y-80922820D01*
G75*
G02*
X132753982Y-80922820I615183J-615183D01*
G01*
G37*
G04 #@! TD.AperFunction*
G04 #@! TA.AperFunction,ComponentPad*
G36*
G01*
X134550033Y-79126769D02*
X134868231Y-79444967D01*
G75*
G02*
X134868231Y-80675333I-615183J-615183D01*
G01*
X134868231Y-80675333D01*
G75*
G02*
X133637865Y-80675333I-615183J615183D01*
G01*
X133319667Y-80357135D01*
G75*
G02*
X133319667Y-79126769I615183J615183D01*
G01*
X133319667Y-79126769D01*
G75*
G02*
X134550033Y-79126769I615183J-615183D01*
G01*
G37*
G04 #@! TD.AperFunction*
G04 #@! TA.AperFunction,ComponentPad*
G36*
G01*
X135907677Y-76892311D02*
X137102689Y-78087323D01*
G75*
G02*
X137102689Y-78440875I-176776J-176776D01*
G01*
X136225875Y-79317689D01*
G75*
G02*
X135872323Y-79317689I-176776J176776D01*
G01*
X134677311Y-78122677D01*
G75*
G02*
X134677311Y-77769125I176776J176776D01*
G01*
X135554125Y-76892311D01*
G75*
G02*
X135907677Y-76892311I176776J-176776D01*
G01*
G37*
G04 #@! TD.AperFunction*
G04 #@! TA.AperFunction,ComponentPad*
G36*
G01*
X126403982Y-87272820D02*
X126722180Y-87591018D01*
G75*
G02*
X126722180Y-88821384I-615183J-615183D01*
G01*
X126722180Y-88821384D01*
G75*
G02*
X125491814Y-88821384I-615183J615183D01*
G01*
X125173616Y-88503186D01*
G75*
G02*
X125173616Y-87272820I615183J615183D01*
G01*
X125173616Y-87272820D01*
G75*
G02*
X126403982Y-87272820I615183J-615183D01*
G01*
G37*
G04 #@! TD.AperFunction*
G04 #@! TA.AperFunction,ComponentPad*
G36*
G01*
X128200033Y-85476769D02*
X128518231Y-85794967D01*
G75*
G02*
X128518231Y-87025333I-615183J-615183D01*
G01*
X128518231Y-87025333D01*
G75*
G02*
X127287865Y-87025333I-615183J615183D01*
G01*
X126969667Y-86707135D01*
G75*
G02*
X126969667Y-85476769I615183J615183D01*
G01*
X126969667Y-85476769D01*
G75*
G02*
X128200033Y-85476769I615183J-615183D01*
G01*
G37*
G04 #@! TD.AperFunction*
G04 #@! TA.AperFunction,ComponentPad*
G36*
G01*
X129557677Y-83242311D02*
X130752689Y-84437323D01*
G75*
G02*
X130752689Y-84790875I-176776J-176776D01*
G01*
X129875875Y-85667689D01*
G75*
G02*
X129522323Y-85667689I-176776J176776D01*
G01*
X128327311Y-84472677D01*
G75*
G02*
X128327311Y-84119125I176776J176776D01*
G01*
X129204125Y-83242311D01*
G75*
G02*
X129557677Y-83242311I176776J-176776D01*
G01*
G37*
G04 #@! TD.AperFunction*
D12*
X156845000Y-76835000D03*
D13*
X149225000Y-76835000D03*
D12*
X149225000Y-80010000D03*
D13*
X156845000Y-80010000D03*
D12*
X163195000Y-80010000D03*
D13*
X170815000Y-80010000D03*
D15*
X168275000Y-75565000D03*
D16*
X170815000Y-75565000D03*
D13*
X174625000Y-101045000D03*
X174625000Y-106045000D03*
X129540000Y-104855000D03*
X129540000Y-109855000D03*
D12*
X133985000Y-104775000D03*
X151765000Y-112395000D03*
X136525000Y-104775000D03*
X149225000Y-112395000D03*
X139065000Y-104775000D03*
X146685000Y-112395000D03*
X141605000Y-104775000D03*
X144145000Y-112395000D03*
X144145000Y-104775000D03*
X141605000Y-112395000D03*
X146685000Y-104775000D03*
X139065000Y-112395000D03*
X149225000Y-104775000D03*
X136525000Y-112395000D03*
X151765000Y-104775000D03*
D18*
X133985000Y-112395000D03*
D15*
X154305000Y-98425000D03*
X154305000Y-100965000D03*
X151765000Y-98425000D03*
X151765000Y-100965000D03*
X149225000Y-98425000D03*
X149225000Y-100965000D03*
X146685000Y-98425000D03*
X146685000Y-100965000D03*
X144145000Y-98425000D03*
X144145000Y-100965000D03*
X141605000Y-98425000D03*
X141605000Y-100965000D03*
X139065000Y-98425000D03*
X139065000Y-100965000D03*
X136525000Y-98425000D03*
D16*
X136525000Y-100965000D03*
D13*
X210740000Y-110490000D03*
X205740000Y-110490000D03*
X210740000Y-105410000D03*
X205740000Y-105410000D03*
D15*
X211455000Y-120015000D03*
X208915000Y-120015000D03*
X206375000Y-120015000D03*
X203835000Y-120015000D03*
X201295000Y-120015000D03*
X198755000Y-120015000D03*
X196215000Y-120015000D03*
X193675000Y-120015000D03*
X191135000Y-120015000D03*
X188595000Y-120015000D03*
X186055000Y-120015000D03*
X183515000Y-120015000D03*
X180975000Y-120015000D03*
X178435000Y-120015000D03*
X175895000Y-120015000D03*
X173355000Y-120015000D03*
X170815000Y-120015000D03*
X168275000Y-120015000D03*
X165735000Y-120015000D03*
X163195000Y-120015000D03*
X160655000Y-120015000D03*
X158115000Y-120015000D03*
X155575000Y-120015000D03*
X153035000Y-120015000D03*
X150495000Y-120015000D03*
X147955000Y-120015000D03*
X145415000Y-120015000D03*
X142875000Y-120015000D03*
X140335000Y-120015000D03*
X137795000Y-120015000D03*
X135255000Y-120015000D03*
X132715000Y-120015000D03*
X130175000Y-120015000D03*
X127635000Y-120015000D03*
X125095000Y-120015000D03*
X122555000Y-120015000D03*
X120015000Y-120015000D03*
X117475000Y-120015000D03*
D16*
X114935000Y-120015000D03*
D19*
X159389200Y-114935000D03*
D20*
X191135000Y-99695000D02*
X188595000Y-102235000D01*
X210740000Y-110490000D02*
X210740000Y-105410000D01*
X155575000Y-118710700D02*
X155575000Y-120015000D01*
X151765000Y-114935000D02*
X155575000Y-118710700D01*
X151765000Y-112395000D02*
X151765000Y-114935000D01*
X196850000Y-93980000D02*
X191135000Y-99695000D01*
D21*
X196850000Y-88900000D02*
X196850000Y-93980000D01*
D22*
X200660000Y-104775000D02*
X201295000Y-105410000D01*
X193675000Y-104775000D02*
X200660000Y-104775000D01*
X191135000Y-104775000D02*
X192226200Y-105866200D01*
X192226200Y-105866200D02*
X196871200Y-105866200D01*
X196871200Y-105866200D02*
X201295000Y-110290000D01*
X198755000Y-120015000D02*
X198755000Y-118812300D01*
X198755000Y-118812300D02*
X193675000Y-113732300D01*
X193675000Y-113732300D02*
X193675000Y-109855000D01*
X196215000Y-120015000D02*
X196215000Y-118812300D01*
X196215000Y-118812300D02*
X191135000Y-113732300D01*
X191135000Y-113732300D02*
X191135000Y-112395000D01*
X193675000Y-120015000D02*
X193675000Y-118812300D01*
X193675000Y-118812300D02*
X189865000Y-115002300D01*
X189865000Y-115002300D02*
X189865000Y-111125000D01*
X189865000Y-111125000D02*
X188595000Y-109855000D01*
X191135000Y-120015000D02*
X191135000Y-118812300D01*
X191135000Y-118812300D02*
X188595000Y-116272300D01*
X188595000Y-116272300D02*
X188595000Y-112395000D01*
X188595000Y-120015000D02*
X188595000Y-118812300D01*
X188595000Y-118812300D02*
X187392300Y-117609600D01*
X187392300Y-117609600D02*
X187392300Y-111192300D01*
X187392300Y-111192300D02*
X186055000Y-109855000D01*
X186055000Y-120015000D02*
X186055000Y-118812300D01*
X186055000Y-118812300D02*
X184852300Y-117609600D01*
X184852300Y-117609600D02*
X184852300Y-111192300D01*
X184852300Y-111192300D02*
X183515000Y-109855000D01*
X183515000Y-120015000D02*
X183515000Y-112395000D01*
X180975000Y-109855000D02*
X180975000Y-118812300D01*
X180975000Y-120015000D02*
X180975000Y-118812300D01*
X149725400Y-113665000D02*
X150495000Y-113030000D01*
X145415000Y-113665000D02*
X149725400Y-113665000D01*
X150495000Y-113030000D02*
X150495000Y-111760000D01*
X144145000Y-112395000D02*
X145415000Y-113665000D01*
X150495000Y-111760000D02*
X151130000Y-111125000D01*
X151130000Y-111125000D02*
X153035000Y-111125000D01*
X156845000Y-114935000D02*
X159389200Y-114935000D01*
X153035000Y-111125000D02*
X156845000Y-114935000D01*
X163195000Y-115191100D02*
X163195000Y-120015000D01*
X163195000Y-108585000D02*
X163195000Y-115191100D01*
X168275000Y-103505000D02*
X163195000Y-108585000D01*
X174625000Y-103505000D02*
X168275000Y-103505000D01*
X179705000Y-98425000D02*
X174625000Y-103505000D01*
X184785000Y-98425000D02*
X179705000Y-98425000D01*
X186055000Y-99695000D02*
X184785000Y-98425000D01*
X146685000Y-111242300D02*
X146685000Y-112395000D01*
X146953700Y-111242300D02*
X146685000Y-111242300D01*
X153097900Y-100457400D02*
X153097900Y-105098100D01*
X153793100Y-99762200D02*
X153097900Y-100457400D01*
X154846700Y-99762200D02*
X153793100Y-99762200D01*
X153097900Y-105098100D02*
X146953700Y-111242300D01*
X161925000Y-106680000D02*
X154846700Y-99762200D01*
X161925000Y-118745000D02*
X161925000Y-106680000D01*
X160655000Y-120015000D02*
X161925000Y-118745000D01*
D20*
X180975000Y-94615000D02*
X174625000Y-101045000D01*
X180975000Y-93345000D02*
X180975000Y-94615000D01*
X160655000Y-109855000D02*
X155575000Y-104775000D01*
X160655000Y-116205000D02*
X160655000Y-109855000D01*
X158115000Y-118710700D02*
X160655000Y-116205000D01*
X158115000Y-120015000D02*
X158115000Y-118710700D01*
D22*
X141605000Y-112395000D02*
X141605000Y-113547700D01*
X142875000Y-120015000D02*
X142875000Y-114817700D01*
X142875000Y-114817700D02*
X141605000Y-113547700D01*
X140335000Y-120015000D02*
X140335000Y-111760000D01*
X140335000Y-111760000D02*
X139700000Y-111125000D01*
X139700000Y-111125000D02*
X135255000Y-111125000D01*
X135255000Y-111125000D02*
X133985000Y-112395000D01*
X139065000Y-112395000D02*
X139065000Y-113547700D01*
X135255000Y-120015000D02*
X135255000Y-117357700D01*
X135255000Y-117357700D02*
X139065000Y-113547700D01*
X149225000Y-112395000D02*
X149225000Y-111242300D01*
X154305000Y-100965000D02*
X154305000Y-106162300D01*
X154305000Y-106162300D02*
X149225000Y-111242300D01*
X151765000Y-100965000D02*
X151765000Y-104775000D01*
X149225000Y-100965000D02*
X149225000Y-104775000D01*
X146685000Y-100965000D02*
X146685000Y-104775000D01*
X144145000Y-100965000D02*
X144145000Y-104775000D01*
X141605000Y-100965000D02*
X141605000Y-104775000D01*
X139065000Y-100965000D02*
X139065000Y-104775000D01*
X136525000Y-100965000D02*
X136525000Y-104775000D01*
X178435000Y-104775000D02*
X180975000Y-102235000D01*
X178435000Y-113030000D02*
X178435000Y-104775000D01*
X173355000Y-118110000D02*
X178435000Y-113030000D01*
X173355000Y-120015000D02*
X173355000Y-118110000D01*
X182245000Y-103505000D02*
X183515000Y-102235000D01*
X180340000Y-106045000D02*
X181610000Y-106045000D01*
X179705000Y-106680000D02*
X180340000Y-106045000D01*
X179705000Y-114300000D02*
X179705000Y-106680000D01*
X182245000Y-105410000D02*
X182245000Y-103505000D01*
X175895000Y-118110000D02*
X179705000Y-114300000D01*
X181610000Y-106045000D02*
X182245000Y-105410000D01*
X175895000Y-120015000D02*
X175895000Y-118110000D01*
X160020000Y-75565000D02*
X160020000Y-74529000D01*
X160020000Y-76537500D02*
X160020000Y-75565000D01*
X188595000Y-85725000D02*
X180975000Y-78105000D01*
X180975000Y-78105000D02*
X170815000Y-78105000D01*
X170815000Y-78105000D02*
X168275000Y-75565000D01*
X168275000Y-75565000D02*
X160020000Y-75565000D01*
X160020000Y-80010000D02*
X160020000Y-79037500D01*
X160020000Y-81046000D02*
X160020000Y-80010000D01*
X163195000Y-80010000D02*
X160020000Y-80010000D01*
X168275000Y-120015000D02*
X168275000Y-113665000D01*
X186055000Y-102235000D02*
X184974400Y-101154400D01*
X170815000Y-108585000D02*
X170815000Y-107315000D01*
X170815000Y-107315000D02*
X173990000Y-104140000D01*
X173990000Y-104140000D02*
X176530000Y-104140000D01*
X176530000Y-104140000D02*
X179705000Y-100965000D01*
X184785000Y-100965000D02*
X186055000Y-102235000D01*
X179705000Y-100965000D02*
X184785000Y-100965000D01*
X170815000Y-113665000D02*
X170815000Y-108585000D01*
D23*
X158989463Y-71174506D02*
X158930498Y-71284820D01*
X158894188Y-71404518D01*
X158881928Y-71529000D01*
X158885000Y-71743250D01*
X159043750Y-71902000D01*
X159893000Y-71902000D01*
X159893000Y-71882000D01*
X160147000Y-71882000D01*
X160147000Y-71902000D01*
X160996250Y-71902000D01*
X161155000Y-71743250D01*
X161158072Y-71529000D01*
X161145812Y-71404518D01*
X161109502Y-71284820D01*
X161050537Y-71174506D01*
X161026322Y-71145000D01*
X208250608Y-71145000D01*
X209062249Y-71217437D01*
X209819774Y-71424672D01*
X210528625Y-71762777D01*
X211166404Y-72221067D01*
X211712946Y-72785055D01*
X212150977Y-73436913D01*
X212466651Y-74156038D01*
X212651206Y-74924768D01*
X212700001Y-75589221D01*
X212700001Y-90678000D01*
X114325000Y-90678000D01*
X114325000Y-88044872D01*
X116510000Y-88044872D01*
X116510000Y-88485128D01*
X116595890Y-88916925D01*
X116764369Y-89323669D01*
X117008962Y-89689729D01*
X117320271Y-90001038D01*
X117686331Y-90245631D01*
X118093075Y-90414110D01*
X118524872Y-90500000D01*
X118965128Y-90500000D01*
X119396925Y-90414110D01*
X119803669Y-90245631D01*
X120169729Y-90001038D01*
X120481038Y-89689729D01*
X120725631Y-89323669D01*
X120821688Y-89091765D01*
X125082841Y-89091765D01*
X125140671Y-89369507D01*
X125386189Y-89535676D01*
X125659406Y-89650753D01*
X125949825Y-89710317D01*
X126246283Y-89712078D01*
X126537388Y-89655970D01*
X126811954Y-89544147D01*
X126885713Y-89494078D01*
X126964891Y-89243701D01*
X125947898Y-88226707D01*
X125082841Y-89091765D01*
X120821688Y-89091765D01*
X120894110Y-88916925D01*
X120980000Y-88485128D01*
X120980000Y-88044872D01*
X120921091Y-87748717D01*
X124282922Y-87748717D01*
X124284683Y-88045175D01*
X124344247Y-88335594D01*
X124459324Y-88608811D01*
X124625493Y-88854329D01*
X124903235Y-88912159D01*
X125768293Y-88047102D01*
X124751299Y-87030109D01*
X124500922Y-87109287D01*
X124450853Y-87183046D01*
X124339030Y-87457612D01*
X124282922Y-87748717D01*
X120921091Y-87748717D01*
X120894110Y-87613075D01*
X120725631Y-87206331D01*
X120487875Y-86850503D01*
X124930905Y-86850503D01*
X125947898Y-87867497D01*
X125962041Y-87853355D01*
X126141646Y-88032960D01*
X126127503Y-88047102D01*
X127144497Y-89064095D01*
X127394874Y-88984917D01*
X127444943Y-88911158D01*
X127556766Y-88636592D01*
X127612874Y-88345487D01*
X127611113Y-88049029D01*
X127577276Y-87884049D01*
X127608016Y-87893374D01*
X127903048Y-87922432D01*
X128198079Y-87893374D01*
X128481773Y-87807315D01*
X128743226Y-87667566D01*
X128972392Y-87479494D01*
X129160464Y-87250328D01*
X129300213Y-86988875D01*
X129386272Y-86705181D01*
X129415330Y-86410150D01*
X129407030Y-86325878D01*
X129525845Y-86361920D01*
X129699099Y-86378984D01*
X129872353Y-86361920D01*
X130038949Y-86311384D01*
X130192485Y-86229317D01*
X130327060Y-86118874D01*
X130862269Y-85583665D01*
X179540000Y-85583665D01*
X179540000Y-85866335D01*
X179595147Y-86143574D01*
X179703320Y-86404727D01*
X179860363Y-86639759D01*
X180060241Y-86839637D01*
X180295273Y-86996680D01*
X180556426Y-87104853D01*
X180833665Y-87160000D01*
X181116335Y-87160000D01*
X181393574Y-87104853D01*
X181654727Y-86996680D01*
X181889759Y-86839637D01*
X182089637Y-86639759D01*
X182246680Y-86404727D01*
X182354853Y-86143574D01*
X182410000Y-85866335D01*
X182410000Y-85583665D01*
X182354853Y-85306426D01*
X182246680Y-85045273D01*
X182089637Y-84810241D01*
X181889759Y-84610363D01*
X181654727Y-84453320D01*
X181393574Y-84345147D01*
X181116335Y-84290000D01*
X180833665Y-84290000D01*
X180556426Y-84345147D01*
X180295273Y-84453320D01*
X180060241Y-84610363D01*
X179860363Y-84810241D01*
X179703320Y-85045273D01*
X179595147Y-85306426D01*
X179540000Y-85583665D01*
X130862269Y-85583665D01*
X131203874Y-85242060D01*
X131314317Y-85107485D01*
X131396384Y-84953949D01*
X131439230Y-84812702D01*
X164921903Y-84812702D01*
X164993486Y-85056671D01*
X165248996Y-85177571D01*
X165523184Y-85246300D01*
X165805512Y-85260217D01*
X166085130Y-85218787D01*
X166351292Y-85123603D01*
X166476514Y-85056671D01*
X166548097Y-84812702D01*
X165735000Y-83999605D01*
X164921903Y-84812702D01*
X131439230Y-84812702D01*
X131446920Y-84787353D01*
X131463984Y-84614099D01*
X131446920Y-84440845D01*
X131396384Y-84274249D01*
X131314317Y-84120713D01*
X131203874Y-83986138D01*
X130008862Y-82791126D01*
X129948716Y-82741765D01*
X131432841Y-82741765D01*
X131490671Y-83019507D01*
X131736189Y-83185676D01*
X132009406Y-83300753D01*
X132299825Y-83360317D01*
X132596283Y-83362078D01*
X132887388Y-83305970D01*
X133161954Y-83194147D01*
X133235713Y-83144078D01*
X133314891Y-82893701D01*
X132297898Y-81876707D01*
X131432841Y-82741765D01*
X129948716Y-82741765D01*
X129874287Y-82680683D01*
X129720751Y-82598616D01*
X129554155Y-82548080D01*
X129380901Y-82531016D01*
X129207647Y-82548080D01*
X129041051Y-82598616D01*
X128887515Y-82680683D01*
X128752940Y-82791126D01*
X127876126Y-83667940D01*
X127765683Y-83802515D01*
X127683616Y-83956051D01*
X127633080Y-84122647D01*
X127616016Y-84295901D01*
X127633080Y-84469155D01*
X127669122Y-84587970D01*
X127584850Y-84579670D01*
X127289819Y-84608728D01*
X127006125Y-84694787D01*
X126744672Y-84834536D01*
X126515506Y-85022608D01*
X126327434Y-85251774D01*
X126187685Y-85513227D01*
X126101626Y-85796921D01*
X126072568Y-86091952D01*
X126101626Y-86386983D01*
X126110951Y-86417724D01*
X125945971Y-86383887D01*
X125649513Y-86382126D01*
X125358408Y-86438234D01*
X125083842Y-86550057D01*
X125010083Y-86600126D01*
X124930905Y-86850503D01*
X120487875Y-86850503D01*
X120481038Y-86840271D01*
X120169729Y-86528962D01*
X119803669Y-86284369D01*
X119396925Y-86115890D01*
X118965128Y-86030000D01*
X118524872Y-86030000D01*
X118093075Y-86115890D01*
X117686331Y-86284369D01*
X117320271Y-86528962D01*
X117008962Y-86840271D01*
X116764369Y-87206331D01*
X116595890Y-87613075D01*
X116510000Y-88044872D01*
X114325000Y-88044872D01*
X114325000Y-86625524D01*
X119342735Y-81398717D01*
X130632922Y-81398717D01*
X130634683Y-81695175D01*
X130694247Y-81985594D01*
X130809324Y-82258811D01*
X130975493Y-82504329D01*
X131253235Y-82562159D01*
X132118293Y-81697102D01*
X131101299Y-80680109D01*
X130850922Y-80759287D01*
X130800853Y-80833046D01*
X130689030Y-81107612D01*
X130632922Y-81398717D01*
X119342735Y-81398717D01*
X120205020Y-80500503D01*
X131280905Y-80500503D01*
X132297898Y-81517497D01*
X132312041Y-81503355D01*
X132491646Y-81682960D01*
X132477503Y-81697102D01*
X133494497Y-82714095D01*
X133744874Y-82634917D01*
X133794943Y-82561158D01*
X133887050Y-82335000D01*
X141386928Y-82335000D01*
X141386928Y-84035000D01*
X141399188Y-84159482D01*
X141435498Y-84279180D01*
X141494463Y-84389494D01*
X141573815Y-84486185D01*
X141670506Y-84565537D01*
X141780820Y-84624502D01*
X141900518Y-84660812D01*
X142025000Y-84673072D01*
X143725000Y-84673072D01*
X143849482Y-84660812D01*
X143969180Y-84624502D01*
X144079494Y-84565537D01*
X144176185Y-84486185D01*
X144255537Y-84389494D01*
X144314502Y-84279180D01*
X144336513Y-84206620D01*
X144468368Y-84338475D01*
X144711589Y-84500990D01*
X144981842Y-84612932D01*
X145268740Y-84670000D01*
X145561260Y-84670000D01*
X145848158Y-84612932D01*
X146118411Y-84500990D01*
X146361632Y-84338475D01*
X146568475Y-84131632D01*
X146730990Y-83888411D01*
X146842932Y-83618158D01*
X146900000Y-83331260D01*
X146900000Y-83043665D01*
X147790000Y-83043665D01*
X147790000Y-83326335D01*
X147845147Y-83603574D01*
X147953320Y-83864727D01*
X148110363Y-84099759D01*
X148310241Y-84299637D01*
X148545273Y-84456680D01*
X148806426Y-84564853D01*
X149083665Y-84620000D01*
X149366335Y-84620000D01*
X149643574Y-84564853D01*
X149904727Y-84456680D01*
X150139759Y-84299637D01*
X150339637Y-84099759D01*
X150496680Y-83864727D01*
X150604853Y-83603574D01*
X150660000Y-83326335D01*
X150660000Y-83043665D01*
X155410000Y-83043665D01*
X155410000Y-83326335D01*
X155465147Y-83603574D01*
X155573320Y-83864727D01*
X155730363Y-84099759D01*
X155930241Y-84299637D01*
X156165273Y-84456680D01*
X156426426Y-84564853D01*
X156703665Y-84620000D01*
X156986335Y-84620000D01*
X157263574Y-84564853D01*
X157524727Y-84456680D01*
X157759759Y-84299637D01*
X157959637Y-84099759D01*
X157995557Y-84046000D01*
X158881928Y-84046000D01*
X158894188Y-84170482D01*
X158930498Y-84290180D01*
X158989463Y-84400494D01*
X159068815Y-84497185D01*
X159165506Y-84576537D01*
X159275820Y-84635502D01*
X159395518Y-84671812D01*
X159520000Y-84684072D01*
X159734250Y-84681000D01*
X159893000Y-84522250D01*
X159893000Y-83673000D01*
X160147000Y-83673000D01*
X160147000Y-84522250D01*
X160305750Y-84681000D01*
X160520000Y-84684072D01*
X160644482Y-84671812D01*
X160764180Y-84635502D01*
X160874494Y-84576537D01*
X160971185Y-84497185D01*
X161050537Y-84400494D01*
X161109502Y-84290180D01*
X161145812Y-84170482D01*
X161158072Y-84046000D01*
X161155843Y-83890512D01*
X164294783Y-83890512D01*
X164336213Y-84170130D01*
X164431397Y-84436292D01*
X164498329Y-84561514D01*
X164742298Y-84633097D01*
X165555395Y-83820000D01*
X165914605Y-83820000D01*
X166727702Y-84633097D01*
X166971671Y-84561514D01*
X167092571Y-84306004D01*
X167161300Y-84031816D01*
X167175217Y-83749488D01*
X167164724Y-83678665D01*
X169300000Y-83678665D01*
X169300000Y-83961335D01*
X169355147Y-84238574D01*
X169463320Y-84499727D01*
X169620363Y-84734759D01*
X169820241Y-84934637D01*
X170055273Y-85091680D01*
X170316426Y-85199853D01*
X170593665Y-85255000D01*
X170876335Y-85255000D01*
X171153574Y-85199853D01*
X171414727Y-85091680D01*
X171649759Y-84934637D01*
X171849637Y-84734759D01*
X172006680Y-84499727D01*
X172114853Y-84238574D01*
X172170000Y-83961335D01*
X172170000Y-83678665D01*
X172114853Y-83401426D01*
X172006680Y-83140273D01*
X171849637Y-82905241D01*
X171649759Y-82705363D01*
X171414727Y-82548320D01*
X171153574Y-82440147D01*
X170876335Y-82385000D01*
X170593665Y-82385000D01*
X170316426Y-82440147D01*
X170055273Y-82548320D01*
X169820241Y-82705363D01*
X169620363Y-82905241D01*
X169463320Y-83140273D01*
X169355147Y-83401426D01*
X169300000Y-83678665D01*
X167164724Y-83678665D01*
X167133787Y-83469870D01*
X167038603Y-83203708D01*
X166971671Y-83078486D01*
X166727702Y-83006903D01*
X165914605Y-83820000D01*
X165555395Y-83820000D01*
X164742298Y-83006903D01*
X164498329Y-83078486D01*
X164377429Y-83333996D01*
X164308700Y-83608184D01*
X164294783Y-83890512D01*
X161155843Y-83890512D01*
X161155000Y-83831750D01*
X160996250Y-83673000D01*
X160147000Y-83673000D01*
X159893000Y-83673000D01*
X159043750Y-83673000D01*
X158885000Y-83831750D01*
X158881928Y-84046000D01*
X157995557Y-84046000D01*
X158116680Y-83864727D01*
X158224853Y-83603574D01*
X158280000Y-83326335D01*
X158280000Y-83046000D01*
X158881928Y-83046000D01*
X158885000Y-83260250D01*
X159043750Y-83419000D01*
X159893000Y-83419000D01*
X159893000Y-82569750D01*
X160147000Y-82569750D01*
X160147000Y-83419000D01*
X160996250Y-83419000D01*
X161155000Y-83260250D01*
X161158072Y-83046000D01*
X161145812Y-82921518D01*
X161117231Y-82827298D01*
X164921903Y-82827298D01*
X165735000Y-83640395D01*
X166548097Y-82827298D01*
X166476514Y-82583329D01*
X166221004Y-82462429D01*
X165946816Y-82393700D01*
X165664488Y-82379783D01*
X165384870Y-82421213D01*
X165118708Y-82516397D01*
X164993486Y-82583329D01*
X164921903Y-82827298D01*
X161117231Y-82827298D01*
X161109502Y-82801820D01*
X161050537Y-82691506D01*
X160971185Y-82594815D01*
X160874494Y-82515463D01*
X160764180Y-82456498D01*
X160644482Y-82420188D01*
X160520000Y-82407928D01*
X160305750Y-82411000D01*
X160147000Y-82569750D01*
X159893000Y-82569750D01*
X159734250Y-82411000D01*
X159520000Y-82407928D01*
X159395518Y-82420188D01*
X159275820Y-82456498D01*
X159165506Y-82515463D01*
X159068815Y-82594815D01*
X158989463Y-82691506D01*
X158930498Y-82801820D01*
X158894188Y-82921518D01*
X158881928Y-83046000D01*
X158280000Y-83046000D01*
X158280000Y-83043665D01*
X158224853Y-82766426D01*
X158116680Y-82505273D01*
X157959637Y-82270241D01*
X157759759Y-82070363D01*
X157524727Y-81913320D01*
X157263574Y-81805147D01*
X156986335Y-81750000D01*
X156703665Y-81750000D01*
X156426426Y-81805147D01*
X156165273Y-81913320D01*
X155930241Y-82070363D01*
X155730363Y-82270241D01*
X155573320Y-82505273D01*
X155465147Y-82766426D01*
X155410000Y-83043665D01*
X150660000Y-83043665D01*
X150604853Y-82766426D01*
X150496680Y-82505273D01*
X150339637Y-82270241D01*
X150139759Y-82070363D01*
X149904727Y-81913320D01*
X149643574Y-81805147D01*
X149366335Y-81750000D01*
X149083665Y-81750000D01*
X148806426Y-81805147D01*
X148545273Y-81913320D01*
X148310241Y-82070363D01*
X148110363Y-82270241D01*
X147953320Y-82505273D01*
X147845147Y-82766426D01*
X147790000Y-83043665D01*
X146900000Y-83043665D01*
X146900000Y-83038740D01*
X146842932Y-82751842D01*
X146730990Y-82481589D01*
X146568475Y-82238368D01*
X146361632Y-82031525D01*
X146118411Y-81869010D01*
X145848158Y-81757068D01*
X145561260Y-81700000D01*
X145268740Y-81700000D01*
X144981842Y-81757068D01*
X144711589Y-81869010D01*
X144468368Y-82031525D01*
X144336513Y-82163380D01*
X144314502Y-82090820D01*
X144255537Y-81980506D01*
X144176185Y-81883815D01*
X144079494Y-81804463D01*
X143969180Y-81745498D01*
X143849482Y-81709188D01*
X143725000Y-81696928D01*
X142025000Y-81696928D01*
X141900518Y-81709188D01*
X141780820Y-81745498D01*
X141670506Y-81804463D01*
X141573815Y-81883815D01*
X141494463Y-81980506D01*
X141435498Y-82090820D01*
X141399188Y-82210518D01*
X141386928Y-82335000D01*
X133887050Y-82335000D01*
X133906766Y-82286592D01*
X133962874Y-81995487D01*
X133961113Y-81699029D01*
X133927276Y-81534049D01*
X133958016Y-81543374D01*
X134253048Y-81572432D01*
X134548079Y-81543374D01*
X134831773Y-81457315D01*
X135093226Y-81317566D01*
X135322392Y-81129494D01*
X135510464Y-80900328D01*
X135650213Y-80638875D01*
X135736272Y-80355181D01*
X135765330Y-80060150D01*
X135757030Y-79975878D01*
X135875845Y-80011920D01*
X136049099Y-80028984D01*
X136222353Y-80011920D01*
X136388949Y-79961384D01*
X136542485Y-79879317D01*
X136555464Y-79868665D01*
X147790000Y-79868665D01*
X147790000Y-80151335D01*
X147845147Y-80428574D01*
X147953320Y-80689727D01*
X148110363Y-80924759D01*
X148310241Y-81124637D01*
X148545273Y-81281680D01*
X148806426Y-81389853D01*
X149083665Y-81445000D01*
X149366335Y-81445000D01*
X149643574Y-81389853D01*
X149904727Y-81281680D01*
X150139759Y-81124637D01*
X150339637Y-80924759D01*
X150496680Y-80689727D01*
X150604853Y-80428574D01*
X150660000Y-80151335D01*
X150660000Y-79868665D01*
X155410000Y-79868665D01*
X155410000Y-80151335D01*
X155465147Y-80428574D01*
X155573320Y-80689727D01*
X155730363Y-80924759D01*
X155930241Y-81124637D01*
X156165273Y-81281680D01*
X156426426Y-81389853D01*
X156703665Y-81445000D01*
X156986335Y-81445000D01*
X157263574Y-81389853D01*
X157524727Y-81281680D01*
X157759759Y-81124637D01*
X157959637Y-80924759D01*
X158116680Y-80689727D01*
X158224853Y-80428574D01*
X158280000Y-80151335D01*
X158280000Y-79868665D01*
X158224853Y-79591426D01*
X158116680Y-79330273D01*
X157959637Y-79095241D01*
X157759759Y-78895363D01*
X157524727Y-78738320D01*
X157263574Y-78630147D01*
X156986335Y-78575000D01*
X156703665Y-78575000D01*
X156426426Y-78630147D01*
X156165273Y-78738320D01*
X155930241Y-78895363D01*
X155730363Y-79095241D01*
X155573320Y-79330273D01*
X155465147Y-79591426D01*
X155410000Y-79868665D01*
X150660000Y-79868665D01*
X150604853Y-79591426D01*
X150496680Y-79330273D01*
X150339637Y-79095241D01*
X150139759Y-78895363D01*
X149904727Y-78738320D01*
X149643574Y-78630147D01*
X149366335Y-78575000D01*
X149083665Y-78575000D01*
X148806426Y-78630147D01*
X148545273Y-78738320D01*
X148310241Y-78895363D01*
X148110363Y-79095241D01*
X147953320Y-79330273D01*
X147845147Y-79591426D01*
X147790000Y-79868665D01*
X136555464Y-79868665D01*
X136677060Y-79768874D01*
X137553874Y-78892060D01*
X137664317Y-78757485D01*
X137746384Y-78603949D01*
X137766540Y-78537500D01*
X158881928Y-78537500D01*
X158881928Y-79537500D01*
X158894188Y-79661982D01*
X158930498Y-79781680D01*
X158989463Y-79891994D01*
X159068815Y-79988685D01*
X159133475Y-80041750D01*
X159068815Y-80094815D01*
X158989463Y-80191506D01*
X158930498Y-80301820D01*
X158894188Y-80421518D01*
X158881928Y-80546000D01*
X158881928Y-81546000D01*
X158894188Y-81670482D01*
X158930498Y-81790180D01*
X158989463Y-81900494D01*
X159068815Y-81997185D01*
X159165506Y-82076537D01*
X159275820Y-82135502D01*
X159395518Y-82171812D01*
X159520000Y-82184072D01*
X160520000Y-82184072D01*
X160644482Y-82171812D01*
X160764180Y-82135502D01*
X160874494Y-82076537D01*
X160971185Y-81997185D01*
X161050537Y-81900494D01*
X161109502Y-81790180D01*
X161145812Y-81670482D01*
X161158072Y-81546000D01*
X161158072Y-80797400D01*
X161995265Y-80797400D01*
X162080363Y-80924759D01*
X162280241Y-81124637D01*
X162515273Y-81281680D01*
X162776426Y-81389853D01*
X163053665Y-81445000D01*
X163336335Y-81445000D01*
X163613574Y-81389853D01*
X163874727Y-81281680D01*
X164109759Y-81124637D01*
X164309637Y-80924759D01*
X164466680Y-80689727D01*
X164574853Y-80428574D01*
X164630000Y-80151335D01*
X164630000Y-79868665D01*
X164574853Y-79591426D01*
X164466680Y-79330273D01*
X164309637Y-79095241D01*
X164109759Y-78895363D01*
X163874727Y-78738320D01*
X163613574Y-78630147D01*
X163336335Y-78575000D01*
X163053665Y-78575000D01*
X162776426Y-78630147D01*
X162515273Y-78738320D01*
X162280241Y-78895363D01*
X162080363Y-79095241D01*
X161995265Y-79222600D01*
X161158072Y-79222600D01*
X161158072Y-78537500D01*
X161145812Y-78413018D01*
X161109502Y-78293320D01*
X161050537Y-78183006D01*
X160971185Y-78086315D01*
X160874494Y-78006963D01*
X160764180Y-77947998D01*
X160644482Y-77911688D01*
X160520000Y-77899428D01*
X159520000Y-77899428D01*
X159395518Y-77911688D01*
X159275820Y-77947998D01*
X159165506Y-78006963D01*
X159068815Y-78086315D01*
X158989463Y-78183006D01*
X158930498Y-78293320D01*
X158894188Y-78413018D01*
X158881928Y-78537500D01*
X137766540Y-78537500D01*
X137796920Y-78437353D01*
X137813984Y-78264099D01*
X137796920Y-78090845D01*
X137746384Y-77924249D01*
X137664317Y-77770713D01*
X137553874Y-77636138D01*
X136611401Y-76693665D01*
X147790000Y-76693665D01*
X147790000Y-76976335D01*
X147845147Y-77253574D01*
X147953320Y-77514727D01*
X148110363Y-77749759D01*
X148310241Y-77949637D01*
X148545273Y-78106680D01*
X148806426Y-78214853D01*
X149083665Y-78270000D01*
X149366335Y-78270000D01*
X149643574Y-78214853D01*
X149904727Y-78106680D01*
X150139759Y-77949637D01*
X150339637Y-77749759D01*
X150496680Y-77514727D01*
X150604853Y-77253574D01*
X150660000Y-76976335D01*
X150660000Y-76693665D01*
X155410000Y-76693665D01*
X155410000Y-76976335D01*
X155465147Y-77253574D01*
X155573320Y-77514727D01*
X155730363Y-77749759D01*
X155930241Y-77949637D01*
X156165273Y-78106680D01*
X156426426Y-78214853D01*
X156703665Y-78270000D01*
X156986335Y-78270000D01*
X157263574Y-78214853D01*
X157524727Y-78106680D01*
X157759759Y-77949637D01*
X157959637Y-77749759D01*
X158116680Y-77514727D01*
X158224853Y-77253574D01*
X158280000Y-76976335D01*
X158280000Y-76693665D01*
X158224853Y-76416426D01*
X158116680Y-76155273D01*
X157959637Y-75920241D01*
X157759759Y-75720363D01*
X157524727Y-75563320D01*
X157263574Y-75455147D01*
X156986335Y-75400000D01*
X156703665Y-75400000D01*
X156426426Y-75455147D01*
X156165273Y-75563320D01*
X155930241Y-75720363D01*
X155730363Y-75920241D01*
X155573320Y-76155273D01*
X155465147Y-76416426D01*
X155410000Y-76693665D01*
X150660000Y-76693665D01*
X150604853Y-76416426D01*
X150496680Y-76155273D01*
X150339637Y-75920241D01*
X150139759Y-75720363D01*
X149904727Y-75563320D01*
X149643574Y-75455147D01*
X149366335Y-75400000D01*
X149083665Y-75400000D01*
X148806426Y-75455147D01*
X148545273Y-75563320D01*
X148310241Y-75720363D01*
X148110363Y-75920241D01*
X147953320Y-76155273D01*
X147845147Y-76416426D01*
X147790000Y-76693665D01*
X136611401Y-76693665D01*
X136358862Y-76441126D01*
X136224287Y-76330683D01*
X136070751Y-76248616D01*
X135904155Y-76198080D01*
X135730901Y-76181016D01*
X135557647Y-76198080D01*
X135391051Y-76248616D01*
X135237515Y-76330683D01*
X135102940Y-76441126D01*
X134226126Y-77317940D01*
X134115683Y-77452515D01*
X134033616Y-77606051D01*
X133983080Y-77772647D01*
X133966016Y-77945901D01*
X133983080Y-78119155D01*
X134019122Y-78237970D01*
X133934850Y-78229670D01*
X133639819Y-78258728D01*
X133356125Y-78344787D01*
X133094672Y-78484536D01*
X132865506Y-78672608D01*
X132677434Y-78901774D01*
X132537685Y-79163227D01*
X132451626Y-79446921D01*
X132422568Y-79741952D01*
X132451626Y-80036983D01*
X132460951Y-80067724D01*
X132295971Y-80033887D01*
X131999513Y-80032126D01*
X131708408Y-80088234D01*
X131433842Y-80200057D01*
X131360083Y-80250126D01*
X131280905Y-80500503D01*
X120205020Y-80500503D01*
X126429288Y-74016891D01*
X141433519Y-74016891D01*
X141530843Y-74291252D01*
X141679822Y-74541355D01*
X141874731Y-74757588D01*
X142108080Y-74931641D01*
X142370901Y-75056825D01*
X142518110Y-75101476D01*
X142748000Y-74980155D01*
X142748000Y-73787000D01*
X141554186Y-73787000D01*
X141433519Y-74016891D01*
X126429288Y-74016891D01*
X127114518Y-73303109D01*
X141433519Y-73303109D01*
X141554186Y-73533000D01*
X142748000Y-73533000D01*
X142748000Y-72339845D01*
X143002000Y-72339845D01*
X143002000Y-73533000D01*
X143022000Y-73533000D01*
X143022000Y-73787000D01*
X143002000Y-73787000D01*
X143002000Y-74980155D01*
X143231890Y-75101476D01*
X143379099Y-75056825D01*
X143641920Y-74931641D01*
X143875269Y-74757588D01*
X143951034Y-74673534D01*
X143975498Y-74754180D01*
X144034463Y-74864494D01*
X144113815Y-74961185D01*
X144210506Y-75040537D01*
X144320820Y-75099502D01*
X144440518Y-75135812D01*
X144565000Y-75148072D01*
X146265000Y-75148072D01*
X146389482Y-75135812D01*
X146509180Y-75099502D01*
X146619494Y-75040537D01*
X146716185Y-74961185D01*
X146795537Y-74864494D01*
X146854502Y-74754180D01*
X146890812Y-74634482D01*
X146903072Y-74510000D01*
X146903072Y-73518665D01*
X147790000Y-73518665D01*
X147790000Y-73801335D01*
X147845147Y-74078574D01*
X147953320Y-74339727D01*
X148110363Y-74574759D01*
X148310241Y-74774637D01*
X148545273Y-74931680D01*
X148806426Y-75039853D01*
X149083665Y-75095000D01*
X149366335Y-75095000D01*
X149643574Y-75039853D01*
X149904727Y-74931680D01*
X150139759Y-74774637D01*
X150339637Y-74574759D01*
X150496680Y-74339727D01*
X150604853Y-74078574D01*
X150660000Y-73801335D01*
X150660000Y-73518665D01*
X155410000Y-73518665D01*
X155410000Y-73801335D01*
X155465147Y-74078574D01*
X155573320Y-74339727D01*
X155730363Y-74574759D01*
X155930241Y-74774637D01*
X156165273Y-74931680D01*
X156426426Y-75039853D01*
X156703665Y-75095000D01*
X156986335Y-75095000D01*
X157263574Y-75039853D01*
X157524727Y-74931680D01*
X157759759Y-74774637D01*
X157959637Y-74574759D01*
X158116680Y-74339727D01*
X158224853Y-74078574D01*
X158234714Y-74029000D01*
X158881928Y-74029000D01*
X158881928Y-75029000D01*
X158894188Y-75153482D01*
X158930498Y-75273180D01*
X158989463Y-75383494D01*
X159068815Y-75480185D01*
X159133475Y-75533250D01*
X159068815Y-75586315D01*
X158989463Y-75683006D01*
X158930498Y-75793320D01*
X158894188Y-75913018D01*
X158881928Y-76037500D01*
X158881928Y-77037500D01*
X158894188Y-77161982D01*
X158930498Y-77281680D01*
X158989463Y-77391994D01*
X159068815Y-77488685D01*
X159165506Y-77568037D01*
X159275820Y-77627002D01*
X159395518Y-77663312D01*
X159520000Y-77675572D01*
X160520000Y-77675572D01*
X160644482Y-77663312D01*
X160764180Y-77627002D01*
X160874494Y-77568037D01*
X160971185Y-77488685D01*
X161050537Y-77391994D01*
X161109502Y-77281680D01*
X161145812Y-77161982D01*
X161158072Y-77037500D01*
X161158072Y-76352400D01*
X167015130Y-76352400D01*
X167121525Y-76511632D01*
X167328368Y-76718475D01*
X167571589Y-76880990D01*
X167841842Y-76992932D01*
X168128740Y-77050000D01*
X168421260Y-77050000D01*
X168609088Y-77012638D01*
X170230881Y-78634433D01*
X170255531Y-78664469D01*
X170274997Y-78680444D01*
X170135273Y-78738320D01*
X169900241Y-78895363D01*
X169700363Y-79095241D01*
X169543320Y-79330273D01*
X169435147Y-79591426D01*
X169380000Y-79868665D01*
X169380000Y-80151335D01*
X169435147Y-80428574D01*
X169543320Y-80689727D01*
X169700363Y-80924759D01*
X169900241Y-81124637D01*
X170135273Y-81281680D01*
X170396426Y-81389853D01*
X170673665Y-81445000D01*
X170956335Y-81445000D01*
X171233574Y-81389853D01*
X171494727Y-81281680D01*
X171729759Y-81124637D01*
X171929637Y-80924759D01*
X172086680Y-80689727D01*
X172194853Y-80428574D01*
X172250000Y-80151335D01*
X172250000Y-79868665D01*
X172194853Y-79591426D01*
X172086680Y-79330273D01*
X171929637Y-79095241D01*
X171729759Y-78895363D01*
X171725325Y-78892400D01*
X180648850Y-78892400D01*
X186046449Y-84290000D01*
X185913665Y-84290000D01*
X185636426Y-84345147D01*
X185375273Y-84453320D01*
X185140241Y-84610363D01*
X184940363Y-84810241D01*
X184783320Y-85045273D01*
X184675147Y-85306426D01*
X184620000Y-85583665D01*
X184620000Y-85866335D01*
X184675147Y-86143574D01*
X184783320Y-86404727D01*
X184940363Y-86639759D01*
X185140241Y-86839637D01*
X185375273Y-86996680D01*
X185636426Y-87104853D01*
X185913665Y-87160000D01*
X186196335Y-87160000D01*
X186473574Y-87104853D01*
X186734727Y-86996680D01*
X186969759Y-86839637D01*
X187169637Y-86639759D01*
X187325000Y-86407241D01*
X187480363Y-86639759D01*
X187680241Y-86839637D01*
X187915273Y-86996680D01*
X188176426Y-87104853D01*
X188453665Y-87160000D01*
X188736335Y-87160000D01*
X189013574Y-87104853D01*
X189274727Y-86996680D01*
X189509759Y-86839637D01*
X189709637Y-86639759D01*
X189865000Y-86407241D01*
X190020363Y-86639759D01*
X190220241Y-86839637D01*
X190455273Y-86996680D01*
X190716426Y-87104853D01*
X190993665Y-87160000D01*
X191276335Y-87160000D01*
X191553574Y-87104853D01*
X191814727Y-86996680D01*
X192049759Y-86839637D01*
X192249637Y-86639759D01*
X192406680Y-86404727D01*
X192411067Y-86394135D01*
X192522615Y-86580131D01*
X192711586Y-86788519D01*
X192937580Y-86956037D01*
X193191913Y-87076246D01*
X193325961Y-87116904D01*
X193548000Y-86994915D01*
X193548000Y-85852000D01*
X193802000Y-85852000D01*
X193802000Y-86994915D01*
X194024039Y-87116904D01*
X194158087Y-87076246D01*
X194412420Y-86956037D01*
X194638414Y-86788519D01*
X194827385Y-86580131D01*
X194972070Y-86338881D01*
X195066909Y-86074040D01*
X194945624Y-85852000D01*
X193802000Y-85852000D01*
X193548000Y-85852000D01*
X193528000Y-85852000D01*
X193528000Y-85598000D01*
X193548000Y-85598000D01*
X193548000Y-84455085D01*
X193802000Y-84455085D01*
X193802000Y-85598000D01*
X194945624Y-85598000D01*
X195066909Y-85375960D01*
X194972070Y-85111119D01*
X194827385Y-84869869D01*
X194638414Y-84661481D01*
X194412420Y-84493963D01*
X194158087Y-84373754D01*
X194024039Y-84333096D01*
X193802000Y-84455085D01*
X193548000Y-84455085D01*
X193325961Y-84333096D01*
X193191913Y-84373754D01*
X192937580Y-84493963D01*
X192711586Y-84661481D01*
X192522615Y-84869869D01*
X192411067Y-85055865D01*
X192406680Y-85045273D01*
X192249637Y-84810241D01*
X192049759Y-84610363D01*
X191814727Y-84453320D01*
X191553574Y-84345147D01*
X191276335Y-84290000D01*
X190993665Y-84290000D01*
X190716426Y-84345147D01*
X190455273Y-84453320D01*
X190220241Y-84610363D01*
X190020363Y-84810241D01*
X189865000Y-85042759D01*
X189709637Y-84810241D01*
X189509759Y-84610363D01*
X189274727Y-84453320D01*
X189013574Y-84345147D01*
X188736335Y-84290000D01*
X188453665Y-84290000D01*
X188303435Y-84319883D01*
X181559128Y-77575578D01*
X181534469Y-77545531D01*
X181414572Y-77447134D01*
X181277783Y-77374018D01*
X181129357Y-77328994D01*
X181013673Y-77317600D01*
X181013663Y-77317600D01*
X180975000Y-77313792D01*
X180936337Y-77317600D01*
X171141152Y-77317600D01*
X170876624Y-77053072D01*
X171665000Y-77053072D01*
X171789482Y-77040812D01*
X171909180Y-77004502D01*
X172019494Y-76945537D01*
X172116185Y-76866185D01*
X172195537Y-76769494D01*
X172254502Y-76659180D01*
X172290812Y-76539482D01*
X172303072Y-76415000D01*
X172303072Y-74715000D01*
X172290812Y-74590518D01*
X172254502Y-74470820D01*
X172195537Y-74360506D01*
X172116185Y-74263815D01*
X172019494Y-74184463D01*
X171909180Y-74125498D01*
X171789482Y-74089188D01*
X171665000Y-74076928D01*
X169965000Y-74076928D01*
X169840518Y-74089188D01*
X169720820Y-74125498D01*
X169610506Y-74184463D01*
X169513815Y-74263815D01*
X169434463Y-74360506D01*
X169375498Y-74470820D01*
X169353487Y-74543380D01*
X169221632Y-74411525D01*
X168978411Y-74249010D01*
X168708158Y-74137068D01*
X168421260Y-74080000D01*
X168128740Y-74080000D01*
X167841842Y-74137068D01*
X167571589Y-74249010D01*
X167328368Y-74411525D01*
X167121525Y-74618368D01*
X167015130Y-74777600D01*
X161158072Y-74777600D01*
X161158072Y-74029000D01*
X161145812Y-73904518D01*
X161109502Y-73784820D01*
X161050537Y-73674506D01*
X160971185Y-73577815D01*
X160874494Y-73498463D01*
X160764180Y-73439498D01*
X160644482Y-73403188D01*
X160520000Y-73390928D01*
X159520000Y-73390928D01*
X159395518Y-73403188D01*
X159275820Y-73439498D01*
X159165506Y-73498463D01*
X159068815Y-73577815D01*
X158989463Y-73674506D01*
X158930498Y-73784820D01*
X158894188Y-73904518D01*
X158881928Y-74029000D01*
X158234714Y-74029000D01*
X158280000Y-73801335D01*
X158280000Y-73518665D01*
X158224853Y-73241426D01*
X158116680Y-72980273D01*
X157959637Y-72745241D01*
X157759759Y-72545363D01*
X157735270Y-72529000D01*
X158881928Y-72529000D01*
X158894188Y-72653482D01*
X158930498Y-72773180D01*
X158989463Y-72883494D01*
X159068815Y-72980185D01*
X159165506Y-73059537D01*
X159275820Y-73118502D01*
X159395518Y-73154812D01*
X159520000Y-73167072D01*
X159734250Y-73164000D01*
X159893000Y-73005250D01*
X159893000Y-72156000D01*
X160147000Y-72156000D01*
X160147000Y-73005250D01*
X160305750Y-73164000D01*
X160520000Y-73167072D01*
X160644482Y-73154812D01*
X160764180Y-73118502D01*
X160874494Y-73059537D01*
X160971185Y-72980185D01*
X161050537Y-72883494D01*
X161109502Y-72773180D01*
X161145812Y-72653482D01*
X161158072Y-72529000D01*
X161155000Y-72314750D01*
X160996250Y-72156000D01*
X160147000Y-72156000D01*
X159893000Y-72156000D01*
X159043750Y-72156000D01*
X158885000Y-72314750D01*
X158881928Y-72529000D01*
X157735270Y-72529000D01*
X157524727Y-72388320D01*
X157263574Y-72280147D01*
X156986335Y-72225000D01*
X156703665Y-72225000D01*
X156426426Y-72280147D01*
X156165273Y-72388320D01*
X155930241Y-72545363D01*
X155730363Y-72745241D01*
X155573320Y-72980273D01*
X155465147Y-73241426D01*
X155410000Y-73518665D01*
X150660000Y-73518665D01*
X150604853Y-73241426D01*
X150496680Y-72980273D01*
X150339637Y-72745241D01*
X150139759Y-72545363D01*
X149904727Y-72388320D01*
X149643574Y-72280147D01*
X149366335Y-72225000D01*
X149083665Y-72225000D01*
X148806426Y-72280147D01*
X148545273Y-72388320D01*
X148310241Y-72545363D01*
X148110363Y-72745241D01*
X147953320Y-72980273D01*
X147845147Y-73241426D01*
X147790000Y-73518665D01*
X146903072Y-73518665D01*
X146903072Y-72810000D01*
X146890812Y-72685518D01*
X146854502Y-72565820D01*
X146795537Y-72455506D01*
X146716185Y-72358815D01*
X146619494Y-72279463D01*
X146509180Y-72220498D01*
X146389482Y-72184188D01*
X146265000Y-72171928D01*
X144565000Y-72171928D01*
X144440518Y-72184188D01*
X144320820Y-72220498D01*
X144210506Y-72279463D01*
X144113815Y-72358815D01*
X144034463Y-72455506D01*
X143975498Y-72565820D01*
X143951034Y-72646466D01*
X143875269Y-72562412D01*
X143641920Y-72388359D01*
X143379099Y-72263175D01*
X143231890Y-72218524D01*
X143002000Y-72339845D01*
X142748000Y-72339845D01*
X142518110Y-72218524D01*
X142370901Y-72263175D01*
X142108080Y-72388359D01*
X141874731Y-72562412D01*
X141679822Y-72778645D01*
X141530843Y-73028748D01*
X141433519Y-73303109D01*
X127114518Y-73303109D01*
X129186304Y-71145000D01*
X159013678Y-71145000D01*
X158989463Y-71174506D01*
G04 #@! TA.AperFunction,Conductor*
D24*
G36*
X158989463Y-71174506D02*
G01*
X158930498Y-71284820D01*
X158894188Y-71404518D01*
X158881928Y-71529000D01*
X158885000Y-71743250D01*
X159043750Y-71902000D01*
X159893000Y-71902000D01*
X159893000Y-71882000D01*
X160147000Y-71882000D01*
X160147000Y-71902000D01*
X160996250Y-71902000D01*
X161155000Y-71743250D01*
X161158072Y-71529000D01*
X161145812Y-71404518D01*
X161109502Y-71284820D01*
X161050537Y-71174506D01*
X161026322Y-71145000D01*
X208250608Y-71145000D01*
X209062249Y-71217437D01*
X209819774Y-71424672D01*
X210528625Y-71762777D01*
X211166404Y-72221067D01*
X211712946Y-72785055D01*
X212150977Y-73436913D01*
X212466651Y-74156038D01*
X212651206Y-74924768D01*
X212700001Y-75589221D01*
X212700001Y-90678000D01*
X114325000Y-90678000D01*
X114325000Y-88044872D01*
X116510000Y-88044872D01*
X116510000Y-88485128D01*
X116595890Y-88916925D01*
X116764369Y-89323669D01*
X117008962Y-89689729D01*
X117320271Y-90001038D01*
X117686331Y-90245631D01*
X118093075Y-90414110D01*
X118524872Y-90500000D01*
X118965128Y-90500000D01*
X119396925Y-90414110D01*
X119803669Y-90245631D01*
X120169729Y-90001038D01*
X120481038Y-89689729D01*
X120725631Y-89323669D01*
X120821688Y-89091765D01*
X125082841Y-89091765D01*
X125140671Y-89369507D01*
X125386189Y-89535676D01*
X125659406Y-89650753D01*
X125949825Y-89710317D01*
X126246283Y-89712078D01*
X126537388Y-89655970D01*
X126811954Y-89544147D01*
X126885713Y-89494078D01*
X126964891Y-89243701D01*
X125947898Y-88226707D01*
X125082841Y-89091765D01*
X120821688Y-89091765D01*
X120894110Y-88916925D01*
X120980000Y-88485128D01*
X120980000Y-88044872D01*
X120921091Y-87748717D01*
X124282922Y-87748717D01*
X124284683Y-88045175D01*
X124344247Y-88335594D01*
X124459324Y-88608811D01*
X124625493Y-88854329D01*
X124903235Y-88912159D01*
X125768293Y-88047102D01*
X124751299Y-87030109D01*
X124500922Y-87109287D01*
X124450853Y-87183046D01*
X124339030Y-87457612D01*
X124282922Y-87748717D01*
X120921091Y-87748717D01*
X120894110Y-87613075D01*
X120725631Y-87206331D01*
X120487875Y-86850503D01*
X124930905Y-86850503D01*
X125947898Y-87867497D01*
X125962041Y-87853355D01*
X126141646Y-88032960D01*
X126127503Y-88047102D01*
X127144497Y-89064095D01*
X127394874Y-88984917D01*
X127444943Y-88911158D01*
X127556766Y-88636592D01*
X127612874Y-88345487D01*
X127611113Y-88049029D01*
X127577276Y-87884049D01*
X127608016Y-87893374D01*
X127903048Y-87922432D01*
X128198079Y-87893374D01*
X128481773Y-87807315D01*
X128743226Y-87667566D01*
X128972392Y-87479494D01*
X129160464Y-87250328D01*
X129300213Y-86988875D01*
X129386272Y-86705181D01*
X129415330Y-86410150D01*
X129407030Y-86325878D01*
X129525845Y-86361920D01*
X129699099Y-86378984D01*
X129872353Y-86361920D01*
X130038949Y-86311384D01*
X130192485Y-86229317D01*
X130327060Y-86118874D01*
X130862269Y-85583665D01*
X179540000Y-85583665D01*
X179540000Y-85866335D01*
X179595147Y-86143574D01*
X179703320Y-86404727D01*
X179860363Y-86639759D01*
X180060241Y-86839637D01*
X180295273Y-86996680D01*
X180556426Y-87104853D01*
X180833665Y-87160000D01*
X181116335Y-87160000D01*
X181393574Y-87104853D01*
X181654727Y-86996680D01*
X181889759Y-86839637D01*
X182089637Y-86639759D01*
X182246680Y-86404727D01*
X182354853Y-86143574D01*
X182410000Y-85866335D01*
X182410000Y-85583665D01*
X182354853Y-85306426D01*
X182246680Y-85045273D01*
X182089637Y-84810241D01*
X181889759Y-84610363D01*
X181654727Y-84453320D01*
X181393574Y-84345147D01*
X181116335Y-84290000D01*
X180833665Y-84290000D01*
X180556426Y-84345147D01*
X180295273Y-84453320D01*
X180060241Y-84610363D01*
X179860363Y-84810241D01*
X179703320Y-85045273D01*
X179595147Y-85306426D01*
X179540000Y-85583665D01*
X130862269Y-85583665D01*
X131203874Y-85242060D01*
X131314317Y-85107485D01*
X131396384Y-84953949D01*
X131439230Y-84812702D01*
X164921903Y-84812702D01*
X164993486Y-85056671D01*
X165248996Y-85177571D01*
X165523184Y-85246300D01*
X165805512Y-85260217D01*
X166085130Y-85218787D01*
X166351292Y-85123603D01*
X166476514Y-85056671D01*
X166548097Y-84812702D01*
X165735000Y-83999605D01*
X164921903Y-84812702D01*
X131439230Y-84812702D01*
X131446920Y-84787353D01*
X131463984Y-84614099D01*
X131446920Y-84440845D01*
X131396384Y-84274249D01*
X131314317Y-84120713D01*
X131203874Y-83986138D01*
X130008862Y-82791126D01*
X129948716Y-82741765D01*
X131432841Y-82741765D01*
X131490671Y-83019507D01*
X131736189Y-83185676D01*
X132009406Y-83300753D01*
X132299825Y-83360317D01*
X132596283Y-83362078D01*
X132887388Y-83305970D01*
X133161954Y-83194147D01*
X133235713Y-83144078D01*
X133314891Y-82893701D01*
X132297898Y-81876707D01*
X131432841Y-82741765D01*
X129948716Y-82741765D01*
X129874287Y-82680683D01*
X129720751Y-82598616D01*
X129554155Y-82548080D01*
X129380901Y-82531016D01*
X129207647Y-82548080D01*
X129041051Y-82598616D01*
X128887515Y-82680683D01*
X128752940Y-82791126D01*
X127876126Y-83667940D01*
X127765683Y-83802515D01*
X127683616Y-83956051D01*
X127633080Y-84122647D01*
X127616016Y-84295901D01*
X127633080Y-84469155D01*
X127669122Y-84587970D01*
X127584850Y-84579670D01*
X127289819Y-84608728D01*
X127006125Y-84694787D01*
X126744672Y-84834536D01*
X126515506Y-85022608D01*
X126327434Y-85251774D01*
X126187685Y-85513227D01*
X126101626Y-85796921D01*
X126072568Y-86091952D01*
X126101626Y-86386983D01*
X126110951Y-86417724D01*
X125945971Y-86383887D01*
X125649513Y-86382126D01*
X125358408Y-86438234D01*
X125083842Y-86550057D01*
X125010083Y-86600126D01*
X124930905Y-86850503D01*
X120487875Y-86850503D01*
X120481038Y-86840271D01*
X120169729Y-86528962D01*
X119803669Y-86284369D01*
X119396925Y-86115890D01*
X118965128Y-86030000D01*
X118524872Y-86030000D01*
X118093075Y-86115890D01*
X117686331Y-86284369D01*
X117320271Y-86528962D01*
X117008962Y-86840271D01*
X116764369Y-87206331D01*
X116595890Y-87613075D01*
X116510000Y-88044872D01*
X114325000Y-88044872D01*
X114325000Y-86625524D01*
X119342735Y-81398717D01*
X130632922Y-81398717D01*
X130634683Y-81695175D01*
X130694247Y-81985594D01*
X130809324Y-82258811D01*
X130975493Y-82504329D01*
X131253235Y-82562159D01*
X132118293Y-81697102D01*
X131101299Y-80680109D01*
X130850922Y-80759287D01*
X130800853Y-80833046D01*
X130689030Y-81107612D01*
X130632922Y-81398717D01*
X119342735Y-81398717D01*
X120205020Y-80500503D01*
X131280905Y-80500503D01*
X132297898Y-81517497D01*
X132312041Y-81503355D01*
X132491646Y-81682960D01*
X132477503Y-81697102D01*
X133494497Y-82714095D01*
X133744874Y-82634917D01*
X133794943Y-82561158D01*
X133887050Y-82335000D01*
X141386928Y-82335000D01*
X141386928Y-84035000D01*
X141399188Y-84159482D01*
X141435498Y-84279180D01*
X141494463Y-84389494D01*
X141573815Y-84486185D01*
X141670506Y-84565537D01*
X141780820Y-84624502D01*
X141900518Y-84660812D01*
X142025000Y-84673072D01*
X143725000Y-84673072D01*
X143849482Y-84660812D01*
X143969180Y-84624502D01*
X144079494Y-84565537D01*
X144176185Y-84486185D01*
X144255537Y-84389494D01*
X144314502Y-84279180D01*
X144336513Y-84206620D01*
X144468368Y-84338475D01*
X144711589Y-84500990D01*
X144981842Y-84612932D01*
X145268740Y-84670000D01*
X145561260Y-84670000D01*
X145848158Y-84612932D01*
X146118411Y-84500990D01*
X146361632Y-84338475D01*
X146568475Y-84131632D01*
X146730990Y-83888411D01*
X146842932Y-83618158D01*
X146900000Y-83331260D01*
X146900000Y-83043665D01*
X147790000Y-83043665D01*
X147790000Y-83326335D01*
X147845147Y-83603574D01*
X147953320Y-83864727D01*
X148110363Y-84099759D01*
X148310241Y-84299637D01*
X148545273Y-84456680D01*
X148806426Y-84564853D01*
X149083665Y-84620000D01*
X149366335Y-84620000D01*
X149643574Y-84564853D01*
X149904727Y-84456680D01*
X150139759Y-84299637D01*
X150339637Y-84099759D01*
X150496680Y-83864727D01*
X150604853Y-83603574D01*
X150660000Y-83326335D01*
X150660000Y-83043665D01*
X155410000Y-83043665D01*
X155410000Y-83326335D01*
X155465147Y-83603574D01*
X155573320Y-83864727D01*
X155730363Y-84099759D01*
X155930241Y-84299637D01*
X156165273Y-84456680D01*
X156426426Y-84564853D01*
X156703665Y-84620000D01*
X156986335Y-84620000D01*
X157263574Y-84564853D01*
X157524727Y-84456680D01*
X157759759Y-84299637D01*
X157959637Y-84099759D01*
X157995557Y-84046000D01*
X158881928Y-84046000D01*
X158894188Y-84170482D01*
X158930498Y-84290180D01*
X158989463Y-84400494D01*
X159068815Y-84497185D01*
X159165506Y-84576537D01*
X159275820Y-84635502D01*
X159395518Y-84671812D01*
X159520000Y-84684072D01*
X159734250Y-84681000D01*
X159893000Y-84522250D01*
X159893000Y-83673000D01*
X160147000Y-83673000D01*
X160147000Y-84522250D01*
X160305750Y-84681000D01*
X160520000Y-84684072D01*
X160644482Y-84671812D01*
X160764180Y-84635502D01*
X160874494Y-84576537D01*
X160971185Y-84497185D01*
X161050537Y-84400494D01*
X161109502Y-84290180D01*
X161145812Y-84170482D01*
X161158072Y-84046000D01*
X161155843Y-83890512D01*
X164294783Y-83890512D01*
X164336213Y-84170130D01*
X164431397Y-84436292D01*
X164498329Y-84561514D01*
X164742298Y-84633097D01*
X165555395Y-83820000D01*
X165914605Y-83820000D01*
X166727702Y-84633097D01*
X166971671Y-84561514D01*
X167092571Y-84306004D01*
X167161300Y-84031816D01*
X167175217Y-83749488D01*
X167164724Y-83678665D01*
X169300000Y-83678665D01*
X169300000Y-83961335D01*
X169355147Y-84238574D01*
X169463320Y-84499727D01*
X169620363Y-84734759D01*
X169820241Y-84934637D01*
X170055273Y-85091680D01*
X170316426Y-85199853D01*
X170593665Y-85255000D01*
X170876335Y-85255000D01*
X171153574Y-85199853D01*
X171414727Y-85091680D01*
X171649759Y-84934637D01*
X171849637Y-84734759D01*
X172006680Y-84499727D01*
X172114853Y-84238574D01*
X172170000Y-83961335D01*
X172170000Y-83678665D01*
X172114853Y-83401426D01*
X172006680Y-83140273D01*
X171849637Y-82905241D01*
X171649759Y-82705363D01*
X171414727Y-82548320D01*
X171153574Y-82440147D01*
X170876335Y-82385000D01*
X170593665Y-82385000D01*
X170316426Y-82440147D01*
X170055273Y-82548320D01*
X169820241Y-82705363D01*
X169620363Y-82905241D01*
X169463320Y-83140273D01*
X169355147Y-83401426D01*
X169300000Y-83678665D01*
X167164724Y-83678665D01*
X167133787Y-83469870D01*
X167038603Y-83203708D01*
X166971671Y-83078486D01*
X166727702Y-83006903D01*
X165914605Y-83820000D01*
X165555395Y-83820000D01*
X164742298Y-83006903D01*
X164498329Y-83078486D01*
X164377429Y-83333996D01*
X164308700Y-83608184D01*
X164294783Y-83890512D01*
X161155843Y-83890512D01*
X161155000Y-83831750D01*
X160996250Y-83673000D01*
X160147000Y-83673000D01*
X159893000Y-83673000D01*
X159043750Y-83673000D01*
X158885000Y-83831750D01*
X158881928Y-84046000D01*
X157995557Y-84046000D01*
X158116680Y-83864727D01*
X158224853Y-83603574D01*
X158280000Y-83326335D01*
X158280000Y-83046000D01*
X158881928Y-83046000D01*
X158885000Y-83260250D01*
X159043750Y-83419000D01*
X159893000Y-83419000D01*
X159893000Y-82569750D01*
X160147000Y-82569750D01*
X160147000Y-83419000D01*
X160996250Y-83419000D01*
X161155000Y-83260250D01*
X161158072Y-83046000D01*
X161145812Y-82921518D01*
X161117231Y-82827298D01*
X164921903Y-82827298D01*
X165735000Y-83640395D01*
X166548097Y-82827298D01*
X166476514Y-82583329D01*
X166221004Y-82462429D01*
X165946816Y-82393700D01*
X165664488Y-82379783D01*
X165384870Y-82421213D01*
X165118708Y-82516397D01*
X164993486Y-82583329D01*
X164921903Y-82827298D01*
X161117231Y-82827298D01*
X161109502Y-82801820D01*
X161050537Y-82691506D01*
X160971185Y-82594815D01*
X160874494Y-82515463D01*
X160764180Y-82456498D01*
X160644482Y-82420188D01*
X160520000Y-82407928D01*
X160305750Y-82411000D01*
X160147000Y-82569750D01*
X159893000Y-82569750D01*
X159734250Y-82411000D01*
X159520000Y-82407928D01*
X159395518Y-82420188D01*
X159275820Y-82456498D01*
X159165506Y-82515463D01*
X159068815Y-82594815D01*
X158989463Y-82691506D01*
X158930498Y-82801820D01*
X158894188Y-82921518D01*
X158881928Y-83046000D01*
X158280000Y-83046000D01*
X158280000Y-83043665D01*
X158224853Y-82766426D01*
X158116680Y-82505273D01*
X157959637Y-82270241D01*
X157759759Y-82070363D01*
X157524727Y-81913320D01*
X157263574Y-81805147D01*
X156986335Y-81750000D01*
X156703665Y-81750000D01*
X156426426Y-81805147D01*
X156165273Y-81913320D01*
X155930241Y-82070363D01*
X155730363Y-82270241D01*
X155573320Y-82505273D01*
X155465147Y-82766426D01*
X155410000Y-83043665D01*
X150660000Y-83043665D01*
X150604853Y-82766426D01*
X150496680Y-82505273D01*
X150339637Y-82270241D01*
X150139759Y-82070363D01*
X149904727Y-81913320D01*
X149643574Y-81805147D01*
X149366335Y-81750000D01*
X149083665Y-81750000D01*
X148806426Y-81805147D01*
X148545273Y-81913320D01*
X148310241Y-82070363D01*
X148110363Y-82270241D01*
X147953320Y-82505273D01*
X147845147Y-82766426D01*
X147790000Y-83043665D01*
X146900000Y-83043665D01*
X146900000Y-83038740D01*
X146842932Y-82751842D01*
X146730990Y-82481589D01*
X146568475Y-82238368D01*
X146361632Y-82031525D01*
X146118411Y-81869010D01*
X145848158Y-81757068D01*
X145561260Y-81700000D01*
X145268740Y-81700000D01*
X144981842Y-81757068D01*
X144711589Y-81869010D01*
X144468368Y-82031525D01*
X144336513Y-82163380D01*
X144314502Y-82090820D01*
X144255537Y-81980506D01*
X144176185Y-81883815D01*
X144079494Y-81804463D01*
X143969180Y-81745498D01*
X143849482Y-81709188D01*
X143725000Y-81696928D01*
X142025000Y-81696928D01*
X141900518Y-81709188D01*
X141780820Y-81745498D01*
X141670506Y-81804463D01*
X141573815Y-81883815D01*
X141494463Y-81980506D01*
X141435498Y-82090820D01*
X141399188Y-82210518D01*
X141386928Y-82335000D01*
X133887050Y-82335000D01*
X133906766Y-82286592D01*
X133962874Y-81995487D01*
X133961113Y-81699029D01*
X133927276Y-81534049D01*
X133958016Y-81543374D01*
X134253048Y-81572432D01*
X134548079Y-81543374D01*
X134831773Y-81457315D01*
X135093226Y-81317566D01*
X135322392Y-81129494D01*
X135510464Y-80900328D01*
X135650213Y-80638875D01*
X135736272Y-80355181D01*
X135765330Y-80060150D01*
X135757030Y-79975878D01*
X135875845Y-80011920D01*
X136049099Y-80028984D01*
X136222353Y-80011920D01*
X136388949Y-79961384D01*
X136542485Y-79879317D01*
X136555464Y-79868665D01*
X147790000Y-79868665D01*
X147790000Y-80151335D01*
X147845147Y-80428574D01*
X147953320Y-80689727D01*
X148110363Y-80924759D01*
X148310241Y-81124637D01*
X148545273Y-81281680D01*
X148806426Y-81389853D01*
X149083665Y-81445000D01*
X149366335Y-81445000D01*
X149643574Y-81389853D01*
X149904727Y-81281680D01*
X150139759Y-81124637D01*
X150339637Y-80924759D01*
X150496680Y-80689727D01*
X150604853Y-80428574D01*
X150660000Y-80151335D01*
X150660000Y-79868665D01*
X155410000Y-79868665D01*
X155410000Y-80151335D01*
X155465147Y-80428574D01*
X155573320Y-80689727D01*
X155730363Y-80924759D01*
X155930241Y-81124637D01*
X156165273Y-81281680D01*
X156426426Y-81389853D01*
X156703665Y-81445000D01*
X156986335Y-81445000D01*
X157263574Y-81389853D01*
X157524727Y-81281680D01*
X157759759Y-81124637D01*
X157959637Y-80924759D01*
X158116680Y-80689727D01*
X158224853Y-80428574D01*
X158280000Y-80151335D01*
X158280000Y-79868665D01*
X158224853Y-79591426D01*
X158116680Y-79330273D01*
X157959637Y-79095241D01*
X157759759Y-78895363D01*
X157524727Y-78738320D01*
X157263574Y-78630147D01*
X156986335Y-78575000D01*
X156703665Y-78575000D01*
X156426426Y-78630147D01*
X156165273Y-78738320D01*
X155930241Y-78895363D01*
X155730363Y-79095241D01*
X155573320Y-79330273D01*
X155465147Y-79591426D01*
X155410000Y-79868665D01*
X150660000Y-79868665D01*
X150604853Y-79591426D01*
X150496680Y-79330273D01*
X150339637Y-79095241D01*
X150139759Y-78895363D01*
X149904727Y-78738320D01*
X149643574Y-78630147D01*
X149366335Y-78575000D01*
X149083665Y-78575000D01*
X148806426Y-78630147D01*
X148545273Y-78738320D01*
X148310241Y-78895363D01*
X148110363Y-79095241D01*
X147953320Y-79330273D01*
X147845147Y-79591426D01*
X147790000Y-79868665D01*
X136555464Y-79868665D01*
X136677060Y-79768874D01*
X137553874Y-78892060D01*
X137664317Y-78757485D01*
X137746384Y-78603949D01*
X137766540Y-78537500D01*
X158881928Y-78537500D01*
X158881928Y-79537500D01*
X158894188Y-79661982D01*
X158930498Y-79781680D01*
X158989463Y-79891994D01*
X159068815Y-79988685D01*
X159133475Y-80041750D01*
X159068815Y-80094815D01*
X158989463Y-80191506D01*
X158930498Y-80301820D01*
X158894188Y-80421518D01*
X158881928Y-80546000D01*
X158881928Y-81546000D01*
X158894188Y-81670482D01*
X158930498Y-81790180D01*
X158989463Y-81900494D01*
X159068815Y-81997185D01*
X159165506Y-82076537D01*
X159275820Y-82135502D01*
X159395518Y-82171812D01*
X159520000Y-82184072D01*
X160520000Y-82184072D01*
X160644482Y-82171812D01*
X160764180Y-82135502D01*
X160874494Y-82076537D01*
X160971185Y-81997185D01*
X161050537Y-81900494D01*
X161109502Y-81790180D01*
X161145812Y-81670482D01*
X161158072Y-81546000D01*
X161158072Y-80797400D01*
X161995265Y-80797400D01*
X162080363Y-80924759D01*
X162280241Y-81124637D01*
X162515273Y-81281680D01*
X162776426Y-81389853D01*
X163053665Y-81445000D01*
X163336335Y-81445000D01*
X163613574Y-81389853D01*
X163874727Y-81281680D01*
X164109759Y-81124637D01*
X164309637Y-80924759D01*
X164466680Y-80689727D01*
X164574853Y-80428574D01*
X164630000Y-80151335D01*
X164630000Y-79868665D01*
X164574853Y-79591426D01*
X164466680Y-79330273D01*
X164309637Y-79095241D01*
X164109759Y-78895363D01*
X163874727Y-78738320D01*
X163613574Y-78630147D01*
X163336335Y-78575000D01*
X163053665Y-78575000D01*
X162776426Y-78630147D01*
X162515273Y-78738320D01*
X162280241Y-78895363D01*
X162080363Y-79095241D01*
X161995265Y-79222600D01*
X161158072Y-79222600D01*
X161158072Y-78537500D01*
X161145812Y-78413018D01*
X161109502Y-78293320D01*
X161050537Y-78183006D01*
X160971185Y-78086315D01*
X160874494Y-78006963D01*
X160764180Y-77947998D01*
X160644482Y-77911688D01*
X160520000Y-77899428D01*
X159520000Y-77899428D01*
X159395518Y-77911688D01*
X159275820Y-77947998D01*
X159165506Y-78006963D01*
X159068815Y-78086315D01*
X158989463Y-78183006D01*
X158930498Y-78293320D01*
X158894188Y-78413018D01*
X158881928Y-78537500D01*
X137766540Y-78537500D01*
X137796920Y-78437353D01*
X137813984Y-78264099D01*
X137796920Y-78090845D01*
X137746384Y-77924249D01*
X137664317Y-77770713D01*
X137553874Y-77636138D01*
X136611401Y-76693665D01*
X147790000Y-76693665D01*
X147790000Y-76976335D01*
X147845147Y-77253574D01*
X147953320Y-77514727D01*
X148110363Y-77749759D01*
X148310241Y-77949637D01*
X148545273Y-78106680D01*
X148806426Y-78214853D01*
X149083665Y-78270000D01*
X149366335Y-78270000D01*
X149643574Y-78214853D01*
X149904727Y-78106680D01*
X150139759Y-77949637D01*
X150339637Y-77749759D01*
X150496680Y-77514727D01*
X150604853Y-77253574D01*
X150660000Y-76976335D01*
X150660000Y-76693665D01*
X155410000Y-76693665D01*
X155410000Y-76976335D01*
X155465147Y-77253574D01*
X155573320Y-77514727D01*
X155730363Y-77749759D01*
X155930241Y-77949637D01*
X156165273Y-78106680D01*
X156426426Y-78214853D01*
X156703665Y-78270000D01*
X156986335Y-78270000D01*
X157263574Y-78214853D01*
X157524727Y-78106680D01*
X157759759Y-77949637D01*
X157959637Y-77749759D01*
X158116680Y-77514727D01*
X158224853Y-77253574D01*
X158280000Y-76976335D01*
X158280000Y-76693665D01*
X158224853Y-76416426D01*
X158116680Y-76155273D01*
X157959637Y-75920241D01*
X157759759Y-75720363D01*
X157524727Y-75563320D01*
X157263574Y-75455147D01*
X156986335Y-75400000D01*
X156703665Y-75400000D01*
X156426426Y-75455147D01*
X156165273Y-75563320D01*
X155930241Y-75720363D01*
X155730363Y-75920241D01*
X155573320Y-76155273D01*
X155465147Y-76416426D01*
X155410000Y-76693665D01*
X150660000Y-76693665D01*
X150604853Y-76416426D01*
X150496680Y-76155273D01*
X150339637Y-75920241D01*
X150139759Y-75720363D01*
X149904727Y-75563320D01*
X149643574Y-75455147D01*
X149366335Y-75400000D01*
X149083665Y-75400000D01*
X148806426Y-75455147D01*
X148545273Y-75563320D01*
X148310241Y-75720363D01*
X148110363Y-75920241D01*
X147953320Y-76155273D01*
X147845147Y-76416426D01*
X147790000Y-76693665D01*
X136611401Y-76693665D01*
X136358862Y-76441126D01*
X136224287Y-76330683D01*
X136070751Y-76248616D01*
X135904155Y-76198080D01*
X135730901Y-76181016D01*
X135557647Y-76198080D01*
X135391051Y-76248616D01*
X135237515Y-76330683D01*
X135102940Y-76441126D01*
X134226126Y-77317940D01*
X134115683Y-77452515D01*
X134033616Y-77606051D01*
X133983080Y-77772647D01*
X133966016Y-77945901D01*
X133983080Y-78119155D01*
X134019122Y-78237970D01*
X133934850Y-78229670D01*
X133639819Y-78258728D01*
X133356125Y-78344787D01*
X133094672Y-78484536D01*
X132865506Y-78672608D01*
X132677434Y-78901774D01*
X132537685Y-79163227D01*
X132451626Y-79446921D01*
X132422568Y-79741952D01*
X132451626Y-80036983D01*
X132460951Y-80067724D01*
X132295971Y-80033887D01*
X131999513Y-80032126D01*
X131708408Y-80088234D01*
X131433842Y-80200057D01*
X131360083Y-80250126D01*
X131280905Y-80500503D01*
X120205020Y-80500503D01*
X126429288Y-74016891D01*
X141433519Y-74016891D01*
X141530843Y-74291252D01*
X141679822Y-74541355D01*
X141874731Y-74757588D01*
X142108080Y-74931641D01*
X142370901Y-75056825D01*
X142518110Y-75101476D01*
X142748000Y-74980155D01*
X142748000Y-73787000D01*
X141554186Y-73787000D01*
X141433519Y-74016891D01*
X126429288Y-74016891D01*
X127114518Y-73303109D01*
X141433519Y-73303109D01*
X141554186Y-73533000D01*
X142748000Y-73533000D01*
X142748000Y-72339845D01*
X143002000Y-72339845D01*
X143002000Y-73533000D01*
X143022000Y-73533000D01*
X143022000Y-73787000D01*
X143002000Y-73787000D01*
X143002000Y-74980155D01*
X143231890Y-75101476D01*
X143379099Y-75056825D01*
X143641920Y-74931641D01*
X143875269Y-74757588D01*
X143951034Y-74673534D01*
X143975498Y-74754180D01*
X144034463Y-74864494D01*
X144113815Y-74961185D01*
X144210506Y-75040537D01*
X144320820Y-75099502D01*
X144440518Y-75135812D01*
X144565000Y-75148072D01*
X146265000Y-75148072D01*
X146389482Y-75135812D01*
X146509180Y-75099502D01*
X146619494Y-75040537D01*
X146716185Y-74961185D01*
X146795537Y-74864494D01*
X146854502Y-74754180D01*
X146890812Y-74634482D01*
X146903072Y-74510000D01*
X146903072Y-73518665D01*
X147790000Y-73518665D01*
X147790000Y-73801335D01*
X147845147Y-74078574D01*
X147953320Y-74339727D01*
X148110363Y-74574759D01*
X148310241Y-74774637D01*
X148545273Y-74931680D01*
X148806426Y-75039853D01*
X149083665Y-75095000D01*
X149366335Y-75095000D01*
X149643574Y-75039853D01*
X149904727Y-74931680D01*
X150139759Y-74774637D01*
X150339637Y-74574759D01*
X150496680Y-74339727D01*
X150604853Y-74078574D01*
X150660000Y-73801335D01*
X150660000Y-73518665D01*
X155410000Y-73518665D01*
X155410000Y-73801335D01*
X155465147Y-74078574D01*
X155573320Y-74339727D01*
X155730363Y-74574759D01*
X155930241Y-74774637D01*
X156165273Y-74931680D01*
X156426426Y-75039853D01*
X156703665Y-75095000D01*
X156986335Y-75095000D01*
X157263574Y-75039853D01*
X157524727Y-74931680D01*
X157759759Y-74774637D01*
X157959637Y-74574759D01*
X158116680Y-74339727D01*
X158224853Y-74078574D01*
X158234714Y-74029000D01*
X158881928Y-74029000D01*
X158881928Y-75029000D01*
X158894188Y-75153482D01*
X158930498Y-75273180D01*
X158989463Y-75383494D01*
X159068815Y-75480185D01*
X159133475Y-75533250D01*
X159068815Y-75586315D01*
X158989463Y-75683006D01*
X158930498Y-75793320D01*
X158894188Y-75913018D01*
X158881928Y-76037500D01*
X158881928Y-77037500D01*
X158894188Y-77161982D01*
X158930498Y-77281680D01*
X158989463Y-77391994D01*
X159068815Y-77488685D01*
X159165506Y-77568037D01*
X159275820Y-77627002D01*
X159395518Y-77663312D01*
X159520000Y-77675572D01*
X160520000Y-77675572D01*
X160644482Y-77663312D01*
X160764180Y-77627002D01*
X160874494Y-77568037D01*
X160971185Y-77488685D01*
X161050537Y-77391994D01*
X161109502Y-77281680D01*
X161145812Y-77161982D01*
X161158072Y-77037500D01*
X161158072Y-76352400D01*
X167015130Y-76352400D01*
X167121525Y-76511632D01*
X167328368Y-76718475D01*
X167571589Y-76880990D01*
X167841842Y-76992932D01*
X168128740Y-77050000D01*
X168421260Y-77050000D01*
X168609088Y-77012638D01*
X170230881Y-78634433D01*
X170255531Y-78664469D01*
X170274997Y-78680444D01*
X170135273Y-78738320D01*
X169900241Y-78895363D01*
X169700363Y-79095241D01*
X169543320Y-79330273D01*
X169435147Y-79591426D01*
X169380000Y-79868665D01*
X169380000Y-80151335D01*
X169435147Y-80428574D01*
X169543320Y-80689727D01*
X169700363Y-80924759D01*
X169900241Y-81124637D01*
X170135273Y-81281680D01*
X170396426Y-81389853D01*
X170673665Y-81445000D01*
X170956335Y-81445000D01*
X171233574Y-81389853D01*
X171494727Y-81281680D01*
X171729759Y-81124637D01*
X171929637Y-80924759D01*
X172086680Y-80689727D01*
X172194853Y-80428574D01*
X172250000Y-80151335D01*
X172250000Y-79868665D01*
X172194853Y-79591426D01*
X172086680Y-79330273D01*
X171929637Y-79095241D01*
X171729759Y-78895363D01*
X171725325Y-78892400D01*
X180648850Y-78892400D01*
X186046449Y-84290000D01*
X185913665Y-84290000D01*
X185636426Y-84345147D01*
X185375273Y-84453320D01*
X185140241Y-84610363D01*
X184940363Y-84810241D01*
X184783320Y-85045273D01*
X184675147Y-85306426D01*
X184620000Y-85583665D01*
X184620000Y-85866335D01*
X184675147Y-86143574D01*
X184783320Y-86404727D01*
X184940363Y-86639759D01*
X185140241Y-86839637D01*
X185375273Y-86996680D01*
X185636426Y-87104853D01*
X185913665Y-87160000D01*
X186196335Y-87160000D01*
X186473574Y-87104853D01*
X186734727Y-86996680D01*
X186969759Y-86839637D01*
X187169637Y-86639759D01*
X187325000Y-86407241D01*
X187480363Y-86639759D01*
X187680241Y-86839637D01*
X187915273Y-86996680D01*
X188176426Y-87104853D01*
X188453665Y-87160000D01*
X188736335Y-87160000D01*
X189013574Y-87104853D01*
X189274727Y-86996680D01*
X189509759Y-86839637D01*
X189709637Y-86639759D01*
X189865000Y-86407241D01*
X190020363Y-86639759D01*
X190220241Y-86839637D01*
X190455273Y-86996680D01*
X190716426Y-87104853D01*
X190993665Y-87160000D01*
X191276335Y-87160000D01*
X191553574Y-87104853D01*
X191814727Y-86996680D01*
X192049759Y-86839637D01*
X192249637Y-86639759D01*
X192406680Y-86404727D01*
X192411067Y-86394135D01*
X192522615Y-86580131D01*
X192711586Y-86788519D01*
X192937580Y-86956037D01*
X193191913Y-87076246D01*
X193325961Y-87116904D01*
X193548000Y-86994915D01*
X193548000Y-85852000D01*
X193802000Y-85852000D01*
X193802000Y-86994915D01*
X194024039Y-87116904D01*
X194158087Y-87076246D01*
X194412420Y-86956037D01*
X194638414Y-86788519D01*
X194827385Y-86580131D01*
X194972070Y-86338881D01*
X195066909Y-86074040D01*
X194945624Y-85852000D01*
X193802000Y-85852000D01*
X193548000Y-85852000D01*
X193528000Y-85852000D01*
X193528000Y-85598000D01*
X193548000Y-85598000D01*
X193548000Y-84455085D01*
X193802000Y-84455085D01*
X193802000Y-85598000D01*
X194945624Y-85598000D01*
X195066909Y-85375960D01*
X194972070Y-85111119D01*
X194827385Y-84869869D01*
X194638414Y-84661481D01*
X194412420Y-84493963D01*
X194158087Y-84373754D01*
X194024039Y-84333096D01*
X193802000Y-84455085D01*
X193548000Y-84455085D01*
X193325961Y-84333096D01*
X193191913Y-84373754D01*
X192937580Y-84493963D01*
X192711586Y-84661481D01*
X192522615Y-84869869D01*
X192411067Y-85055865D01*
X192406680Y-85045273D01*
X192249637Y-84810241D01*
X192049759Y-84610363D01*
X191814727Y-84453320D01*
X191553574Y-84345147D01*
X191276335Y-84290000D01*
X190993665Y-84290000D01*
X190716426Y-84345147D01*
X190455273Y-84453320D01*
X190220241Y-84610363D01*
X190020363Y-84810241D01*
X189865000Y-85042759D01*
X189709637Y-84810241D01*
X189509759Y-84610363D01*
X189274727Y-84453320D01*
X189013574Y-84345147D01*
X188736335Y-84290000D01*
X188453665Y-84290000D01*
X188303435Y-84319883D01*
X181559128Y-77575578D01*
X181534469Y-77545531D01*
X181414572Y-77447134D01*
X181277783Y-77374018D01*
X181129357Y-77328994D01*
X181013673Y-77317600D01*
X181013663Y-77317600D01*
X180975000Y-77313792D01*
X180936337Y-77317600D01*
X171141152Y-77317600D01*
X170876624Y-77053072D01*
X171665000Y-77053072D01*
X171789482Y-77040812D01*
X171909180Y-77004502D01*
X172019494Y-76945537D01*
X172116185Y-76866185D01*
X172195537Y-76769494D01*
X172254502Y-76659180D01*
X172290812Y-76539482D01*
X172303072Y-76415000D01*
X172303072Y-74715000D01*
X172290812Y-74590518D01*
X172254502Y-74470820D01*
X172195537Y-74360506D01*
X172116185Y-74263815D01*
X172019494Y-74184463D01*
X171909180Y-74125498D01*
X171789482Y-74089188D01*
X171665000Y-74076928D01*
X169965000Y-74076928D01*
X169840518Y-74089188D01*
X169720820Y-74125498D01*
X169610506Y-74184463D01*
X169513815Y-74263815D01*
X169434463Y-74360506D01*
X169375498Y-74470820D01*
X169353487Y-74543380D01*
X169221632Y-74411525D01*
X168978411Y-74249010D01*
X168708158Y-74137068D01*
X168421260Y-74080000D01*
X168128740Y-74080000D01*
X167841842Y-74137068D01*
X167571589Y-74249010D01*
X167328368Y-74411525D01*
X167121525Y-74618368D01*
X167015130Y-74777600D01*
X161158072Y-74777600D01*
X161158072Y-74029000D01*
X161145812Y-73904518D01*
X161109502Y-73784820D01*
X161050537Y-73674506D01*
X160971185Y-73577815D01*
X160874494Y-73498463D01*
X160764180Y-73439498D01*
X160644482Y-73403188D01*
X160520000Y-73390928D01*
X159520000Y-73390928D01*
X159395518Y-73403188D01*
X159275820Y-73439498D01*
X159165506Y-73498463D01*
X159068815Y-73577815D01*
X158989463Y-73674506D01*
X158930498Y-73784820D01*
X158894188Y-73904518D01*
X158881928Y-74029000D01*
X158234714Y-74029000D01*
X158280000Y-73801335D01*
X158280000Y-73518665D01*
X158224853Y-73241426D01*
X158116680Y-72980273D01*
X157959637Y-72745241D01*
X157759759Y-72545363D01*
X157735270Y-72529000D01*
X158881928Y-72529000D01*
X158894188Y-72653482D01*
X158930498Y-72773180D01*
X158989463Y-72883494D01*
X159068815Y-72980185D01*
X159165506Y-73059537D01*
X159275820Y-73118502D01*
X159395518Y-73154812D01*
X159520000Y-73167072D01*
X159734250Y-73164000D01*
X159893000Y-73005250D01*
X159893000Y-72156000D01*
X160147000Y-72156000D01*
X160147000Y-73005250D01*
X160305750Y-73164000D01*
X160520000Y-73167072D01*
X160644482Y-73154812D01*
X160764180Y-73118502D01*
X160874494Y-73059537D01*
X160971185Y-72980185D01*
X161050537Y-72883494D01*
X161109502Y-72773180D01*
X161145812Y-72653482D01*
X161158072Y-72529000D01*
X161155000Y-72314750D01*
X160996250Y-72156000D01*
X160147000Y-72156000D01*
X159893000Y-72156000D01*
X159043750Y-72156000D01*
X158885000Y-72314750D01*
X158881928Y-72529000D01*
X157735270Y-72529000D01*
X157524727Y-72388320D01*
X157263574Y-72280147D01*
X156986335Y-72225000D01*
X156703665Y-72225000D01*
X156426426Y-72280147D01*
X156165273Y-72388320D01*
X155930241Y-72545363D01*
X155730363Y-72745241D01*
X155573320Y-72980273D01*
X155465147Y-73241426D01*
X155410000Y-73518665D01*
X150660000Y-73518665D01*
X150604853Y-73241426D01*
X150496680Y-72980273D01*
X150339637Y-72745241D01*
X150139759Y-72545363D01*
X149904727Y-72388320D01*
X149643574Y-72280147D01*
X149366335Y-72225000D01*
X149083665Y-72225000D01*
X148806426Y-72280147D01*
X148545273Y-72388320D01*
X148310241Y-72545363D01*
X148110363Y-72745241D01*
X147953320Y-72980273D01*
X147845147Y-73241426D01*
X147790000Y-73518665D01*
X146903072Y-73518665D01*
X146903072Y-72810000D01*
X146890812Y-72685518D01*
X146854502Y-72565820D01*
X146795537Y-72455506D01*
X146716185Y-72358815D01*
X146619494Y-72279463D01*
X146509180Y-72220498D01*
X146389482Y-72184188D01*
X146265000Y-72171928D01*
X144565000Y-72171928D01*
X144440518Y-72184188D01*
X144320820Y-72220498D01*
X144210506Y-72279463D01*
X144113815Y-72358815D01*
X144034463Y-72455506D01*
X143975498Y-72565820D01*
X143951034Y-72646466D01*
X143875269Y-72562412D01*
X143641920Y-72388359D01*
X143379099Y-72263175D01*
X143231890Y-72218524D01*
X143002000Y-72339845D01*
X142748000Y-72339845D01*
X142518110Y-72218524D01*
X142370901Y-72263175D01*
X142108080Y-72388359D01*
X141874731Y-72562412D01*
X141679822Y-72778645D01*
X141530843Y-73028748D01*
X141433519Y-73303109D01*
X127114518Y-73303109D01*
X129186304Y-71145000D01*
X159013678Y-71145000D01*
X158989463Y-71174506D01*
G37*
G04 #@! TD.AperFunction*
D23*
X151892000Y-112268000D02*
X151912000Y-112268000D01*
X151912000Y-112522000D01*
X151892000Y-112522000D01*
X151892000Y-113664915D01*
X152114039Y-113786904D01*
X152248087Y-113746246D01*
X152502420Y-113626037D01*
X152728414Y-113458519D01*
X152917385Y-113250131D01*
X153062070Y-113008881D01*
X153156909Y-112744040D01*
X153035625Y-112522002D01*
X153200000Y-112522002D01*
X153200000Y-112403550D01*
X156260881Y-115464433D01*
X156285531Y-115494469D01*
X156315567Y-115519119D01*
X156315570Y-115519122D01*
X156367536Y-115561769D01*
X156405428Y-115592866D01*
X156542217Y-115665982D01*
X156690643Y-115711006D01*
X156806327Y-115722400D01*
X156806335Y-115722400D01*
X156845000Y-115726208D01*
X156883665Y-115722400D01*
X158712889Y-115722400D01*
X158729426Y-115738937D01*
X158898944Y-115852205D01*
X159087302Y-115930226D01*
X159287261Y-115970000D01*
X159491139Y-115970000D01*
X159661747Y-115936064D01*
X157519604Y-118049281D01*
X157483342Y-118079041D01*
X157429678Y-118144431D01*
X157375639Y-118209372D01*
X157374184Y-118212050D01*
X157372248Y-118214409D01*
X157332392Y-118288975D01*
X157292041Y-118363246D01*
X157291135Y-118366160D01*
X157289698Y-118368849D01*
X157265181Y-118449674D01*
X157240069Y-118530474D01*
X157239749Y-118533512D01*
X157238865Y-118536426D01*
X157230590Y-118620438D01*
X157221720Y-118704628D01*
X157226001Y-118751345D01*
X157226001Y-118823016D01*
X157168368Y-118861525D01*
X156961525Y-119068368D01*
X156839805Y-119250534D01*
X156770178Y-119133645D01*
X156575269Y-118917412D01*
X156341920Y-118743359D01*
X156079099Y-118618175D01*
X155931890Y-118573524D01*
X155702000Y-118694845D01*
X155702000Y-119888000D01*
X155722000Y-119888000D01*
X155722000Y-120142000D01*
X155702000Y-120142000D01*
X155702000Y-120162000D01*
X155448000Y-120162000D01*
X155448000Y-120142000D01*
X155428000Y-120142000D01*
X155428000Y-119888000D01*
X155448000Y-119888000D01*
X155448000Y-118694845D01*
X155218110Y-118573524D01*
X155070901Y-118618175D01*
X154808080Y-118743359D01*
X154574731Y-118917412D01*
X154379822Y-119133645D01*
X154310195Y-119250534D01*
X154188475Y-119068368D01*
X153981632Y-118861525D01*
X153738411Y-118699010D01*
X153468158Y-118587068D01*
X153181260Y-118530000D01*
X152888740Y-118530000D01*
X152601842Y-118587068D01*
X152331589Y-118699010D01*
X152088368Y-118861525D01*
X151881525Y-119068368D01*
X151765000Y-119242760D01*
X151648475Y-119068368D01*
X151441632Y-118861525D01*
X151198411Y-118699010D01*
X150928158Y-118587068D01*
X150641260Y-118530000D01*
X150348740Y-118530000D01*
X150061842Y-118587068D01*
X149791589Y-118699010D01*
X149548368Y-118861525D01*
X149341525Y-119068368D01*
X149225000Y-119242760D01*
X149108475Y-119068368D01*
X148901632Y-118861525D01*
X148658411Y-118699010D01*
X148388158Y-118587068D01*
X148101260Y-118530000D01*
X147808740Y-118530000D01*
X147521842Y-118587068D01*
X147251589Y-118699010D01*
X147008368Y-118861525D01*
X146801525Y-119068368D01*
X146685000Y-119242760D01*
X146568475Y-119068368D01*
X146361632Y-118861525D01*
X146118411Y-118699010D01*
X145848158Y-118587068D01*
X145561260Y-118530000D01*
X145268740Y-118530000D01*
X144981842Y-118587068D01*
X144711589Y-118699010D01*
X144468368Y-118861525D01*
X144261525Y-119068368D01*
X144145000Y-119242760D01*
X144028475Y-119068368D01*
X143821632Y-118861525D01*
X143662400Y-118755130D01*
X143662400Y-114856362D01*
X143666208Y-114817699D01*
X143662400Y-114779036D01*
X143662400Y-114779027D01*
X143651006Y-114663343D01*
X143605982Y-114514917D01*
X143532866Y-114378128D01*
X143434469Y-114258231D01*
X143404433Y-114233581D01*
X142600123Y-113429273D01*
X142719637Y-113309759D01*
X142875000Y-113077241D01*
X143030363Y-113309759D01*
X143230241Y-113509637D01*
X143465273Y-113666680D01*
X143726426Y-113774853D01*
X144003665Y-113830000D01*
X144286335Y-113830000D01*
X144436566Y-113800117D01*
X144830881Y-114194433D01*
X144855531Y-114224469D01*
X144885567Y-114249119D01*
X144885569Y-114249121D01*
X144933271Y-114288269D01*
X144975428Y-114322866D01*
X145112217Y-114395982D01*
X145260643Y-114441006D01*
X145376327Y-114452400D01*
X145376336Y-114452400D01*
X145414999Y-114456208D01*
X145453662Y-114452400D01*
X149648906Y-114452400D01*
X149649926Y-114452600D01*
X149725771Y-114452400D01*
X149764073Y-114452400D01*
X149765127Y-114452296D01*
X149805029Y-114452191D01*
X149842106Y-114444714D01*
X149879757Y-114441006D01*
X149917953Y-114429419D01*
X149957072Y-114421531D01*
X149991977Y-114406965D01*
X150028183Y-114395982D01*
X150063388Y-114377165D01*
X150100213Y-114361797D01*
X150131607Y-114340700D01*
X150164972Y-114322866D01*
X150195825Y-114297546D01*
X150196695Y-114296961D01*
X150225950Y-114272823D01*
X150284869Y-114224469D01*
X150285532Y-114223662D01*
X150995788Y-113637627D01*
X151018296Y-113619155D01*
X151027580Y-113626037D01*
X151281913Y-113746246D01*
X151415961Y-113786904D01*
X151638000Y-113664915D01*
X151638000Y-112522000D01*
X151618000Y-112522000D01*
X151618000Y-112268000D01*
X151638000Y-112268000D01*
X151638000Y-112248000D01*
X151892000Y-112248000D01*
X151892000Y-112268000D01*
G04 #@! TA.AperFunction,Conductor*
D24*
G36*
X151892000Y-112268000D02*
G01*
X151912000Y-112268000D01*
X151912000Y-112522000D01*
X151892000Y-112522000D01*
X151892000Y-113664915D01*
X152114039Y-113786904D01*
X152248087Y-113746246D01*
X152502420Y-113626037D01*
X152728414Y-113458519D01*
X152917385Y-113250131D01*
X153062070Y-113008881D01*
X153156909Y-112744040D01*
X153035625Y-112522002D01*
X153200000Y-112522002D01*
X153200000Y-112403550D01*
X156260881Y-115464433D01*
X156285531Y-115494469D01*
X156315567Y-115519119D01*
X156315570Y-115519122D01*
X156367536Y-115561769D01*
X156405428Y-115592866D01*
X156542217Y-115665982D01*
X156690643Y-115711006D01*
X156806327Y-115722400D01*
X156806335Y-115722400D01*
X156845000Y-115726208D01*
X156883665Y-115722400D01*
X158712889Y-115722400D01*
X158729426Y-115738937D01*
X158898944Y-115852205D01*
X159087302Y-115930226D01*
X159287261Y-115970000D01*
X159491139Y-115970000D01*
X159661747Y-115936064D01*
X157519604Y-118049281D01*
X157483342Y-118079041D01*
X157429678Y-118144431D01*
X157375639Y-118209372D01*
X157374184Y-118212050D01*
X157372248Y-118214409D01*
X157332392Y-118288975D01*
X157292041Y-118363246D01*
X157291135Y-118366160D01*
X157289698Y-118368849D01*
X157265181Y-118449674D01*
X157240069Y-118530474D01*
X157239749Y-118533512D01*
X157238865Y-118536426D01*
X157230590Y-118620438D01*
X157221720Y-118704628D01*
X157226001Y-118751345D01*
X157226001Y-118823016D01*
X157168368Y-118861525D01*
X156961525Y-119068368D01*
X156839805Y-119250534D01*
X156770178Y-119133645D01*
X156575269Y-118917412D01*
X156341920Y-118743359D01*
X156079099Y-118618175D01*
X155931890Y-118573524D01*
X155702000Y-118694845D01*
X155702000Y-119888000D01*
X155722000Y-119888000D01*
X155722000Y-120142000D01*
X155702000Y-120142000D01*
X155702000Y-120162000D01*
X155448000Y-120162000D01*
X155448000Y-120142000D01*
X155428000Y-120142000D01*
X155428000Y-119888000D01*
X155448000Y-119888000D01*
X155448000Y-118694845D01*
X155218110Y-118573524D01*
X155070901Y-118618175D01*
X154808080Y-118743359D01*
X154574731Y-118917412D01*
X154379822Y-119133645D01*
X154310195Y-119250534D01*
X154188475Y-119068368D01*
X153981632Y-118861525D01*
X153738411Y-118699010D01*
X153468158Y-118587068D01*
X153181260Y-118530000D01*
X152888740Y-118530000D01*
X152601842Y-118587068D01*
X152331589Y-118699010D01*
X152088368Y-118861525D01*
X151881525Y-119068368D01*
X151765000Y-119242760D01*
X151648475Y-119068368D01*
X151441632Y-118861525D01*
X151198411Y-118699010D01*
X150928158Y-118587068D01*
X150641260Y-118530000D01*
X150348740Y-118530000D01*
X150061842Y-118587068D01*
X149791589Y-118699010D01*
X149548368Y-118861525D01*
X149341525Y-119068368D01*
X149225000Y-119242760D01*
X149108475Y-119068368D01*
X148901632Y-118861525D01*
X148658411Y-118699010D01*
X148388158Y-118587068D01*
X148101260Y-118530000D01*
X147808740Y-118530000D01*
X147521842Y-118587068D01*
X147251589Y-118699010D01*
X147008368Y-118861525D01*
X146801525Y-119068368D01*
X146685000Y-119242760D01*
X146568475Y-119068368D01*
X146361632Y-118861525D01*
X146118411Y-118699010D01*
X145848158Y-118587068D01*
X145561260Y-118530000D01*
X145268740Y-118530000D01*
X144981842Y-118587068D01*
X144711589Y-118699010D01*
X144468368Y-118861525D01*
X144261525Y-119068368D01*
X144145000Y-119242760D01*
X144028475Y-119068368D01*
X143821632Y-118861525D01*
X143662400Y-118755130D01*
X143662400Y-114856362D01*
X143666208Y-114817699D01*
X143662400Y-114779036D01*
X143662400Y-114779027D01*
X143651006Y-114663343D01*
X143605982Y-114514917D01*
X143532866Y-114378128D01*
X143434469Y-114258231D01*
X143404433Y-114233581D01*
X142600123Y-113429273D01*
X142719637Y-113309759D01*
X142875000Y-113077241D01*
X143030363Y-113309759D01*
X143230241Y-113509637D01*
X143465273Y-113666680D01*
X143726426Y-113774853D01*
X144003665Y-113830000D01*
X144286335Y-113830000D01*
X144436566Y-113800117D01*
X144830881Y-114194433D01*
X144855531Y-114224469D01*
X144885567Y-114249119D01*
X144885569Y-114249121D01*
X144933271Y-114288269D01*
X144975428Y-114322866D01*
X145112217Y-114395982D01*
X145260643Y-114441006D01*
X145376327Y-114452400D01*
X145376336Y-114452400D01*
X145414999Y-114456208D01*
X145453662Y-114452400D01*
X149648906Y-114452400D01*
X149649926Y-114452600D01*
X149725771Y-114452400D01*
X149764073Y-114452400D01*
X149765127Y-114452296D01*
X149805029Y-114452191D01*
X149842106Y-114444714D01*
X149879757Y-114441006D01*
X149917953Y-114429419D01*
X149957072Y-114421531D01*
X149991977Y-114406965D01*
X150028183Y-114395982D01*
X150063388Y-114377165D01*
X150100213Y-114361797D01*
X150131607Y-114340700D01*
X150164972Y-114322866D01*
X150195825Y-114297546D01*
X150196695Y-114296961D01*
X150225950Y-114272823D01*
X150284869Y-114224469D01*
X150285532Y-114223662D01*
X150995788Y-113637627D01*
X151018296Y-113619155D01*
X151027580Y-113626037D01*
X151281913Y-113746246D01*
X151415961Y-113786904D01*
X151638000Y-113664915D01*
X151638000Y-112522000D01*
X151618000Y-112522000D01*
X151618000Y-112268000D01*
X151638000Y-112268000D01*
X151638000Y-112248000D01*
X151892000Y-112248000D01*
X151892000Y-112268000D01*
G37*
G04 #@! TD.AperFunction*
D23*
X212700000Y-119205345D02*
X212608475Y-119068368D01*
X212401632Y-118861525D01*
X212158411Y-118699010D01*
X211888158Y-118587068D01*
X211601260Y-118530000D01*
X211308740Y-118530000D01*
X211021842Y-118587068D01*
X210751589Y-118699010D01*
X210508368Y-118861525D01*
X210301525Y-119068368D01*
X210185000Y-119242760D01*
X210068475Y-119068368D01*
X209861632Y-118861525D01*
X209618411Y-118699010D01*
X209348158Y-118587068D01*
X209061260Y-118530000D01*
X208768740Y-118530000D01*
X208481842Y-118587068D01*
X208211589Y-118699010D01*
X207968368Y-118861525D01*
X207761525Y-119068368D01*
X207645000Y-119242760D01*
X207528475Y-119068368D01*
X207321632Y-118861525D01*
X207078411Y-118699010D01*
X206808158Y-118587068D01*
X206521260Y-118530000D01*
X206228740Y-118530000D01*
X205941842Y-118587068D01*
X205671589Y-118699010D01*
X205428368Y-118861525D01*
X205221525Y-119068368D01*
X205105000Y-119242760D01*
X204988475Y-119068368D01*
X204781632Y-118861525D01*
X204538411Y-118699010D01*
X204268158Y-118587068D01*
X203981260Y-118530000D01*
X203688740Y-118530000D01*
X203401842Y-118587068D01*
X203131589Y-118699010D01*
X202888368Y-118861525D01*
X202681525Y-119068368D01*
X202565000Y-119242760D01*
X202448475Y-119068368D01*
X202241632Y-118861525D01*
X201998411Y-118699010D01*
X201728158Y-118587068D01*
X201441260Y-118530000D01*
X201148740Y-118530000D01*
X200861842Y-118587068D01*
X200591589Y-118699010D01*
X200348368Y-118861525D01*
X200141525Y-119068368D01*
X200025000Y-119242760D01*
X199908475Y-119068368D01*
X199701632Y-118861525D01*
X199540450Y-118753827D01*
X199531006Y-118657943D01*
X199485982Y-118509517D01*
X199419750Y-118385606D01*
X199412866Y-118372727D01*
X199339121Y-118282870D01*
X199314469Y-118252831D01*
X199284428Y-118228177D01*
X194462400Y-113406150D01*
X194462400Y-110947938D01*
X194533153Y-110900662D01*
X194720662Y-110713153D01*
X194867987Y-110492665D01*
X194969467Y-110247672D01*
X195021200Y-109987589D01*
X195021200Y-109722411D01*
X194969467Y-109462328D01*
X194867987Y-109217335D01*
X194720662Y-108996847D01*
X194533153Y-108809338D01*
X194312665Y-108662013D01*
X194124400Y-108584031D01*
X194260280Y-108534542D01*
X194363848Y-108479183D01*
X194424668Y-108244273D01*
X193675000Y-107494605D01*
X192925332Y-108244273D01*
X192986152Y-108479183D01*
X193217934Y-108587206D01*
X193037335Y-108662013D01*
X192816847Y-108809338D01*
X192629338Y-108996847D01*
X192482013Y-109217335D01*
X192405000Y-109403260D01*
X192327987Y-109217335D01*
X192180662Y-108996847D01*
X191993153Y-108809338D01*
X191772665Y-108662013D01*
X191586740Y-108585000D01*
X191772665Y-108507987D01*
X191993153Y-108360662D01*
X192180662Y-108173153D01*
X192327987Y-107952665D01*
X192405969Y-107764400D01*
X192455458Y-107900280D01*
X192510817Y-108003848D01*
X192745727Y-108064668D01*
X193495395Y-107315000D01*
X193481253Y-107300858D01*
X193660858Y-107121253D01*
X193675000Y-107135395D01*
X193689143Y-107121253D01*
X193868748Y-107300858D01*
X193854605Y-107315000D01*
X194604273Y-108064668D01*
X194839183Y-108003848D01*
X194951202Y-107763491D01*
X195014176Y-107505898D01*
X195025687Y-107240970D01*
X194985291Y-106978887D01*
X194894542Y-106729720D01*
X194853854Y-106653600D01*
X196545050Y-106653600D01*
X199932404Y-110040955D01*
X199910000Y-110153589D01*
X199910000Y-110426411D01*
X199963225Y-110693989D01*
X200067629Y-110946043D01*
X200219201Y-111172886D01*
X200412114Y-111365799D01*
X200638957Y-111517371D01*
X200891011Y-111621775D01*
X201158589Y-111675000D01*
X201431411Y-111675000D01*
X201698989Y-111621775D01*
X201951043Y-111517371D01*
X202177886Y-111365799D01*
X202370799Y-111172886D01*
X202522371Y-110946043D01*
X202626775Y-110693989D01*
X202680000Y-110426411D01*
X202680000Y-110348665D01*
X204305000Y-110348665D01*
X204305000Y-110631335D01*
X204360147Y-110908574D01*
X204468320Y-111169727D01*
X204625363Y-111404759D01*
X204825241Y-111604637D01*
X205060273Y-111761680D01*
X205321426Y-111869853D01*
X205598665Y-111925000D01*
X205881335Y-111925000D01*
X206158574Y-111869853D01*
X206419727Y-111761680D01*
X206654759Y-111604637D01*
X206776694Y-111482702D01*
X209926903Y-111482702D01*
X209998486Y-111726671D01*
X210253996Y-111847571D01*
X210528184Y-111916300D01*
X210810512Y-111930217D01*
X211090130Y-111888787D01*
X211356292Y-111793603D01*
X211481514Y-111726671D01*
X211553097Y-111482702D01*
X210740000Y-110669605D01*
X209926903Y-111482702D01*
X206776694Y-111482702D01*
X206854637Y-111404759D01*
X207011680Y-111169727D01*
X207119853Y-110908574D01*
X207175000Y-110631335D01*
X207175000Y-110560512D01*
X209299783Y-110560512D01*
X209341213Y-110840130D01*
X209436397Y-111106292D01*
X209503329Y-111231514D01*
X209747298Y-111303097D01*
X210560395Y-110490000D01*
X210919605Y-110490000D01*
X211732702Y-111303097D01*
X211976671Y-111231514D01*
X212097571Y-110976004D01*
X212166300Y-110701816D01*
X212180217Y-110419488D01*
X212138787Y-110139870D01*
X212043603Y-109873708D01*
X211976671Y-109748486D01*
X211732702Y-109676903D01*
X210919605Y-110490000D01*
X210560395Y-110490000D01*
X209747298Y-109676903D01*
X209503329Y-109748486D01*
X209382429Y-110003996D01*
X209313700Y-110278184D01*
X209299783Y-110560512D01*
X207175000Y-110560512D01*
X207175000Y-110348665D01*
X207119853Y-110071426D01*
X207011680Y-109810273D01*
X206854637Y-109575241D01*
X206776694Y-109497298D01*
X209926903Y-109497298D01*
X210740000Y-110310395D01*
X211553097Y-109497298D01*
X211481514Y-109253329D01*
X211226004Y-109132429D01*
X210951816Y-109063700D01*
X210669488Y-109049783D01*
X210389870Y-109091213D01*
X210123708Y-109186397D01*
X209998486Y-109253329D01*
X209926903Y-109497298D01*
X206776694Y-109497298D01*
X206654759Y-109375363D01*
X206419727Y-109218320D01*
X206158574Y-109110147D01*
X205881335Y-109055000D01*
X205598665Y-109055000D01*
X205321426Y-109110147D01*
X205060273Y-109218320D01*
X204825241Y-109375363D01*
X204625363Y-109575241D01*
X204468320Y-109810273D01*
X204360147Y-110071426D01*
X204305000Y-110348665D01*
X202680000Y-110348665D01*
X202680000Y-110153589D01*
X202626775Y-109886011D01*
X202522371Y-109633957D01*
X202370799Y-109407114D01*
X202177886Y-109214201D01*
X201951043Y-109062629D01*
X201698989Y-108958225D01*
X201431411Y-108905000D01*
X201158589Y-108905000D01*
X201045955Y-108927404D01*
X197680950Y-105562400D01*
X199913180Y-105562400D01*
X199963225Y-105813989D01*
X200067629Y-106066043D01*
X200219201Y-106292886D01*
X200412114Y-106485799D01*
X200638957Y-106637371D01*
X200891011Y-106741775D01*
X201158589Y-106795000D01*
X201431411Y-106795000D01*
X201698989Y-106741775D01*
X201951043Y-106637371D01*
X202177886Y-106485799D01*
X202370799Y-106292886D01*
X202522371Y-106066043D01*
X202626775Y-105813989D01*
X202680000Y-105546411D01*
X202680000Y-105273589D01*
X202679021Y-105268665D01*
X204305000Y-105268665D01*
X204305000Y-105551335D01*
X204360147Y-105828574D01*
X204468320Y-106089727D01*
X204625363Y-106324759D01*
X204825241Y-106524637D01*
X205060273Y-106681680D01*
X205321426Y-106789853D01*
X205598665Y-106845000D01*
X205881335Y-106845000D01*
X206158574Y-106789853D01*
X206419727Y-106681680D01*
X206654759Y-106524637D01*
X206776694Y-106402702D01*
X209926903Y-106402702D01*
X209998486Y-106646671D01*
X210253996Y-106767571D01*
X210528184Y-106836300D01*
X210810512Y-106850217D01*
X211090130Y-106808787D01*
X211356292Y-106713603D01*
X211481514Y-106646671D01*
X211553097Y-106402702D01*
X210740000Y-105589605D01*
X209926903Y-106402702D01*
X206776694Y-106402702D01*
X206854637Y-106324759D01*
X207011680Y-106089727D01*
X207119853Y-105828574D01*
X207175000Y-105551335D01*
X207175000Y-105480512D01*
X209299783Y-105480512D01*
X209341213Y-105760130D01*
X209436397Y-106026292D01*
X209503329Y-106151514D01*
X209747298Y-106223097D01*
X210560395Y-105410000D01*
X210919605Y-105410000D01*
X211732702Y-106223097D01*
X211976671Y-106151514D01*
X212097571Y-105896004D01*
X212166300Y-105621816D01*
X212180217Y-105339488D01*
X212138787Y-105059870D01*
X212043603Y-104793708D01*
X211976671Y-104668486D01*
X211732702Y-104596903D01*
X210919605Y-105410000D01*
X210560395Y-105410000D01*
X209747298Y-104596903D01*
X209503329Y-104668486D01*
X209382429Y-104923996D01*
X209313700Y-105198184D01*
X209299783Y-105480512D01*
X207175000Y-105480512D01*
X207175000Y-105268665D01*
X207119853Y-104991426D01*
X207011680Y-104730273D01*
X206854637Y-104495241D01*
X206776694Y-104417298D01*
X209926903Y-104417298D01*
X210740000Y-105230395D01*
X211553097Y-104417298D01*
X211481514Y-104173329D01*
X211226004Y-104052429D01*
X210951816Y-103983700D01*
X210669488Y-103969783D01*
X210389870Y-104011213D01*
X210123708Y-104106397D01*
X209998486Y-104173329D01*
X209926903Y-104417298D01*
X206776694Y-104417298D01*
X206654759Y-104295363D01*
X206419727Y-104138320D01*
X206158574Y-104030147D01*
X205881335Y-103975000D01*
X205598665Y-103975000D01*
X205321426Y-104030147D01*
X205060273Y-104138320D01*
X204825241Y-104295363D01*
X204625363Y-104495241D01*
X204468320Y-104730273D01*
X204360147Y-104991426D01*
X204305000Y-105268665D01*
X202679021Y-105268665D01*
X202626775Y-105006011D01*
X202522371Y-104753957D01*
X202370799Y-104527114D01*
X202177886Y-104334201D01*
X201951043Y-104182629D01*
X201698989Y-104078225D01*
X201431411Y-104025000D01*
X201158589Y-104025000D01*
X200989957Y-104058543D01*
X200962783Y-104044018D01*
X200814357Y-103998994D01*
X200698673Y-103987600D01*
X200698663Y-103987600D01*
X200660000Y-103983792D01*
X200621337Y-103987600D01*
X194767938Y-103987600D01*
X194720662Y-103916847D01*
X194533153Y-103729338D01*
X194312665Y-103582013D01*
X194126740Y-103505000D01*
X194312665Y-103427987D01*
X194533153Y-103280662D01*
X194720662Y-103093153D01*
X194867987Y-102872665D01*
X194969467Y-102627672D01*
X195021200Y-102367589D01*
X195021200Y-102102411D01*
X194969467Y-101842328D01*
X194867987Y-101597335D01*
X194720662Y-101376847D01*
X194533153Y-101189338D01*
X194312665Y-101042013D01*
X194067672Y-100940533D01*
X193807589Y-100888800D01*
X193542411Y-100888800D01*
X193282328Y-100940533D01*
X193037335Y-101042013D01*
X192816847Y-101189338D01*
X192629338Y-101376847D01*
X192482013Y-101597335D01*
X192405000Y-101783260D01*
X192327987Y-101597335D01*
X192180662Y-101376847D01*
X191993153Y-101189338D01*
X191772665Y-101042013D01*
X191584400Y-100964031D01*
X191720280Y-100914542D01*
X191823848Y-100859183D01*
X191884668Y-100624273D01*
X191135000Y-99874605D01*
X190385332Y-100624273D01*
X190446152Y-100859183D01*
X190677934Y-100967206D01*
X190497335Y-101042013D01*
X190276847Y-101189338D01*
X190089338Y-101376847D01*
X189942013Y-101597335D01*
X189864031Y-101785600D01*
X189814542Y-101649720D01*
X189759183Y-101546152D01*
X189524273Y-101485332D01*
X188774605Y-102235000D01*
X189524273Y-102984668D01*
X189759183Y-102923848D01*
X189867206Y-102692066D01*
X189942013Y-102872665D01*
X190089338Y-103093153D01*
X190276847Y-103280662D01*
X190497335Y-103427987D01*
X190683260Y-103505000D01*
X190497335Y-103582013D01*
X190276847Y-103729338D01*
X190089338Y-103916847D01*
X189942013Y-104137335D01*
X189840533Y-104382328D01*
X189788800Y-104642411D01*
X189788800Y-104907589D01*
X189840533Y-105167672D01*
X189942013Y-105412665D01*
X190089338Y-105633153D01*
X190276847Y-105820662D01*
X190497335Y-105967987D01*
X190683260Y-106045000D01*
X190497335Y-106122013D01*
X190276847Y-106269338D01*
X190089338Y-106456847D01*
X189942013Y-106677335D01*
X189840533Y-106922328D01*
X189788800Y-107182411D01*
X189788800Y-107447589D01*
X189840533Y-107707672D01*
X189942013Y-107952665D01*
X190089338Y-108173153D01*
X190276847Y-108360662D01*
X190497335Y-108507987D01*
X190683260Y-108585000D01*
X190497335Y-108662013D01*
X190276847Y-108809338D01*
X190089338Y-108996847D01*
X189942013Y-109217335D01*
X189865000Y-109403260D01*
X189787987Y-109217335D01*
X189640662Y-108996847D01*
X189453153Y-108809338D01*
X189232665Y-108662013D01*
X188987672Y-108560533D01*
X188727589Y-108508800D01*
X188462411Y-108508800D01*
X188202328Y-108560533D01*
X187957335Y-108662013D01*
X187736847Y-108809338D01*
X187549338Y-108996847D01*
X187402013Y-109217335D01*
X187325000Y-109403260D01*
X187247987Y-109217335D01*
X187100662Y-108996847D01*
X186913153Y-108809338D01*
X186692665Y-108662013D01*
X186447672Y-108560533D01*
X186187589Y-108508800D01*
X185922411Y-108508800D01*
X185662328Y-108560533D01*
X185417335Y-108662013D01*
X185196847Y-108809338D01*
X185009338Y-108996847D01*
X184862013Y-109217335D01*
X184785000Y-109403260D01*
X184707987Y-109217335D01*
X184560662Y-108996847D01*
X184373153Y-108809338D01*
X184152665Y-108662013D01*
X183966740Y-108585000D01*
X184152665Y-108507987D01*
X184373153Y-108360662D01*
X184560662Y-108173153D01*
X184707987Y-107952665D01*
X184809467Y-107707672D01*
X184861200Y-107447589D01*
X184861200Y-107182411D01*
X184809467Y-106922328D01*
X184707987Y-106677335D01*
X184560662Y-106456847D01*
X184373153Y-106269338D01*
X184156046Y-106124272D01*
X184226200Y-106124272D01*
X184350682Y-106112012D01*
X184470380Y-106075702D01*
X184580694Y-106016737D01*
X184677385Y-105937385D01*
X184756737Y-105840694D01*
X184815702Y-105730380D01*
X184852012Y-105610682D01*
X184864272Y-105486200D01*
X184864272Y-104063800D01*
X184852012Y-103939318D01*
X184815702Y-103819620D01*
X184756737Y-103709306D01*
X184677385Y-103612615D01*
X184580694Y-103533263D01*
X184470380Y-103474298D01*
X184350682Y-103437988D01*
X184226200Y-103425728D01*
X184156046Y-103425728D01*
X184373153Y-103280662D01*
X184560662Y-103093153D01*
X184707987Y-102872665D01*
X184785000Y-102686740D01*
X184862013Y-102872665D01*
X185009338Y-103093153D01*
X185196847Y-103280662D01*
X185417335Y-103427987D01*
X185662328Y-103529467D01*
X185922411Y-103581200D01*
X186187589Y-103581200D01*
X186447672Y-103529467D01*
X186692665Y-103427987D01*
X186913153Y-103280662D01*
X187029542Y-103164273D01*
X187845332Y-103164273D01*
X187906152Y-103399183D01*
X188146509Y-103511202D01*
X188404102Y-103574176D01*
X188669030Y-103585687D01*
X188931113Y-103545291D01*
X189180280Y-103454542D01*
X189283848Y-103399183D01*
X189344668Y-103164273D01*
X188595000Y-102414605D01*
X187845332Y-103164273D01*
X187029542Y-103164273D01*
X187100662Y-103093153D01*
X187247987Y-102872665D01*
X187325969Y-102684400D01*
X187375458Y-102820280D01*
X187430817Y-102923848D01*
X187665727Y-102984668D01*
X188415395Y-102235000D01*
X187665727Y-101485332D01*
X187430817Y-101546152D01*
X187322794Y-101777934D01*
X187247987Y-101597335D01*
X187100662Y-101376847D01*
X186913153Y-101189338D01*
X186692665Y-101042013D01*
X186506740Y-100965000D01*
X186692665Y-100887987D01*
X186913153Y-100740662D01*
X187100662Y-100553153D01*
X187247987Y-100332665D01*
X187325000Y-100146740D01*
X187402013Y-100332665D01*
X187549338Y-100553153D01*
X187736847Y-100740662D01*
X187957335Y-100887987D01*
X188145600Y-100965969D01*
X188009720Y-101015458D01*
X187906152Y-101070817D01*
X187845332Y-101305727D01*
X188595000Y-102055395D01*
X189344668Y-101305727D01*
X189283848Y-101070817D01*
X189052066Y-100962794D01*
X189232665Y-100887987D01*
X189453153Y-100740662D01*
X189640662Y-100553153D01*
X189787987Y-100332665D01*
X189865969Y-100144400D01*
X189915458Y-100280280D01*
X189970817Y-100383848D01*
X190205727Y-100444668D01*
X190955395Y-99695000D01*
X191314605Y-99695000D01*
X192064273Y-100444668D01*
X192299183Y-100383848D01*
X192411202Y-100143491D01*
X192474176Y-99885898D01*
X192485687Y-99620970D01*
X192445291Y-99358887D01*
X192354542Y-99109720D01*
X192299183Y-99006152D01*
X192064273Y-98945332D01*
X191314605Y-99695000D01*
X190955395Y-99695000D01*
X190205727Y-98945332D01*
X189970817Y-99006152D01*
X189862794Y-99237934D01*
X189787987Y-99057335D01*
X189640662Y-98836847D01*
X189569542Y-98765727D01*
X190385332Y-98765727D01*
X191135000Y-99515395D01*
X191884668Y-98765727D01*
X191823848Y-98530817D01*
X191583491Y-98418798D01*
X191325898Y-98355824D01*
X191060970Y-98344313D01*
X190798887Y-98384709D01*
X190549720Y-98475458D01*
X190446152Y-98530817D01*
X190385332Y-98765727D01*
X189569542Y-98765727D01*
X189453153Y-98649338D01*
X189232665Y-98502013D01*
X188987672Y-98400533D01*
X188727589Y-98348800D01*
X188462411Y-98348800D01*
X188202328Y-98400533D01*
X187957335Y-98502013D01*
X187736847Y-98649338D01*
X187549338Y-98836847D01*
X187402013Y-99057335D01*
X187325000Y-99243260D01*
X187247987Y-99057335D01*
X187100662Y-98836847D01*
X186913153Y-98649338D01*
X186692665Y-98502013D01*
X186447672Y-98400533D01*
X186187589Y-98348800D01*
X185922411Y-98348800D01*
X185838952Y-98365401D01*
X185369127Y-97895577D01*
X185344469Y-97865531D01*
X185224572Y-97767134D01*
X185087783Y-97694018D01*
X184939357Y-97648994D01*
X184823673Y-97637600D01*
X184823663Y-97637600D01*
X184785000Y-97633792D01*
X184746337Y-97637600D01*
X179743663Y-97637600D01*
X179705000Y-97633792D01*
X179666337Y-97637600D01*
X179666327Y-97637600D01*
X179550643Y-97648994D01*
X179402217Y-97694018D01*
X179265427Y-97767134D01*
X179204465Y-97817165D01*
X179145531Y-97865531D01*
X179120877Y-97895572D01*
X176060000Y-100956450D01*
X176060000Y-100903665D01*
X176052291Y-100864907D01*
X181574899Y-95272724D01*
X181606659Y-95246659D01*
X181636262Y-95210588D01*
X181638224Y-95208601D01*
X181663984Y-95176808D01*
X181717753Y-95111291D01*
X181719077Y-95108813D01*
X181720844Y-95106633D01*
X181760331Y-95031634D01*
X181800303Y-94956851D01*
X181801118Y-94954164D01*
X181802426Y-94951680D01*
X181826541Y-94870353D01*
X181851136Y-94789274D01*
X181851411Y-94786483D01*
X181852210Y-94783788D01*
X181859992Y-94699363D01*
X181864000Y-94658667D01*
X181864000Y-94655876D01*
X181868283Y-94609409D01*
X181864000Y-94568546D01*
X181864000Y-94476849D01*
X181889759Y-94459637D01*
X182089637Y-94259759D01*
X182246680Y-94024727D01*
X182354853Y-93763574D01*
X182410000Y-93486335D01*
X182410000Y-93203665D01*
X182354853Y-92926426D01*
X182246680Y-92665273D01*
X182166317Y-92545000D01*
X184616928Y-92545000D01*
X184616928Y-94145000D01*
X184629188Y-94269482D01*
X184665498Y-94389180D01*
X184724463Y-94499494D01*
X184803815Y-94596185D01*
X184900506Y-94675537D01*
X185010820Y-94734502D01*
X185130518Y-94770812D01*
X185255000Y-94783072D01*
X186855000Y-94783072D01*
X186979482Y-94770812D01*
X187099180Y-94734502D01*
X187209494Y-94675537D01*
X187306185Y-94596185D01*
X187385537Y-94499494D01*
X187444502Y-94389180D01*
X187480812Y-94269482D01*
X187481643Y-94261039D01*
X187680241Y-94459637D01*
X187915273Y-94616680D01*
X188176426Y-94724853D01*
X188453665Y-94780000D01*
X188736335Y-94780000D01*
X189013574Y-94724853D01*
X189274727Y-94616680D01*
X189509759Y-94459637D01*
X189709637Y-94259759D01*
X189865000Y-94027241D01*
X190020363Y-94259759D01*
X190220241Y-94459637D01*
X190455273Y-94616680D01*
X190716426Y-94724853D01*
X190993665Y-94780000D01*
X191276335Y-94780000D01*
X191553574Y-94724853D01*
X191814727Y-94616680D01*
X192049759Y-94459637D01*
X192249637Y-94259759D01*
X192405000Y-94027241D01*
X192560363Y-94259759D01*
X192760241Y-94459637D01*
X192995273Y-94616680D01*
X193256426Y-94724853D01*
X193533665Y-94780000D01*
X193816335Y-94780000D01*
X194093574Y-94724853D01*
X194354727Y-94616680D01*
X194589759Y-94459637D01*
X194789637Y-94259759D01*
X194946680Y-94024727D01*
X195054853Y-93763574D01*
X195110000Y-93486335D01*
X195110000Y-93203665D01*
X195054853Y-92926426D01*
X194946680Y-92665273D01*
X194789637Y-92430241D01*
X194589759Y-92230363D01*
X194354727Y-92073320D01*
X194093574Y-91965147D01*
X193816335Y-91910000D01*
X193533665Y-91910000D01*
X193256426Y-91965147D01*
X192995273Y-92073320D01*
X192760241Y-92230363D01*
X192560363Y-92430241D01*
X192405000Y-92662759D01*
X192249637Y-92430241D01*
X192049759Y-92230363D01*
X191814727Y-92073320D01*
X191553574Y-91965147D01*
X191276335Y-91910000D01*
X190993665Y-91910000D01*
X190716426Y-91965147D01*
X190455273Y-92073320D01*
X190220241Y-92230363D01*
X190020363Y-92430241D01*
X189865000Y-92662759D01*
X189709637Y-92430241D01*
X189509759Y-92230363D01*
X189274727Y-92073320D01*
X189013574Y-91965147D01*
X188736335Y-91910000D01*
X188453665Y-91910000D01*
X188176426Y-91965147D01*
X187915273Y-92073320D01*
X187680241Y-92230363D01*
X187481643Y-92428961D01*
X187480812Y-92420518D01*
X187444502Y-92300820D01*
X187385537Y-92190506D01*
X187306185Y-92093815D01*
X187209494Y-92014463D01*
X187099180Y-91955498D01*
X186979482Y-91919188D01*
X186855000Y-91906928D01*
X185255000Y-91906928D01*
X185130518Y-91919188D01*
X185010820Y-91955498D01*
X184900506Y-92014463D01*
X184803815Y-92093815D01*
X184724463Y-92190506D01*
X184665498Y-92300820D01*
X184629188Y-92420518D01*
X184616928Y-92545000D01*
X182166317Y-92545000D01*
X182089637Y-92430241D01*
X181889759Y-92230363D01*
X181654727Y-92073320D01*
X181393574Y-91965147D01*
X181116335Y-91910000D01*
X180833665Y-91910000D01*
X180556426Y-91965147D01*
X180295273Y-92073320D01*
X180060241Y-92230363D01*
X179860363Y-92430241D01*
X179703320Y-92665273D01*
X179595147Y-92926426D01*
X179540000Y-93203665D01*
X179540000Y-93486335D01*
X179595147Y-93763574D01*
X179703320Y-94024727D01*
X179860363Y-94259759D01*
X179969049Y-94368445D01*
X174788378Y-99614385D01*
X174766335Y-99610000D01*
X174483665Y-99610000D01*
X174206426Y-99665147D01*
X173945273Y-99773320D01*
X173710241Y-99930363D01*
X173510363Y-100130241D01*
X173353320Y-100365273D01*
X173245147Y-100626426D01*
X173190000Y-100903665D01*
X173190000Y-101186335D01*
X173245147Y-101463574D01*
X173353320Y-101724727D01*
X173510363Y-101959759D01*
X173710241Y-102159637D01*
X173945273Y-102316680D01*
X174206426Y-102424853D01*
X174483665Y-102480000D01*
X174536450Y-102480000D01*
X174298850Y-102717600D01*
X168313663Y-102717600D01*
X168275000Y-102713792D01*
X168236337Y-102717600D01*
X168236327Y-102717600D01*
X168120643Y-102728994D01*
X167972217Y-102774018D01*
X167835427Y-102847134D01*
X167804318Y-102872665D01*
X167715531Y-102945531D01*
X167690878Y-102975571D01*
X162712400Y-107954050D01*
X162712400Y-106714136D01*
X162716156Y-106670927D01*
X162708173Y-106598407D01*
X162701006Y-106525643D01*
X162699682Y-106521279D01*
X162699184Y-106516754D01*
X162677194Y-106447144D01*
X162655982Y-106377217D01*
X162653834Y-106373199D01*
X162652462Y-106368855D01*
X162617297Y-106304843D01*
X162582866Y-106240428D01*
X162579976Y-106236906D01*
X162577782Y-106232913D01*
X162530789Y-106176972D01*
X162484469Y-106120531D01*
X162450938Y-106093013D01*
X157059336Y-100823665D01*
X169380000Y-100823665D01*
X169380000Y-101106335D01*
X169435147Y-101383574D01*
X169543320Y-101644727D01*
X169700363Y-101879759D01*
X169900241Y-102079637D01*
X170135273Y-102236680D01*
X170396426Y-102344853D01*
X170673665Y-102400000D01*
X170956335Y-102400000D01*
X171233574Y-102344853D01*
X171494727Y-102236680D01*
X171729759Y-102079637D01*
X171929637Y-101879759D01*
X172086680Y-101644727D01*
X172194853Y-101383574D01*
X172250000Y-101106335D01*
X172250000Y-100823665D01*
X172194853Y-100546426D01*
X172086680Y-100285273D01*
X171929637Y-100050241D01*
X171729759Y-99850363D01*
X171494727Y-99693320D01*
X171233574Y-99585147D01*
X170956335Y-99530000D01*
X170673665Y-99530000D01*
X170396426Y-99585147D01*
X170135273Y-99693320D01*
X169900241Y-99850363D01*
X169700363Y-100050241D01*
X169543320Y-100285273D01*
X169435147Y-100546426D01*
X169380000Y-100823665D01*
X157059336Y-100823665D01*
X155503960Y-99303558D01*
X155620990Y-99128411D01*
X155732932Y-98858158D01*
X155790000Y-98571260D01*
X155790000Y-98278740D01*
X155732932Y-97991842D01*
X155620990Y-97721589D01*
X155458475Y-97478368D01*
X155251632Y-97271525D01*
X155008411Y-97109010D01*
X154738158Y-96997068D01*
X154451260Y-96940000D01*
X154158740Y-96940000D01*
X153871842Y-96997068D01*
X153601589Y-97109010D01*
X153358368Y-97271525D01*
X153151525Y-97478368D01*
X153035000Y-97652760D01*
X152918475Y-97478368D01*
X152711632Y-97271525D01*
X152468411Y-97109010D01*
X152198158Y-96997068D01*
X151911260Y-96940000D01*
X151618740Y-96940000D01*
X151331842Y-96997068D01*
X151061589Y-97109010D01*
X150818368Y-97271525D01*
X150611525Y-97478368D01*
X150495000Y-97652760D01*
X150378475Y-97478368D01*
X150171632Y-97271525D01*
X149928411Y-97109010D01*
X149658158Y-96997068D01*
X149371260Y-96940000D01*
X149078740Y-96940000D01*
X148791842Y-96997068D01*
X148521589Y-97109010D01*
X148278368Y-97271525D01*
X148071525Y-97478368D01*
X147955000Y-97652760D01*
X147838475Y-97478368D01*
X147631632Y-97271525D01*
X147388411Y-97109010D01*
X147118158Y-96997068D01*
X146831260Y-96940000D01*
X146538740Y-96940000D01*
X146251842Y-96997068D01*
X145981589Y-97109010D01*
X145738368Y-97271525D01*
X145531525Y-97478368D01*
X145415000Y-97652760D01*
X145298475Y-97478368D01*
X145091632Y-97271525D01*
X144848411Y-97109010D01*
X144578158Y-96997068D01*
X144291260Y-96940000D01*
X143998740Y-96940000D01*
X143711842Y-96997068D01*
X143441589Y-97109010D01*
X143198368Y-97271525D01*
X142991525Y-97478368D01*
X142875000Y-97652760D01*
X142758475Y-97478368D01*
X142551632Y-97271525D01*
X142308411Y-97109010D01*
X142038158Y-96997068D01*
X141751260Y-96940000D01*
X141458740Y-96940000D01*
X141171842Y-96997068D01*
X140901589Y-97109010D01*
X140658368Y-97271525D01*
X140451525Y-97478368D01*
X140335000Y-97652760D01*
X140218475Y-97478368D01*
X140011632Y-97271525D01*
X139768411Y-97109010D01*
X139498158Y-96997068D01*
X139211260Y-96940000D01*
X138918740Y-96940000D01*
X138631842Y-96997068D01*
X138361589Y-97109010D01*
X138118368Y-97271525D01*
X137911525Y-97478368D01*
X137795000Y-97652760D01*
X137678475Y-97478368D01*
X137471632Y-97271525D01*
X137228411Y-97109010D01*
X136958158Y-96997068D01*
X136671260Y-96940000D01*
X136378740Y-96940000D01*
X136091842Y-96997068D01*
X135821589Y-97109010D01*
X135578368Y-97271525D01*
X135371525Y-97478368D01*
X135209010Y-97721589D01*
X135097068Y-97991842D01*
X135040000Y-98278740D01*
X135040000Y-98571260D01*
X135097068Y-98858158D01*
X135209010Y-99128411D01*
X135371525Y-99371632D01*
X135503380Y-99503487D01*
X135430820Y-99525498D01*
X135320506Y-99584463D01*
X135223815Y-99663815D01*
X135144463Y-99760506D01*
X135085498Y-99870820D01*
X135049188Y-99990518D01*
X135036928Y-100115000D01*
X135036928Y-101815000D01*
X135049188Y-101939482D01*
X135085498Y-102059180D01*
X135144463Y-102169494D01*
X135223815Y-102266185D01*
X135320506Y-102345537D01*
X135430820Y-102404502D01*
X135550518Y-102440812D01*
X135675000Y-102453072D01*
X135737600Y-102453072D01*
X135737601Y-103575264D01*
X135610241Y-103660363D01*
X135410363Y-103860241D01*
X135255000Y-104092759D01*
X135099637Y-103860241D01*
X134899759Y-103660363D01*
X134664727Y-103503320D01*
X134403574Y-103395147D01*
X134126335Y-103340000D01*
X133843665Y-103340000D01*
X133566426Y-103395147D01*
X133305273Y-103503320D01*
X133070241Y-103660363D01*
X132870363Y-103860241D01*
X132713320Y-104095273D01*
X132605147Y-104356426D01*
X132550000Y-104633665D01*
X132550000Y-104916335D01*
X132605147Y-105193574D01*
X132713320Y-105454727D01*
X132870363Y-105689759D01*
X133070241Y-105889637D01*
X133305273Y-106046680D01*
X133566426Y-106154853D01*
X133843665Y-106210000D01*
X134126335Y-106210000D01*
X134403574Y-106154853D01*
X134664727Y-106046680D01*
X134899759Y-105889637D01*
X135099637Y-105689759D01*
X135255000Y-105457241D01*
X135410363Y-105689759D01*
X135610241Y-105889637D01*
X135845273Y-106046680D01*
X136106426Y-106154853D01*
X136383665Y-106210000D01*
X136666335Y-106210000D01*
X136943574Y-106154853D01*
X137204727Y-106046680D01*
X137439759Y-105889637D01*
X137639637Y-105689759D01*
X137795000Y-105457241D01*
X137950363Y-105689759D01*
X138150241Y-105889637D01*
X138385273Y-106046680D01*
X138646426Y-106154853D01*
X138923665Y-106210000D01*
X139206335Y-106210000D01*
X139483574Y-106154853D01*
X139744727Y-106046680D01*
X139979759Y-105889637D01*
X140179637Y-105689759D01*
X140335000Y-105457241D01*
X140490363Y-105689759D01*
X140690241Y-105889637D01*
X140925273Y-106046680D01*
X141186426Y-106154853D01*
X141463665Y-106210000D01*
X141746335Y-106210000D01*
X142023574Y-106154853D01*
X142284727Y-106046680D01*
X142519759Y-105889637D01*
X142719637Y-105689759D01*
X142875000Y-105457241D01*
X143030363Y-105689759D01*
X143230241Y-105889637D01*
X143465273Y-106046680D01*
X143726426Y-106154853D01*
X144003665Y-106210000D01*
X144286335Y-106210000D01*
X144563574Y-106154853D01*
X144824727Y-106046680D01*
X145059759Y-105889637D01*
X145259637Y-105689759D01*
X145415000Y-105457241D01*
X145570363Y-105689759D01*
X145770241Y-105889637D01*
X146005273Y-106046680D01*
X146266426Y-106154853D01*
X146543665Y-106210000D01*
X146826335Y-106210000D01*
X147103574Y-106154853D01*
X147364727Y-106046680D01*
X147599759Y-105889637D01*
X147799637Y-105689759D01*
X147955000Y-105457241D01*
X148110363Y-105689759D01*
X148310241Y-105889637D01*
X148545273Y-106046680D01*
X148806426Y-106154853D01*
X149083665Y-106210000D01*
X149366335Y-106210000D01*
X149643574Y-106154853D01*
X149904727Y-106046680D01*
X150139759Y-105889637D01*
X150339637Y-105689759D01*
X150495000Y-105457241D01*
X150650363Y-105689759D01*
X150850241Y-105889637D01*
X151055598Y-106026852D01*
X146625499Y-110456951D01*
X146530643Y-110466294D01*
X146382217Y-110511318D01*
X146245428Y-110584434D01*
X146125531Y-110682831D01*
X146027134Y-110802728D01*
X145954018Y-110939517D01*
X145908994Y-111087943D01*
X145898482Y-111194676D01*
X145770241Y-111280363D01*
X145570363Y-111480241D01*
X145415000Y-111712759D01*
X145259637Y-111480241D01*
X145059759Y-111280363D01*
X144824727Y-111123320D01*
X144563574Y-111015147D01*
X144286335Y-110960000D01*
X144003665Y-110960000D01*
X143726426Y-111015147D01*
X143465273Y-111123320D01*
X143230241Y-111280363D01*
X143030363Y-111480241D01*
X142875000Y-111712759D01*
X142719637Y-111480241D01*
X142519759Y-111280363D01*
X142284727Y-111123320D01*
X142023574Y-111015147D01*
X141746335Y-110960000D01*
X141463665Y-110960000D01*
X141186426Y-111015147D01*
X140925273Y-111123320D01*
X140857294Y-111168742D01*
X140284127Y-110595577D01*
X140259469Y-110565531D01*
X140139572Y-110467134D01*
X140002783Y-110394018D01*
X139854357Y-110348994D01*
X139738673Y-110337600D01*
X139738663Y-110337600D01*
X139700000Y-110333792D01*
X139661337Y-110337600D01*
X135293662Y-110337600D01*
X135254999Y-110333792D01*
X135216336Y-110337600D01*
X135216327Y-110337600D01*
X135100643Y-110348994D01*
X134952217Y-110394018D01*
X134815428Y-110467134D01*
X134791637Y-110486659D01*
X134725569Y-110540879D01*
X134725567Y-110540881D01*
X134695531Y-110565531D01*
X134670881Y-110595567D01*
X134309521Y-110956928D01*
X133185000Y-110956928D01*
X133060518Y-110969188D01*
X132940820Y-111005498D01*
X132830506Y-111064463D01*
X132733815Y-111143815D01*
X132654463Y-111240506D01*
X132595498Y-111350820D01*
X132559188Y-111470518D01*
X132546928Y-111595000D01*
X132546928Y-113195000D01*
X132559188Y-113319482D01*
X132595498Y-113439180D01*
X132654463Y-113549494D01*
X132733815Y-113646185D01*
X132830506Y-113725537D01*
X132940820Y-113784502D01*
X133060518Y-113820812D01*
X133185000Y-113833072D01*
X134785000Y-113833072D01*
X134909482Y-113820812D01*
X135029180Y-113784502D01*
X135139494Y-113725537D01*
X135236185Y-113646185D01*
X135315537Y-113549494D01*
X135374502Y-113439180D01*
X135410812Y-113319482D01*
X135411643Y-113311039D01*
X135610241Y-113509637D01*
X135845273Y-113666680D01*
X136106426Y-113774853D01*
X136383665Y-113830000D01*
X136666335Y-113830000D01*
X136943574Y-113774853D01*
X137204727Y-113666680D01*
X137439759Y-113509637D01*
X137639637Y-113309759D01*
X137795000Y-113077241D01*
X137950363Y-113309759D01*
X138069876Y-113429272D01*
X134725573Y-116773577D01*
X134695532Y-116798231D01*
X134663995Y-116836659D01*
X134597135Y-116918128D01*
X134524018Y-117054918D01*
X134478995Y-117203343D01*
X134463792Y-117357700D01*
X134467601Y-117396373D01*
X134467600Y-118755129D01*
X134308368Y-118861525D01*
X134101525Y-119068368D01*
X133985000Y-119242760D01*
X133868475Y-119068368D01*
X133661632Y-118861525D01*
X133418411Y-118699010D01*
X133148158Y-118587068D01*
X132861260Y-118530000D01*
X132568740Y-118530000D01*
X132281842Y-118587068D01*
X132011589Y-118699010D01*
X131768368Y-118861525D01*
X131561525Y-119068368D01*
X131445000Y-119242760D01*
X131328475Y-119068368D01*
X131121632Y-118861525D01*
X130878411Y-118699010D01*
X130608158Y-118587068D01*
X130321260Y-118530000D01*
X130028740Y-118530000D01*
X129741842Y-118587068D01*
X129471589Y-118699010D01*
X129228368Y-118861525D01*
X129021525Y-119068368D01*
X128905000Y-119242760D01*
X128788475Y-119068368D01*
X128581632Y-118861525D01*
X128338411Y-118699010D01*
X128068158Y-118587068D01*
X127781260Y-118530000D01*
X127488740Y-118530000D01*
X127201842Y-118587068D01*
X126931589Y-118699010D01*
X126688368Y-118861525D01*
X126481525Y-119068368D01*
X126365000Y-119242760D01*
X126248475Y-119068368D01*
X126041632Y-118861525D01*
X125798411Y-118699010D01*
X125528158Y-118587068D01*
X125241260Y-118530000D01*
X124948740Y-118530000D01*
X124661842Y-118587068D01*
X124391589Y-118699010D01*
X124148368Y-118861525D01*
X123941525Y-119068368D01*
X123825000Y-119242760D01*
X123708475Y-119068368D01*
X123501632Y-118861525D01*
X123258411Y-118699010D01*
X122988158Y-118587068D01*
X122701260Y-118530000D01*
X122408740Y-118530000D01*
X122121842Y-118587068D01*
X121851589Y-118699010D01*
X121608368Y-118861525D01*
X121401525Y-119068368D01*
X121285000Y-119242760D01*
X121168475Y-119068368D01*
X120961632Y-118861525D01*
X120718411Y-118699010D01*
X120448158Y-118587068D01*
X120161260Y-118530000D01*
X119868740Y-118530000D01*
X119581842Y-118587068D01*
X119311589Y-118699010D01*
X119068368Y-118861525D01*
X118861525Y-119068368D01*
X118745000Y-119242760D01*
X118628475Y-119068368D01*
X118421632Y-118861525D01*
X118178411Y-118699010D01*
X117908158Y-118587068D01*
X117621260Y-118530000D01*
X117328740Y-118530000D01*
X117041842Y-118587068D01*
X116771589Y-118699010D01*
X116528368Y-118861525D01*
X116396513Y-118993380D01*
X116374502Y-118920820D01*
X116315537Y-118810506D01*
X116236185Y-118713815D01*
X116139494Y-118634463D01*
X116029180Y-118575498D01*
X115909482Y-118539188D01*
X115785000Y-118526928D01*
X114325000Y-118526928D01*
X114325000Y-110847702D01*
X128726903Y-110847702D01*
X128798486Y-111091671D01*
X129053996Y-111212571D01*
X129328184Y-111281300D01*
X129610512Y-111295217D01*
X129890130Y-111253787D01*
X130156292Y-111158603D01*
X130281514Y-111091671D01*
X130353097Y-110847702D01*
X129540000Y-110034605D01*
X128726903Y-110847702D01*
X114325000Y-110847702D01*
X114325000Y-109925512D01*
X128099783Y-109925512D01*
X128141213Y-110205130D01*
X128236397Y-110471292D01*
X128303329Y-110596514D01*
X128547298Y-110668097D01*
X129360395Y-109855000D01*
X129719605Y-109855000D01*
X130532702Y-110668097D01*
X130776671Y-110596514D01*
X130897571Y-110341004D01*
X130966300Y-110066816D01*
X130980217Y-109784488D01*
X130938787Y-109504870D01*
X130843603Y-109238708D01*
X130776671Y-109113486D01*
X130532702Y-109041903D01*
X129719605Y-109855000D01*
X129360395Y-109855000D01*
X128547298Y-109041903D01*
X128303329Y-109113486D01*
X128182429Y-109368996D01*
X128113700Y-109643184D01*
X128099783Y-109925512D01*
X114325000Y-109925512D01*
X114325000Y-108862298D01*
X128726903Y-108862298D01*
X129540000Y-109675395D01*
X130353097Y-108862298D01*
X130281514Y-108618329D01*
X130026004Y-108497429D01*
X129751816Y-108428700D01*
X129469488Y-108414783D01*
X129189870Y-108456213D01*
X128923708Y-108551397D01*
X128798486Y-108618329D01*
X128726903Y-108862298D01*
X114325000Y-108862298D01*
X114325000Y-104713665D01*
X128105000Y-104713665D01*
X128105000Y-104996335D01*
X128160147Y-105273574D01*
X128268320Y-105534727D01*
X128425363Y-105769759D01*
X128625241Y-105969637D01*
X128860273Y-106126680D01*
X129121426Y-106234853D01*
X129398665Y-106290000D01*
X129681335Y-106290000D01*
X129958574Y-106234853D01*
X130219727Y-106126680D01*
X130454759Y-105969637D01*
X130654637Y-105769759D01*
X130811680Y-105534727D01*
X130919853Y-105273574D01*
X130975000Y-104996335D01*
X130975000Y-104713665D01*
X130919853Y-104436426D01*
X130811680Y-104175273D01*
X130654637Y-103940241D01*
X130454759Y-103740363D01*
X130219727Y-103583320D01*
X129958574Y-103475147D01*
X129681335Y-103420000D01*
X129398665Y-103420000D01*
X129121426Y-103475147D01*
X128860273Y-103583320D01*
X128625241Y-103740363D01*
X128425363Y-103940241D01*
X128268320Y-104175273D01*
X128160147Y-104436426D01*
X128105000Y-104713665D01*
X114325000Y-104713665D01*
X114325000Y-91567000D01*
X212700001Y-91567000D01*
X212700000Y-119205345D01*
G04 #@! TA.AperFunction,Conductor*
D24*
G36*
X212700000Y-119205345D02*
G01*
X212608475Y-119068368D01*
X212401632Y-118861525D01*
X212158411Y-118699010D01*
X211888158Y-118587068D01*
X211601260Y-118530000D01*
X211308740Y-118530000D01*
X211021842Y-118587068D01*
X210751589Y-118699010D01*
X210508368Y-118861525D01*
X210301525Y-119068368D01*
X210185000Y-119242760D01*
X210068475Y-119068368D01*
X209861632Y-118861525D01*
X209618411Y-118699010D01*
X209348158Y-118587068D01*
X209061260Y-118530000D01*
X208768740Y-118530000D01*
X208481842Y-118587068D01*
X208211589Y-118699010D01*
X207968368Y-118861525D01*
X207761525Y-119068368D01*
X207645000Y-119242760D01*
X207528475Y-119068368D01*
X207321632Y-118861525D01*
X207078411Y-118699010D01*
X206808158Y-118587068D01*
X206521260Y-118530000D01*
X206228740Y-118530000D01*
X205941842Y-118587068D01*
X205671589Y-118699010D01*
X205428368Y-118861525D01*
X205221525Y-119068368D01*
X205105000Y-119242760D01*
X204988475Y-119068368D01*
X204781632Y-118861525D01*
X204538411Y-118699010D01*
X204268158Y-118587068D01*
X203981260Y-118530000D01*
X203688740Y-118530000D01*
X203401842Y-118587068D01*
X203131589Y-118699010D01*
X202888368Y-118861525D01*
X202681525Y-119068368D01*
X202565000Y-119242760D01*
X202448475Y-119068368D01*
X202241632Y-118861525D01*
X201998411Y-118699010D01*
X201728158Y-118587068D01*
X201441260Y-118530000D01*
X201148740Y-118530000D01*
X200861842Y-118587068D01*
X200591589Y-118699010D01*
X200348368Y-118861525D01*
X200141525Y-119068368D01*
X200025000Y-119242760D01*
X199908475Y-119068368D01*
X199701632Y-118861525D01*
X199540450Y-118753827D01*
X199531006Y-118657943D01*
X199485982Y-118509517D01*
X199419750Y-118385606D01*
X199412866Y-118372727D01*
X199339121Y-118282870D01*
X199314469Y-118252831D01*
X199284428Y-118228177D01*
X194462400Y-113406150D01*
X194462400Y-110947938D01*
X194533153Y-110900662D01*
X194720662Y-110713153D01*
X194867987Y-110492665D01*
X194969467Y-110247672D01*
X195021200Y-109987589D01*
X195021200Y-109722411D01*
X194969467Y-109462328D01*
X194867987Y-109217335D01*
X194720662Y-108996847D01*
X194533153Y-108809338D01*
X194312665Y-108662013D01*
X194124400Y-108584031D01*
X194260280Y-108534542D01*
X194363848Y-108479183D01*
X194424668Y-108244273D01*
X193675000Y-107494605D01*
X192925332Y-108244273D01*
X192986152Y-108479183D01*
X193217934Y-108587206D01*
X193037335Y-108662013D01*
X192816847Y-108809338D01*
X192629338Y-108996847D01*
X192482013Y-109217335D01*
X192405000Y-109403260D01*
X192327987Y-109217335D01*
X192180662Y-108996847D01*
X191993153Y-108809338D01*
X191772665Y-108662013D01*
X191586740Y-108585000D01*
X191772665Y-108507987D01*
X191993153Y-108360662D01*
X192180662Y-108173153D01*
X192327987Y-107952665D01*
X192405969Y-107764400D01*
X192455458Y-107900280D01*
X192510817Y-108003848D01*
X192745727Y-108064668D01*
X193495395Y-107315000D01*
X193481253Y-107300858D01*
X193660858Y-107121253D01*
X193675000Y-107135395D01*
X193689143Y-107121253D01*
X193868748Y-107300858D01*
X193854605Y-107315000D01*
X194604273Y-108064668D01*
X194839183Y-108003848D01*
X194951202Y-107763491D01*
X195014176Y-107505898D01*
X195025687Y-107240970D01*
X194985291Y-106978887D01*
X194894542Y-106729720D01*
X194853854Y-106653600D01*
X196545050Y-106653600D01*
X199932404Y-110040955D01*
X199910000Y-110153589D01*
X199910000Y-110426411D01*
X199963225Y-110693989D01*
X200067629Y-110946043D01*
X200219201Y-111172886D01*
X200412114Y-111365799D01*
X200638957Y-111517371D01*
X200891011Y-111621775D01*
X201158589Y-111675000D01*
X201431411Y-111675000D01*
X201698989Y-111621775D01*
X201951043Y-111517371D01*
X202177886Y-111365799D01*
X202370799Y-111172886D01*
X202522371Y-110946043D01*
X202626775Y-110693989D01*
X202680000Y-110426411D01*
X202680000Y-110348665D01*
X204305000Y-110348665D01*
X204305000Y-110631335D01*
X204360147Y-110908574D01*
X204468320Y-111169727D01*
X204625363Y-111404759D01*
X204825241Y-111604637D01*
X205060273Y-111761680D01*
X205321426Y-111869853D01*
X205598665Y-111925000D01*
X205881335Y-111925000D01*
X206158574Y-111869853D01*
X206419727Y-111761680D01*
X206654759Y-111604637D01*
X206776694Y-111482702D01*
X209926903Y-111482702D01*
X209998486Y-111726671D01*
X210253996Y-111847571D01*
X210528184Y-111916300D01*
X210810512Y-111930217D01*
X211090130Y-111888787D01*
X211356292Y-111793603D01*
X211481514Y-111726671D01*
X211553097Y-111482702D01*
X210740000Y-110669605D01*
X209926903Y-111482702D01*
X206776694Y-111482702D01*
X206854637Y-111404759D01*
X207011680Y-111169727D01*
X207119853Y-110908574D01*
X207175000Y-110631335D01*
X207175000Y-110560512D01*
X209299783Y-110560512D01*
X209341213Y-110840130D01*
X209436397Y-111106292D01*
X209503329Y-111231514D01*
X209747298Y-111303097D01*
X210560395Y-110490000D01*
X210919605Y-110490000D01*
X211732702Y-111303097D01*
X211976671Y-111231514D01*
X212097571Y-110976004D01*
X212166300Y-110701816D01*
X212180217Y-110419488D01*
X212138787Y-110139870D01*
X212043603Y-109873708D01*
X211976671Y-109748486D01*
X211732702Y-109676903D01*
X210919605Y-110490000D01*
X210560395Y-110490000D01*
X209747298Y-109676903D01*
X209503329Y-109748486D01*
X209382429Y-110003996D01*
X209313700Y-110278184D01*
X209299783Y-110560512D01*
X207175000Y-110560512D01*
X207175000Y-110348665D01*
X207119853Y-110071426D01*
X207011680Y-109810273D01*
X206854637Y-109575241D01*
X206776694Y-109497298D01*
X209926903Y-109497298D01*
X210740000Y-110310395D01*
X211553097Y-109497298D01*
X211481514Y-109253329D01*
X211226004Y-109132429D01*
X210951816Y-109063700D01*
X210669488Y-109049783D01*
X210389870Y-109091213D01*
X210123708Y-109186397D01*
X209998486Y-109253329D01*
X209926903Y-109497298D01*
X206776694Y-109497298D01*
X206654759Y-109375363D01*
X206419727Y-109218320D01*
X206158574Y-109110147D01*
X205881335Y-109055000D01*
X205598665Y-109055000D01*
X205321426Y-109110147D01*
X205060273Y-109218320D01*
X204825241Y-109375363D01*
X204625363Y-109575241D01*
X204468320Y-109810273D01*
X204360147Y-110071426D01*
X204305000Y-110348665D01*
X202680000Y-110348665D01*
X202680000Y-110153589D01*
X202626775Y-109886011D01*
X202522371Y-109633957D01*
X202370799Y-109407114D01*
X202177886Y-109214201D01*
X201951043Y-109062629D01*
X201698989Y-108958225D01*
X201431411Y-108905000D01*
X201158589Y-108905000D01*
X201045955Y-108927404D01*
X197680950Y-105562400D01*
X199913180Y-105562400D01*
X199963225Y-105813989D01*
X200067629Y-106066043D01*
X200219201Y-106292886D01*
X200412114Y-106485799D01*
X200638957Y-106637371D01*
X200891011Y-106741775D01*
X201158589Y-106795000D01*
X201431411Y-106795000D01*
X201698989Y-106741775D01*
X201951043Y-106637371D01*
X202177886Y-106485799D01*
X202370799Y-106292886D01*
X202522371Y-106066043D01*
X202626775Y-105813989D01*
X202680000Y-105546411D01*
X202680000Y-105273589D01*
X202679021Y-105268665D01*
X204305000Y-105268665D01*
X204305000Y-105551335D01*
X204360147Y-105828574D01*
X204468320Y-106089727D01*
X204625363Y-106324759D01*
X204825241Y-106524637D01*
X205060273Y-106681680D01*
X205321426Y-106789853D01*
X205598665Y-106845000D01*
X205881335Y-106845000D01*
X206158574Y-106789853D01*
X206419727Y-106681680D01*
X206654759Y-106524637D01*
X206776694Y-106402702D01*
X209926903Y-106402702D01*
X209998486Y-106646671D01*
X210253996Y-106767571D01*
X210528184Y-106836300D01*
X210810512Y-106850217D01*
X211090130Y-106808787D01*
X211356292Y-106713603D01*
X211481514Y-106646671D01*
X211553097Y-106402702D01*
X210740000Y-105589605D01*
X209926903Y-106402702D01*
X206776694Y-106402702D01*
X206854637Y-106324759D01*
X207011680Y-106089727D01*
X207119853Y-105828574D01*
X207175000Y-105551335D01*
X207175000Y-105480512D01*
X209299783Y-105480512D01*
X209341213Y-105760130D01*
X209436397Y-106026292D01*
X209503329Y-106151514D01*
X209747298Y-106223097D01*
X210560395Y-105410000D01*
X210919605Y-105410000D01*
X211732702Y-106223097D01*
X211976671Y-106151514D01*
X212097571Y-105896004D01*
X212166300Y-105621816D01*
X212180217Y-105339488D01*
X212138787Y-105059870D01*
X212043603Y-104793708D01*
X211976671Y-104668486D01*
X211732702Y-104596903D01*
X210919605Y-105410000D01*
X210560395Y-105410000D01*
X209747298Y-104596903D01*
X209503329Y-104668486D01*
X209382429Y-104923996D01*
X209313700Y-105198184D01*
X209299783Y-105480512D01*
X207175000Y-105480512D01*
X207175000Y-105268665D01*
X207119853Y-104991426D01*
X207011680Y-104730273D01*
X206854637Y-104495241D01*
X206776694Y-104417298D01*
X209926903Y-104417298D01*
X210740000Y-105230395D01*
X211553097Y-104417298D01*
X211481514Y-104173329D01*
X211226004Y-104052429D01*
X210951816Y-103983700D01*
X210669488Y-103969783D01*
X210389870Y-104011213D01*
X210123708Y-104106397D01*
X209998486Y-104173329D01*
X209926903Y-104417298D01*
X206776694Y-104417298D01*
X206654759Y-104295363D01*
X206419727Y-104138320D01*
X206158574Y-104030147D01*
X205881335Y-103975000D01*
X205598665Y-103975000D01*
X205321426Y-104030147D01*
X205060273Y-104138320D01*
X204825241Y-104295363D01*
X204625363Y-104495241D01*
X204468320Y-104730273D01*
X204360147Y-104991426D01*
X204305000Y-105268665D01*
X202679021Y-105268665D01*
X202626775Y-105006011D01*
X202522371Y-104753957D01*
X202370799Y-104527114D01*
X202177886Y-104334201D01*
X201951043Y-104182629D01*
X201698989Y-104078225D01*
X201431411Y-104025000D01*
X201158589Y-104025000D01*
X200989957Y-104058543D01*
X200962783Y-104044018D01*
X200814357Y-103998994D01*
X200698673Y-103987600D01*
X200698663Y-103987600D01*
X200660000Y-103983792D01*
X200621337Y-103987600D01*
X194767938Y-103987600D01*
X194720662Y-103916847D01*
X194533153Y-103729338D01*
X194312665Y-103582013D01*
X194126740Y-103505000D01*
X194312665Y-103427987D01*
X194533153Y-103280662D01*
X194720662Y-103093153D01*
X194867987Y-102872665D01*
X194969467Y-102627672D01*
X195021200Y-102367589D01*
X195021200Y-102102411D01*
X194969467Y-101842328D01*
X194867987Y-101597335D01*
X194720662Y-101376847D01*
X194533153Y-101189338D01*
X194312665Y-101042013D01*
X194067672Y-100940533D01*
X193807589Y-100888800D01*
X193542411Y-100888800D01*
X193282328Y-100940533D01*
X193037335Y-101042013D01*
X192816847Y-101189338D01*
X192629338Y-101376847D01*
X192482013Y-101597335D01*
X192405000Y-101783260D01*
X192327987Y-101597335D01*
X192180662Y-101376847D01*
X191993153Y-101189338D01*
X191772665Y-101042013D01*
X191584400Y-100964031D01*
X191720280Y-100914542D01*
X191823848Y-100859183D01*
X191884668Y-100624273D01*
X191135000Y-99874605D01*
X190385332Y-100624273D01*
X190446152Y-100859183D01*
X190677934Y-100967206D01*
X190497335Y-101042013D01*
X190276847Y-101189338D01*
X190089338Y-101376847D01*
X189942013Y-101597335D01*
X189864031Y-101785600D01*
X189814542Y-101649720D01*
X189759183Y-101546152D01*
X189524273Y-101485332D01*
X188774605Y-102235000D01*
X189524273Y-102984668D01*
X189759183Y-102923848D01*
X189867206Y-102692066D01*
X189942013Y-102872665D01*
X190089338Y-103093153D01*
X190276847Y-103280662D01*
X190497335Y-103427987D01*
X190683260Y-103505000D01*
X190497335Y-103582013D01*
X190276847Y-103729338D01*
X190089338Y-103916847D01*
X189942013Y-104137335D01*
X189840533Y-104382328D01*
X189788800Y-104642411D01*
X189788800Y-104907589D01*
X189840533Y-105167672D01*
X189942013Y-105412665D01*
X190089338Y-105633153D01*
X190276847Y-105820662D01*
X190497335Y-105967987D01*
X190683260Y-106045000D01*
X190497335Y-106122013D01*
X190276847Y-106269338D01*
X190089338Y-106456847D01*
X189942013Y-106677335D01*
X189840533Y-106922328D01*
X189788800Y-107182411D01*
X189788800Y-107447589D01*
X189840533Y-107707672D01*
X189942013Y-107952665D01*
X190089338Y-108173153D01*
X190276847Y-108360662D01*
X190497335Y-108507987D01*
X190683260Y-108585000D01*
X190497335Y-108662013D01*
X190276847Y-108809338D01*
X190089338Y-108996847D01*
X189942013Y-109217335D01*
X189865000Y-109403260D01*
X189787987Y-109217335D01*
X189640662Y-108996847D01*
X189453153Y-108809338D01*
X189232665Y-108662013D01*
X188987672Y-108560533D01*
X188727589Y-108508800D01*
X188462411Y-108508800D01*
X188202328Y-108560533D01*
X187957335Y-108662013D01*
X187736847Y-108809338D01*
X187549338Y-108996847D01*
X187402013Y-109217335D01*
X187325000Y-109403260D01*
X187247987Y-109217335D01*
X187100662Y-108996847D01*
X186913153Y-108809338D01*
X186692665Y-108662013D01*
X186447672Y-108560533D01*
X186187589Y-108508800D01*
X185922411Y-108508800D01*
X185662328Y-108560533D01*
X185417335Y-108662013D01*
X185196847Y-108809338D01*
X185009338Y-108996847D01*
X184862013Y-109217335D01*
X184785000Y-109403260D01*
X184707987Y-109217335D01*
X184560662Y-108996847D01*
X184373153Y-108809338D01*
X184152665Y-108662013D01*
X183966740Y-108585000D01*
X184152665Y-108507987D01*
X184373153Y-108360662D01*
X184560662Y-108173153D01*
X184707987Y-107952665D01*
X184809467Y-107707672D01*
X184861200Y-107447589D01*
X184861200Y-107182411D01*
X184809467Y-106922328D01*
X184707987Y-106677335D01*
X184560662Y-106456847D01*
X184373153Y-106269338D01*
X184156046Y-106124272D01*
X184226200Y-106124272D01*
X184350682Y-106112012D01*
X184470380Y-106075702D01*
X184580694Y-106016737D01*
X184677385Y-105937385D01*
X184756737Y-105840694D01*
X184815702Y-105730380D01*
X184852012Y-105610682D01*
X184864272Y-105486200D01*
X184864272Y-104063800D01*
X184852012Y-103939318D01*
X184815702Y-103819620D01*
X184756737Y-103709306D01*
X184677385Y-103612615D01*
X184580694Y-103533263D01*
X184470380Y-103474298D01*
X184350682Y-103437988D01*
X184226200Y-103425728D01*
X184156046Y-103425728D01*
X184373153Y-103280662D01*
X184560662Y-103093153D01*
X184707987Y-102872665D01*
X184785000Y-102686740D01*
X184862013Y-102872665D01*
X185009338Y-103093153D01*
X185196847Y-103280662D01*
X185417335Y-103427987D01*
X185662328Y-103529467D01*
X185922411Y-103581200D01*
X186187589Y-103581200D01*
X186447672Y-103529467D01*
X186692665Y-103427987D01*
X186913153Y-103280662D01*
X187029542Y-103164273D01*
X187845332Y-103164273D01*
X187906152Y-103399183D01*
X188146509Y-103511202D01*
X188404102Y-103574176D01*
X188669030Y-103585687D01*
X188931113Y-103545291D01*
X189180280Y-103454542D01*
X189283848Y-103399183D01*
X189344668Y-103164273D01*
X188595000Y-102414605D01*
X187845332Y-103164273D01*
X187029542Y-103164273D01*
X187100662Y-103093153D01*
X187247987Y-102872665D01*
X187325969Y-102684400D01*
X187375458Y-102820280D01*
X187430817Y-102923848D01*
X187665727Y-102984668D01*
X188415395Y-102235000D01*
X187665727Y-101485332D01*
X187430817Y-101546152D01*
X187322794Y-101777934D01*
X187247987Y-101597335D01*
X187100662Y-101376847D01*
X186913153Y-101189338D01*
X186692665Y-101042013D01*
X186506740Y-100965000D01*
X186692665Y-100887987D01*
X186913153Y-100740662D01*
X187100662Y-100553153D01*
X187247987Y-100332665D01*
X187325000Y-100146740D01*
X187402013Y-100332665D01*
X187549338Y-100553153D01*
X187736847Y-100740662D01*
X187957335Y-100887987D01*
X188145600Y-100965969D01*
X188009720Y-101015458D01*
X187906152Y-101070817D01*
X187845332Y-101305727D01*
X188595000Y-102055395D01*
X189344668Y-101305727D01*
X189283848Y-101070817D01*
X189052066Y-100962794D01*
X189232665Y-100887987D01*
X189453153Y-100740662D01*
X189640662Y-100553153D01*
X189787987Y-100332665D01*
X189865969Y-100144400D01*
X189915458Y-100280280D01*
X189970817Y-100383848D01*
X190205727Y-100444668D01*
X190955395Y-99695000D01*
X191314605Y-99695000D01*
X192064273Y-100444668D01*
X192299183Y-100383848D01*
X192411202Y-100143491D01*
X192474176Y-99885898D01*
X192485687Y-99620970D01*
X192445291Y-99358887D01*
X192354542Y-99109720D01*
X192299183Y-99006152D01*
X192064273Y-98945332D01*
X191314605Y-99695000D01*
X190955395Y-99695000D01*
X190205727Y-98945332D01*
X189970817Y-99006152D01*
X189862794Y-99237934D01*
X189787987Y-99057335D01*
X189640662Y-98836847D01*
X189569542Y-98765727D01*
X190385332Y-98765727D01*
X191135000Y-99515395D01*
X191884668Y-98765727D01*
X191823848Y-98530817D01*
X191583491Y-98418798D01*
X191325898Y-98355824D01*
X191060970Y-98344313D01*
X190798887Y-98384709D01*
X190549720Y-98475458D01*
X190446152Y-98530817D01*
X190385332Y-98765727D01*
X189569542Y-98765727D01*
X189453153Y-98649338D01*
X189232665Y-98502013D01*
X188987672Y-98400533D01*
X188727589Y-98348800D01*
X188462411Y-98348800D01*
X188202328Y-98400533D01*
X187957335Y-98502013D01*
X187736847Y-98649338D01*
X187549338Y-98836847D01*
X187402013Y-99057335D01*
X187325000Y-99243260D01*
X187247987Y-99057335D01*
X187100662Y-98836847D01*
X186913153Y-98649338D01*
X186692665Y-98502013D01*
X186447672Y-98400533D01*
X186187589Y-98348800D01*
X185922411Y-98348800D01*
X185838952Y-98365401D01*
X185369127Y-97895577D01*
X185344469Y-97865531D01*
X185224572Y-97767134D01*
X185087783Y-97694018D01*
X184939357Y-97648994D01*
X184823673Y-97637600D01*
X184823663Y-97637600D01*
X184785000Y-97633792D01*
X184746337Y-97637600D01*
X179743663Y-97637600D01*
X179705000Y-97633792D01*
X179666337Y-97637600D01*
X179666327Y-97637600D01*
X179550643Y-97648994D01*
X179402217Y-97694018D01*
X179265427Y-97767134D01*
X179204465Y-97817165D01*
X179145531Y-97865531D01*
X179120877Y-97895572D01*
X176060000Y-100956450D01*
X176060000Y-100903665D01*
X176052291Y-100864907D01*
X181574899Y-95272724D01*
X181606659Y-95246659D01*
X181636262Y-95210588D01*
X181638224Y-95208601D01*
X181663984Y-95176808D01*
X181717753Y-95111291D01*
X181719077Y-95108813D01*
X181720844Y-95106633D01*
X181760331Y-95031634D01*
X181800303Y-94956851D01*
X181801118Y-94954164D01*
X181802426Y-94951680D01*
X181826541Y-94870353D01*
X181851136Y-94789274D01*
X181851411Y-94786483D01*
X181852210Y-94783788D01*
X181859992Y-94699363D01*
X181864000Y-94658667D01*
X181864000Y-94655876D01*
X181868283Y-94609409D01*
X181864000Y-94568546D01*
X181864000Y-94476849D01*
X181889759Y-94459637D01*
X182089637Y-94259759D01*
X182246680Y-94024727D01*
X182354853Y-93763574D01*
X182410000Y-93486335D01*
X182410000Y-93203665D01*
X182354853Y-92926426D01*
X182246680Y-92665273D01*
X182166317Y-92545000D01*
X184616928Y-92545000D01*
X184616928Y-94145000D01*
X184629188Y-94269482D01*
X184665498Y-94389180D01*
X184724463Y-94499494D01*
X184803815Y-94596185D01*
X184900506Y-94675537D01*
X185010820Y-94734502D01*
X185130518Y-94770812D01*
X185255000Y-94783072D01*
X186855000Y-94783072D01*
X186979482Y-94770812D01*
X187099180Y-94734502D01*
X187209494Y-94675537D01*
X187306185Y-94596185D01*
X187385537Y-94499494D01*
X187444502Y-94389180D01*
X187480812Y-94269482D01*
X187481643Y-94261039D01*
X187680241Y-94459637D01*
X187915273Y-94616680D01*
X188176426Y-94724853D01*
X188453665Y-94780000D01*
X188736335Y-94780000D01*
X189013574Y-94724853D01*
X189274727Y-94616680D01*
X189509759Y-94459637D01*
X189709637Y-94259759D01*
X189865000Y-94027241D01*
X190020363Y-94259759D01*
X190220241Y-94459637D01*
X190455273Y-94616680D01*
X190716426Y-94724853D01*
X190993665Y-94780000D01*
X191276335Y-94780000D01*
X191553574Y-94724853D01*
X191814727Y-94616680D01*
X192049759Y-94459637D01*
X192249637Y-94259759D01*
X192405000Y-94027241D01*
X192560363Y-94259759D01*
X192760241Y-94459637D01*
X192995273Y-94616680D01*
X193256426Y-94724853D01*
X193533665Y-94780000D01*
X193816335Y-94780000D01*
X194093574Y-94724853D01*
X194354727Y-94616680D01*
X194589759Y-94459637D01*
X194789637Y-94259759D01*
X194946680Y-94024727D01*
X195054853Y-93763574D01*
X195110000Y-93486335D01*
X195110000Y-93203665D01*
X195054853Y-92926426D01*
X194946680Y-92665273D01*
X194789637Y-92430241D01*
X194589759Y-92230363D01*
X194354727Y-92073320D01*
X194093574Y-91965147D01*
X193816335Y-91910000D01*
X193533665Y-91910000D01*
X193256426Y-91965147D01*
X192995273Y-92073320D01*
X192760241Y-92230363D01*
X192560363Y-92430241D01*
X192405000Y-92662759D01*
X192249637Y-92430241D01*
X192049759Y-92230363D01*
X191814727Y-92073320D01*
X191553574Y-91965147D01*
X191276335Y-91910000D01*
X190993665Y-91910000D01*
X190716426Y-91965147D01*
X190455273Y-92073320D01*
X190220241Y-92230363D01*
X190020363Y-92430241D01*
X189865000Y-92662759D01*
X189709637Y-92430241D01*
X189509759Y-92230363D01*
X189274727Y-92073320D01*
X189013574Y-91965147D01*
X188736335Y-91910000D01*
X188453665Y-91910000D01*
X188176426Y-91965147D01*
X187915273Y-92073320D01*
X187680241Y-92230363D01*
X187481643Y-92428961D01*
X187480812Y-92420518D01*
X187444502Y-92300820D01*
X187385537Y-92190506D01*
X187306185Y-92093815D01*
X187209494Y-92014463D01*
X187099180Y-91955498D01*
X186979482Y-91919188D01*
X186855000Y-91906928D01*
X185255000Y-91906928D01*
X185130518Y-91919188D01*
X185010820Y-91955498D01*
X184900506Y-92014463D01*
X184803815Y-92093815D01*
X184724463Y-92190506D01*
X184665498Y-92300820D01*
X184629188Y-92420518D01*
X184616928Y-92545000D01*
X182166317Y-92545000D01*
X182089637Y-92430241D01*
X181889759Y-92230363D01*
X181654727Y-92073320D01*
X181393574Y-91965147D01*
X181116335Y-91910000D01*
X180833665Y-91910000D01*
X180556426Y-91965147D01*
X180295273Y-92073320D01*
X180060241Y-92230363D01*
X179860363Y-92430241D01*
X179703320Y-92665273D01*
X179595147Y-92926426D01*
X179540000Y-93203665D01*
X179540000Y-93486335D01*
X179595147Y-93763574D01*
X179703320Y-94024727D01*
X179860363Y-94259759D01*
X179969049Y-94368445D01*
X174788378Y-99614385D01*
X174766335Y-99610000D01*
X174483665Y-99610000D01*
X174206426Y-99665147D01*
X173945273Y-99773320D01*
X173710241Y-99930363D01*
X173510363Y-100130241D01*
X173353320Y-100365273D01*
X173245147Y-100626426D01*
X173190000Y-100903665D01*
X173190000Y-101186335D01*
X173245147Y-101463574D01*
X173353320Y-101724727D01*
X173510363Y-101959759D01*
X173710241Y-102159637D01*
X173945273Y-102316680D01*
X174206426Y-102424853D01*
X174483665Y-102480000D01*
X174536450Y-102480000D01*
X174298850Y-102717600D01*
X168313663Y-102717600D01*
X168275000Y-102713792D01*
X168236337Y-102717600D01*
X168236327Y-102717600D01*
X168120643Y-102728994D01*
X167972217Y-102774018D01*
X167835427Y-102847134D01*
X167804318Y-102872665D01*
X167715531Y-102945531D01*
X167690878Y-102975571D01*
X162712400Y-107954050D01*
X162712400Y-106714136D01*
X162716156Y-106670927D01*
X162708173Y-106598407D01*
X162701006Y-106525643D01*
X162699682Y-106521279D01*
X162699184Y-106516754D01*
X162677194Y-106447144D01*
X162655982Y-106377217D01*
X162653834Y-106373199D01*
X162652462Y-106368855D01*
X162617297Y-106304843D01*
X162582866Y-106240428D01*
X162579976Y-106236906D01*
X162577782Y-106232913D01*
X162530789Y-106176972D01*
X162484469Y-106120531D01*
X162450938Y-106093013D01*
X157059336Y-100823665D01*
X169380000Y-100823665D01*
X169380000Y-101106335D01*
X169435147Y-101383574D01*
X169543320Y-101644727D01*
X169700363Y-101879759D01*
X169900241Y-102079637D01*
X170135273Y-102236680D01*
X170396426Y-102344853D01*
X170673665Y-102400000D01*
X170956335Y-102400000D01*
X171233574Y-102344853D01*
X171494727Y-102236680D01*
X171729759Y-102079637D01*
X171929637Y-101879759D01*
X172086680Y-101644727D01*
X172194853Y-101383574D01*
X172250000Y-101106335D01*
X172250000Y-100823665D01*
X172194853Y-100546426D01*
X172086680Y-100285273D01*
X171929637Y-100050241D01*
X171729759Y-99850363D01*
X171494727Y-99693320D01*
X171233574Y-99585147D01*
X170956335Y-99530000D01*
X170673665Y-99530000D01*
X170396426Y-99585147D01*
X170135273Y-99693320D01*
X169900241Y-99850363D01*
X169700363Y-100050241D01*
X169543320Y-100285273D01*
X169435147Y-100546426D01*
X169380000Y-100823665D01*
X157059336Y-100823665D01*
X155503960Y-99303558D01*
X155620990Y-99128411D01*
X155732932Y-98858158D01*
X155790000Y-98571260D01*
X155790000Y-98278740D01*
X155732932Y-97991842D01*
X155620990Y-97721589D01*
X155458475Y-97478368D01*
X155251632Y-97271525D01*
X155008411Y-97109010D01*
X154738158Y-96997068D01*
X154451260Y-96940000D01*
X154158740Y-96940000D01*
X153871842Y-96997068D01*
X153601589Y-97109010D01*
X153358368Y-97271525D01*
X153151525Y-97478368D01*
X153035000Y-97652760D01*
X152918475Y-97478368D01*
X152711632Y-97271525D01*
X152468411Y-97109010D01*
X152198158Y-96997068D01*
X151911260Y-96940000D01*
X151618740Y-96940000D01*
X151331842Y-96997068D01*
X151061589Y-97109010D01*
X150818368Y-97271525D01*
X150611525Y-97478368D01*
X150495000Y-97652760D01*
X150378475Y-97478368D01*
X150171632Y-97271525D01*
X149928411Y-97109010D01*
X149658158Y-96997068D01*
X149371260Y-96940000D01*
X149078740Y-96940000D01*
X148791842Y-96997068D01*
X148521589Y-97109010D01*
X148278368Y-97271525D01*
X148071525Y-97478368D01*
X147955000Y-97652760D01*
X147838475Y-97478368D01*
X147631632Y-97271525D01*
X147388411Y-97109010D01*
X147118158Y-96997068D01*
X146831260Y-96940000D01*
X146538740Y-96940000D01*
X146251842Y-96997068D01*
X145981589Y-97109010D01*
X145738368Y-97271525D01*
X145531525Y-97478368D01*
X145415000Y-97652760D01*
X145298475Y-97478368D01*
X145091632Y-97271525D01*
X144848411Y-97109010D01*
X144578158Y-96997068D01*
X144291260Y-96940000D01*
X143998740Y-96940000D01*
X143711842Y-96997068D01*
X143441589Y-97109010D01*
X143198368Y-97271525D01*
X142991525Y-97478368D01*
X142875000Y-97652760D01*
X142758475Y-97478368D01*
X142551632Y-97271525D01*
X142308411Y-97109010D01*
X142038158Y-96997068D01*
X141751260Y-96940000D01*
X141458740Y-96940000D01*
X141171842Y-96997068D01*
X140901589Y-97109010D01*
X140658368Y-97271525D01*
X140451525Y-97478368D01*
X140335000Y-97652760D01*
X140218475Y-97478368D01*
X140011632Y-97271525D01*
X139768411Y-97109010D01*
X139498158Y-96997068D01*
X139211260Y-96940000D01*
X138918740Y-96940000D01*
X138631842Y-96997068D01*
X138361589Y-97109010D01*
X138118368Y-97271525D01*
X137911525Y-97478368D01*
X137795000Y-97652760D01*
X137678475Y-97478368D01*
X137471632Y-97271525D01*
X137228411Y-97109010D01*
X136958158Y-96997068D01*
X136671260Y-96940000D01*
X136378740Y-96940000D01*
X136091842Y-96997068D01*
X135821589Y-97109010D01*
X135578368Y-97271525D01*
X135371525Y-97478368D01*
X135209010Y-97721589D01*
X135097068Y-97991842D01*
X135040000Y-98278740D01*
X135040000Y-98571260D01*
X135097068Y-98858158D01*
X135209010Y-99128411D01*
X135371525Y-99371632D01*
X135503380Y-99503487D01*
X135430820Y-99525498D01*
X135320506Y-99584463D01*
X135223815Y-99663815D01*
X135144463Y-99760506D01*
X135085498Y-99870820D01*
X135049188Y-99990518D01*
X135036928Y-100115000D01*
X135036928Y-101815000D01*
X135049188Y-101939482D01*
X135085498Y-102059180D01*
X135144463Y-102169494D01*
X135223815Y-102266185D01*
X135320506Y-102345537D01*
X135430820Y-102404502D01*
X135550518Y-102440812D01*
X135675000Y-102453072D01*
X135737600Y-102453072D01*
X135737601Y-103575264D01*
X135610241Y-103660363D01*
X135410363Y-103860241D01*
X135255000Y-104092759D01*
X135099637Y-103860241D01*
X134899759Y-103660363D01*
X134664727Y-103503320D01*
X134403574Y-103395147D01*
X134126335Y-103340000D01*
X133843665Y-103340000D01*
X133566426Y-103395147D01*
X133305273Y-103503320D01*
X133070241Y-103660363D01*
X132870363Y-103860241D01*
X132713320Y-104095273D01*
X132605147Y-104356426D01*
X132550000Y-104633665D01*
X132550000Y-104916335D01*
X132605147Y-105193574D01*
X132713320Y-105454727D01*
X132870363Y-105689759D01*
X133070241Y-105889637D01*
X133305273Y-106046680D01*
X133566426Y-106154853D01*
X133843665Y-106210000D01*
X134126335Y-106210000D01*
X134403574Y-106154853D01*
X134664727Y-106046680D01*
X134899759Y-105889637D01*
X135099637Y-105689759D01*
X135255000Y-105457241D01*
X135410363Y-105689759D01*
X135610241Y-105889637D01*
X135845273Y-106046680D01*
X136106426Y-106154853D01*
X136383665Y-106210000D01*
X136666335Y-106210000D01*
X136943574Y-106154853D01*
X137204727Y-106046680D01*
X137439759Y-105889637D01*
X137639637Y-105689759D01*
X137795000Y-105457241D01*
X137950363Y-105689759D01*
X138150241Y-105889637D01*
X138385273Y-106046680D01*
X138646426Y-106154853D01*
X138923665Y-106210000D01*
X139206335Y-106210000D01*
X139483574Y-106154853D01*
X139744727Y-106046680D01*
X139979759Y-105889637D01*
X140179637Y-105689759D01*
X140335000Y-105457241D01*
X140490363Y-105689759D01*
X140690241Y-105889637D01*
X140925273Y-106046680D01*
X141186426Y-106154853D01*
X141463665Y-106210000D01*
X141746335Y-106210000D01*
X142023574Y-106154853D01*
X142284727Y-106046680D01*
X142519759Y-105889637D01*
X142719637Y-105689759D01*
X142875000Y-105457241D01*
X143030363Y-105689759D01*
X143230241Y-105889637D01*
X143465273Y-106046680D01*
X143726426Y-106154853D01*
X144003665Y-106210000D01*
X144286335Y-106210000D01*
X144563574Y-106154853D01*
X144824727Y-106046680D01*
X145059759Y-105889637D01*
X145259637Y-105689759D01*
X145415000Y-105457241D01*
X145570363Y-105689759D01*
X145770241Y-105889637D01*
X146005273Y-106046680D01*
X146266426Y-106154853D01*
X146543665Y-106210000D01*
X146826335Y-106210000D01*
X147103574Y-106154853D01*
X147364727Y-106046680D01*
X147599759Y-105889637D01*
X147799637Y-105689759D01*
X147955000Y-105457241D01*
X148110363Y-105689759D01*
X148310241Y-105889637D01*
X148545273Y-106046680D01*
X148806426Y-106154853D01*
X149083665Y-106210000D01*
X149366335Y-106210000D01*
X149643574Y-106154853D01*
X149904727Y-106046680D01*
X150139759Y-105889637D01*
X150339637Y-105689759D01*
X150495000Y-105457241D01*
X150650363Y-105689759D01*
X150850241Y-105889637D01*
X151055598Y-106026852D01*
X146625499Y-110456951D01*
X146530643Y-110466294D01*
X146382217Y-110511318D01*
X146245428Y-110584434D01*
X146125531Y-110682831D01*
X146027134Y-110802728D01*
X145954018Y-110939517D01*
X145908994Y-111087943D01*
X145898482Y-111194676D01*
X145770241Y-111280363D01*
X145570363Y-111480241D01*
X145415000Y-111712759D01*
X145259637Y-111480241D01*
X145059759Y-111280363D01*
X144824727Y-111123320D01*
X144563574Y-111015147D01*
X144286335Y-110960000D01*
X144003665Y-110960000D01*
X143726426Y-111015147D01*
X143465273Y-111123320D01*
X143230241Y-111280363D01*
X143030363Y-111480241D01*
X142875000Y-111712759D01*
X142719637Y-111480241D01*
X142519759Y-111280363D01*
X142284727Y-111123320D01*
X142023574Y-111015147D01*
X141746335Y-110960000D01*
X141463665Y-110960000D01*
X141186426Y-111015147D01*
X140925273Y-111123320D01*
X140857294Y-111168742D01*
X140284127Y-110595577D01*
X140259469Y-110565531D01*
X140139572Y-110467134D01*
X140002783Y-110394018D01*
X139854357Y-110348994D01*
X139738673Y-110337600D01*
X139738663Y-110337600D01*
X139700000Y-110333792D01*
X139661337Y-110337600D01*
X135293662Y-110337600D01*
X135254999Y-110333792D01*
X135216336Y-110337600D01*
X135216327Y-110337600D01*
X135100643Y-110348994D01*
X134952217Y-110394018D01*
X134815428Y-110467134D01*
X134791637Y-110486659D01*
X134725569Y-110540879D01*
X134725567Y-110540881D01*
X134695531Y-110565531D01*
X134670881Y-110595567D01*
X134309521Y-110956928D01*
X133185000Y-110956928D01*
X133060518Y-110969188D01*
X132940820Y-111005498D01*
X132830506Y-111064463D01*
X132733815Y-111143815D01*
X132654463Y-111240506D01*
X132595498Y-111350820D01*
X132559188Y-111470518D01*
X132546928Y-111595000D01*
X132546928Y-113195000D01*
X132559188Y-113319482D01*
X132595498Y-113439180D01*
X132654463Y-113549494D01*
X132733815Y-113646185D01*
X132830506Y-113725537D01*
X132940820Y-113784502D01*
X133060518Y-113820812D01*
X133185000Y-113833072D01*
X134785000Y-113833072D01*
X134909482Y-113820812D01*
X135029180Y-113784502D01*
X135139494Y-113725537D01*
X135236185Y-113646185D01*
X135315537Y-113549494D01*
X135374502Y-113439180D01*
X135410812Y-113319482D01*
X135411643Y-113311039D01*
X135610241Y-113509637D01*
X135845273Y-113666680D01*
X136106426Y-113774853D01*
X136383665Y-113830000D01*
X136666335Y-113830000D01*
X136943574Y-113774853D01*
X137204727Y-113666680D01*
X137439759Y-113509637D01*
X137639637Y-113309759D01*
X137795000Y-113077241D01*
X137950363Y-113309759D01*
X138069876Y-113429272D01*
X134725573Y-116773577D01*
X134695532Y-116798231D01*
X134663995Y-116836659D01*
X134597135Y-116918128D01*
X134524018Y-117054918D01*
X134478995Y-117203343D01*
X134463792Y-117357700D01*
X134467601Y-117396373D01*
X134467600Y-118755129D01*
X134308368Y-118861525D01*
X134101525Y-119068368D01*
X133985000Y-119242760D01*
X133868475Y-119068368D01*
X133661632Y-118861525D01*
X133418411Y-118699010D01*
X133148158Y-118587068D01*
X132861260Y-118530000D01*
X132568740Y-118530000D01*
X132281842Y-118587068D01*
X132011589Y-118699010D01*
X131768368Y-118861525D01*
X131561525Y-119068368D01*
X131445000Y-119242760D01*
X131328475Y-119068368D01*
X131121632Y-118861525D01*
X130878411Y-118699010D01*
X130608158Y-118587068D01*
X130321260Y-118530000D01*
X130028740Y-118530000D01*
X129741842Y-118587068D01*
X129471589Y-118699010D01*
X129228368Y-118861525D01*
X129021525Y-119068368D01*
X128905000Y-119242760D01*
X128788475Y-119068368D01*
X128581632Y-118861525D01*
X128338411Y-118699010D01*
X128068158Y-118587068D01*
X127781260Y-118530000D01*
X127488740Y-118530000D01*
X127201842Y-118587068D01*
X126931589Y-118699010D01*
X126688368Y-118861525D01*
X126481525Y-119068368D01*
X126365000Y-119242760D01*
X126248475Y-119068368D01*
X126041632Y-118861525D01*
X125798411Y-118699010D01*
X125528158Y-118587068D01*
X125241260Y-118530000D01*
X124948740Y-118530000D01*
X124661842Y-118587068D01*
X124391589Y-118699010D01*
X124148368Y-118861525D01*
X123941525Y-119068368D01*
X123825000Y-119242760D01*
X123708475Y-119068368D01*
X123501632Y-118861525D01*
X123258411Y-118699010D01*
X122988158Y-118587068D01*
X122701260Y-118530000D01*
X122408740Y-118530000D01*
X122121842Y-118587068D01*
X121851589Y-118699010D01*
X121608368Y-118861525D01*
X121401525Y-119068368D01*
X121285000Y-119242760D01*
X121168475Y-119068368D01*
X120961632Y-118861525D01*
X120718411Y-118699010D01*
X120448158Y-118587068D01*
X120161260Y-118530000D01*
X119868740Y-118530000D01*
X119581842Y-118587068D01*
X119311589Y-118699010D01*
X119068368Y-118861525D01*
X118861525Y-119068368D01*
X118745000Y-119242760D01*
X118628475Y-119068368D01*
X118421632Y-118861525D01*
X118178411Y-118699010D01*
X117908158Y-118587068D01*
X117621260Y-118530000D01*
X117328740Y-118530000D01*
X117041842Y-118587068D01*
X116771589Y-118699010D01*
X116528368Y-118861525D01*
X116396513Y-118993380D01*
X116374502Y-118920820D01*
X116315537Y-118810506D01*
X116236185Y-118713815D01*
X116139494Y-118634463D01*
X116029180Y-118575498D01*
X115909482Y-118539188D01*
X115785000Y-118526928D01*
X114325000Y-118526928D01*
X114325000Y-110847702D01*
X128726903Y-110847702D01*
X128798486Y-111091671D01*
X129053996Y-111212571D01*
X129328184Y-111281300D01*
X129610512Y-111295217D01*
X129890130Y-111253787D01*
X130156292Y-111158603D01*
X130281514Y-111091671D01*
X130353097Y-110847702D01*
X129540000Y-110034605D01*
X128726903Y-110847702D01*
X114325000Y-110847702D01*
X114325000Y-109925512D01*
X128099783Y-109925512D01*
X128141213Y-110205130D01*
X128236397Y-110471292D01*
X128303329Y-110596514D01*
X128547298Y-110668097D01*
X129360395Y-109855000D01*
X129719605Y-109855000D01*
X130532702Y-110668097D01*
X130776671Y-110596514D01*
X130897571Y-110341004D01*
X130966300Y-110066816D01*
X130980217Y-109784488D01*
X130938787Y-109504870D01*
X130843603Y-109238708D01*
X130776671Y-109113486D01*
X130532702Y-109041903D01*
X129719605Y-109855000D01*
X129360395Y-109855000D01*
X128547298Y-109041903D01*
X128303329Y-109113486D01*
X128182429Y-109368996D01*
X128113700Y-109643184D01*
X128099783Y-109925512D01*
X114325000Y-109925512D01*
X114325000Y-108862298D01*
X128726903Y-108862298D01*
X129540000Y-109675395D01*
X130353097Y-108862298D01*
X130281514Y-108618329D01*
X130026004Y-108497429D01*
X129751816Y-108428700D01*
X129469488Y-108414783D01*
X129189870Y-108456213D01*
X128923708Y-108551397D01*
X128798486Y-108618329D01*
X128726903Y-108862298D01*
X114325000Y-108862298D01*
X114325000Y-104713665D01*
X128105000Y-104713665D01*
X128105000Y-104996335D01*
X128160147Y-105273574D01*
X128268320Y-105534727D01*
X128425363Y-105769759D01*
X128625241Y-105969637D01*
X128860273Y-106126680D01*
X129121426Y-106234853D01*
X129398665Y-106290000D01*
X129681335Y-106290000D01*
X129958574Y-106234853D01*
X130219727Y-106126680D01*
X130454759Y-105969637D01*
X130654637Y-105769759D01*
X130811680Y-105534727D01*
X130919853Y-105273574D01*
X130975000Y-104996335D01*
X130975000Y-104713665D01*
X130919853Y-104436426D01*
X130811680Y-104175273D01*
X130654637Y-103940241D01*
X130454759Y-103740363D01*
X130219727Y-103583320D01*
X129958574Y-103475147D01*
X129681335Y-103420000D01*
X129398665Y-103420000D01*
X129121426Y-103475147D01*
X128860273Y-103583320D01*
X128625241Y-103740363D01*
X128425363Y-103940241D01*
X128268320Y-104175273D01*
X128160147Y-104436426D01*
X128105000Y-104713665D01*
X114325000Y-104713665D01*
X114325000Y-91567000D01*
X212700001Y-91567000D01*
X212700000Y-119205345D01*
G37*
G04 #@! TD.AperFunction*
D23*
X179628800Y-102367589D02*
X179645401Y-102451048D01*
X177905573Y-104190877D01*
X177875532Y-104215531D01*
X177850879Y-104245571D01*
X177777135Y-104335428D01*
X177704018Y-104472218D01*
X177658995Y-104620643D01*
X177643792Y-104775000D01*
X177647601Y-104813673D01*
X177647600Y-112703849D01*
X172825573Y-117525877D01*
X172795532Y-117550531D01*
X172697135Y-117670428D01*
X172624018Y-117807218D01*
X172578995Y-117955643D01*
X172563792Y-118110000D01*
X172567601Y-118148673D01*
X172567601Y-118755129D01*
X172408368Y-118861525D01*
X172201525Y-119068368D01*
X172085000Y-119242760D01*
X171968475Y-119068368D01*
X171761632Y-118861525D01*
X171518411Y-118699010D01*
X171248158Y-118587068D01*
X170961260Y-118530000D01*
X170668740Y-118530000D01*
X170381842Y-118587068D01*
X170111589Y-118699010D01*
X169868368Y-118861525D01*
X169661525Y-119068368D01*
X169545000Y-119242760D01*
X169428475Y-119068368D01*
X169221632Y-118861525D01*
X169062400Y-118755130D01*
X169062400Y-115153072D01*
X169125000Y-115153072D01*
X169249482Y-115140812D01*
X169369180Y-115104502D01*
X169479494Y-115045537D01*
X169576185Y-114966185D01*
X169655537Y-114869494D01*
X169714502Y-114759180D01*
X169736513Y-114686620D01*
X169868368Y-114818475D01*
X170111589Y-114980990D01*
X170381842Y-115092932D01*
X170668740Y-115150000D01*
X170961260Y-115150000D01*
X171248158Y-115092932D01*
X171518411Y-114980990D01*
X171761632Y-114818475D01*
X171968475Y-114611632D01*
X172085000Y-114437240D01*
X172201525Y-114611632D01*
X172408368Y-114818475D01*
X172651589Y-114980990D01*
X172921842Y-115092932D01*
X173208740Y-115150000D01*
X173501260Y-115150000D01*
X173788158Y-115092932D01*
X174058411Y-114980990D01*
X174301632Y-114818475D01*
X174508475Y-114611632D01*
X174670990Y-114368411D01*
X174782932Y-114098158D01*
X174840000Y-113811260D01*
X174840000Y-113518740D01*
X174782932Y-113231842D01*
X174670990Y-112961589D01*
X174508475Y-112718368D01*
X174301632Y-112511525D01*
X174058411Y-112349010D01*
X173788158Y-112237068D01*
X173501260Y-112180000D01*
X173208740Y-112180000D01*
X172921842Y-112237068D01*
X172651589Y-112349010D01*
X172408368Y-112511525D01*
X172201525Y-112718368D01*
X172085000Y-112892760D01*
X171968475Y-112718368D01*
X171761632Y-112511525D01*
X171602400Y-112405130D01*
X171602400Y-109784735D01*
X171729759Y-109699637D01*
X171929637Y-109499759D01*
X172086680Y-109264727D01*
X172194853Y-109003574D01*
X172250000Y-108726335D01*
X172250000Y-108443665D01*
X172194853Y-108166426D01*
X172086680Y-107905273D01*
X171929637Y-107670241D01*
X171751473Y-107492077D01*
X172205848Y-107037702D01*
X173811903Y-107037702D01*
X173883486Y-107281671D01*
X174138996Y-107402571D01*
X174413184Y-107471300D01*
X174695512Y-107485217D01*
X174975130Y-107443787D01*
X175241292Y-107348603D01*
X175366514Y-107281671D01*
X175438097Y-107037702D01*
X174625000Y-106224605D01*
X173811903Y-107037702D01*
X172205848Y-107037702D01*
X173187725Y-106055825D01*
X173184783Y-106115512D01*
X173226213Y-106395130D01*
X173321397Y-106661292D01*
X173388329Y-106786514D01*
X173632298Y-106858097D01*
X174445395Y-106045000D01*
X174804605Y-106045000D01*
X175617702Y-106858097D01*
X175861671Y-106786514D01*
X175982571Y-106531004D01*
X176051300Y-106256816D01*
X176065217Y-105974488D01*
X176023787Y-105694870D01*
X175928603Y-105428708D01*
X175861671Y-105303486D01*
X175617702Y-105231903D01*
X174804605Y-106045000D01*
X174445395Y-106045000D01*
X174431253Y-106030858D01*
X174610858Y-105851253D01*
X174625000Y-105865395D01*
X175438097Y-105052298D01*
X175401451Y-104927400D01*
X176491337Y-104927400D01*
X176530000Y-104931208D01*
X176568663Y-104927400D01*
X176568673Y-104927400D01*
X176684357Y-104916006D01*
X176832783Y-104870982D01*
X176969572Y-104797866D01*
X177089469Y-104699469D01*
X177114128Y-104669422D01*
X179628800Y-102154751D01*
X179628800Y-102367589D01*
G04 #@! TA.AperFunction,Conductor*
D24*
G36*
X179628800Y-102367589D02*
G01*
X179645401Y-102451048D01*
X177905573Y-104190877D01*
X177875532Y-104215531D01*
X177850879Y-104245571D01*
X177777135Y-104335428D01*
X177704018Y-104472218D01*
X177658995Y-104620643D01*
X177643792Y-104775000D01*
X177647601Y-104813673D01*
X177647600Y-112703849D01*
X172825573Y-117525877D01*
X172795532Y-117550531D01*
X172697135Y-117670428D01*
X172624018Y-117807218D01*
X172578995Y-117955643D01*
X172563792Y-118110000D01*
X172567601Y-118148673D01*
X172567601Y-118755129D01*
X172408368Y-118861525D01*
X172201525Y-119068368D01*
X172085000Y-119242760D01*
X171968475Y-119068368D01*
X171761632Y-118861525D01*
X171518411Y-118699010D01*
X171248158Y-118587068D01*
X170961260Y-118530000D01*
X170668740Y-118530000D01*
X170381842Y-118587068D01*
X170111589Y-118699010D01*
X169868368Y-118861525D01*
X169661525Y-119068368D01*
X169545000Y-119242760D01*
X169428475Y-119068368D01*
X169221632Y-118861525D01*
X169062400Y-118755130D01*
X169062400Y-115153072D01*
X169125000Y-115153072D01*
X169249482Y-115140812D01*
X169369180Y-115104502D01*
X169479494Y-115045537D01*
X169576185Y-114966185D01*
X169655537Y-114869494D01*
X169714502Y-114759180D01*
X169736513Y-114686620D01*
X169868368Y-114818475D01*
X170111589Y-114980990D01*
X170381842Y-115092932D01*
X170668740Y-115150000D01*
X170961260Y-115150000D01*
X171248158Y-115092932D01*
X171518411Y-114980990D01*
X171761632Y-114818475D01*
X171968475Y-114611632D01*
X172085000Y-114437240D01*
X172201525Y-114611632D01*
X172408368Y-114818475D01*
X172651589Y-114980990D01*
X172921842Y-115092932D01*
X173208740Y-115150000D01*
X173501260Y-115150000D01*
X173788158Y-115092932D01*
X174058411Y-114980990D01*
X174301632Y-114818475D01*
X174508475Y-114611632D01*
X174670990Y-114368411D01*
X174782932Y-114098158D01*
X174840000Y-113811260D01*
X174840000Y-113518740D01*
X174782932Y-113231842D01*
X174670990Y-112961589D01*
X174508475Y-112718368D01*
X174301632Y-112511525D01*
X174058411Y-112349010D01*
X173788158Y-112237068D01*
X173501260Y-112180000D01*
X173208740Y-112180000D01*
X172921842Y-112237068D01*
X172651589Y-112349010D01*
X172408368Y-112511525D01*
X172201525Y-112718368D01*
X172085000Y-112892760D01*
X171968475Y-112718368D01*
X171761632Y-112511525D01*
X171602400Y-112405130D01*
X171602400Y-109784735D01*
X171729759Y-109699637D01*
X171929637Y-109499759D01*
X172086680Y-109264727D01*
X172194853Y-109003574D01*
X172250000Y-108726335D01*
X172250000Y-108443665D01*
X172194853Y-108166426D01*
X172086680Y-107905273D01*
X171929637Y-107670241D01*
X171751473Y-107492077D01*
X172205848Y-107037702D01*
X173811903Y-107037702D01*
X173883486Y-107281671D01*
X174138996Y-107402571D01*
X174413184Y-107471300D01*
X174695512Y-107485217D01*
X174975130Y-107443787D01*
X175241292Y-107348603D01*
X175366514Y-107281671D01*
X175438097Y-107037702D01*
X174625000Y-106224605D01*
X173811903Y-107037702D01*
X172205848Y-107037702D01*
X173187725Y-106055825D01*
X173184783Y-106115512D01*
X173226213Y-106395130D01*
X173321397Y-106661292D01*
X173388329Y-106786514D01*
X173632298Y-106858097D01*
X174445395Y-106045000D01*
X174804605Y-106045000D01*
X175617702Y-106858097D01*
X175861671Y-106786514D01*
X175982571Y-106531004D01*
X176051300Y-106256816D01*
X176065217Y-105974488D01*
X176023787Y-105694870D01*
X175928603Y-105428708D01*
X175861671Y-105303486D01*
X175617702Y-105231903D01*
X174804605Y-106045000D01*
X174445395Y-106045000D01*
X174431253Y-106030858D01*
X174610858Y-105851253D01*
X174625000Y-105865395D01*
X175438097Y-105052298D01*
X175401451Y-104927400D01*
X176491337Y-104927400D01*
X176530000Y-104931208D01*
X176568663Y-104927400D01*
X176568673Y-104927400D01*
X176684357Y-104916006D01*
X176832783Y-104870982D01*
X176969572Y-104797866D01*
X177089469Y-104699469D01*
X177114128Y-104669422D01*
X179628800Y-102154751D01*
X179628800Y-102367589D01*
G37*
G04 #@! TD.AperFunction*
D23*
X155156426Y-106154853D02*
X155433665Y-106210000D01*
X155716335Y-106210000D01*
X155746721Y-106203956D01*
X159766001Y-110223237D01*
X159766000Y-113970800D01*
X159691098Y-113939774D01*
X159491139Y-113900000D01*
X159287261Y-113900000D01*
X159087302Y-113939774D01*
X158898944Y-114017795D01*
X158729426Y-114131063D01*
X158712889Y-114147600D01*
X157171152Y-114147600D01*
X153791253Y-110767702D01*
X154761903Y-110767702D01*
X154833486Y-111011671D01*
X155088996Y-111132571D01*
X155363184Y-111201300D01*
X155645512Y-111215217D01*
X155925130Y-111173787D01*
X156191292Y-111078603D01*
X156316514Y-111011671D01*
X156388097Y-110767702D01*
X155575000Y-109954605D01*
X154761903Y-110767702D01*
X153791253Y-110767702D01*
X153619128Y-110595578D01*
X153594469Y-110565531D01*
X153474572Y-110467134D01*
X153337783Y-110394018D01*
X153189357Y-110348994D01*
X153073673Y-110337600D01*
X153073663Y-110337600D01*
X153035000Y-110333792D01*
X152996337Y-110337600D01*
X151243250Y-110337600D01*
X151735338Y-109845512D01*
X154134783Y-109845512D01*
X154176213Y-110125130D01*
X154271397Y-110391292D01*
X154338329Y-110516514D01*
X154582298Y-110588097D01*
X155395395Y-109775000D01*
X155754605Y-109775000D01*
X156567702Y-110588097D01*
X156811671Y-110516514D01*
X156932571Y-110261004D01*
X157001300Y-109986816D01*
X157015217Y-109704488D01*
X156973787Y-109424870D01*
X156878603Y-109158708D01*
X156811671Y-109033486D01*
X156567702Y-108961903D01*
X155754605Y-109775000D01*
X155395395Y-109775000D01*
X154582298Y-108961903D01*
X154338329Y-109033486D01*
X154217429Y-109288996D01*
X154148700Y-109563184D01*
X154134783Y-109845512D01*
X151735338Y-109845512D01*
X152798552Y-108782298D01*
X154761903Y-108782298D01*
X155575000Y-109595395D01*
X156388097Y-108782298D01*
X156316514Y-108538329D01*
X156061004Y-108417429D01*
X155786816Y-108348700D01*
X155504488Y-108334783D01*
X155224870Y-108376213D01*
X154958708Y-108471397D01*
X154833486Y-108538329D01*
X154761903Y-108782298D01*
X152798552Y-108782298D01*
X154834428Y-106746423D01*
X154864469Y-106721769D01*
X154920414Y-106653600D01*
X154962866Y-106601873D01*
X155035982Y-106465083D01*
X155057050Y-106395629D01*
X155081006Y-106316657D01*
X155092400Y-106200973D01*
X155092400Y-106200963D01*
X155096208Y-106162300D01*
X155092882Y-106128532D01*
X155156426Y-106154853D01*
G04 #@! TA.AperFunction,Conductor*
D24*
G36*
X155156426Y-106154853D02*
G01*
X155433665Y-106210000D01*
X155716335Y-106210000D01*
X155746721Y-106203956D01*
X159766001Y-110223237D01*
X159766000Y-113970800D01*
X159691098Y-113939774D01*
X159491139Y-113900000D01*
X159287261Y-113900000D01*
X159087302Y-113939774D01*
X158898944Y-114017795D01*
X158729426Y-114131063D01*
X158712889Y-114147600D01*
X157171152Y-114147600D01*
X153791253Y-110767702D01*
X154761903Y-110767702D01*
X154833486Y-111011671D01*
X155088996Y-111132571D01*
X155363184Y-111201300D01*
X155645512Y-111215217D01*
X155925130Y-111173787D01*
X156191292Y-111078603D01*
X156316514Y-111011671D01*
X156388097Y-110767702D01*
X155575000Y-109954605D01*
X154761903Y-110767702D01*
X153791253Y-110767702D01*
X153619128Y-110595578D01*
X153594469Y-110565531D01*
X153474572Y-110467134D01*
X153337783Y-110394018D01*
X153189357Y-110348994D01*
X153073673Y-110337600D01*
X153073663Y-110337600D01*
X153035000Y-110333792D01*
X152996337Y-110337600D01*
X151243250Y-110337600D01*
X151735338Y-109845512D01*
X154134783Y-109845512D01*
X154176213Y-110125130D01*
X154271397Y-110391292D01*
X154338329Y-110516514D01*
X154582298Y-110588097D01*
X155395395Y-109775000D01*
X155754605Y-109775000D01*
X156567702Y-110588097D01*
X156811671Y-110516514D01*
X156932571Y-110261004D01*
X157001300Y-109986816D01*
X157015217Y-109704488D01*
X156973787Y-109424870D01*
X156878603Y-109158708D01*
X156811671Y-109033486D01*
X156567702Y-108961903D01*
X155754605Y-109775000D01*
X155395395Y-109775000D01*
X154582298Y-108961903D01*
X154338329Y-109033486D01*
X154217429Y-109288996D01*
X154148700Y-109563184D01*
X154134783Y-109845512D01*
X151735338Y-109845512D01*
X152798552Y-108782298D01*
X154761903Y-108782298D01*
X155575000Y-109595395D01*
X156388097Y-108782298D01*
X156316514Y-108538329D01*
X156061004Y-108417429D01*
X155786816Y-108348700D01*
X155504488Y-108334783D01*
X155224870Y-108376213D01*
X154958708Y-108471397D01*
X154833486Y-108538329D01*
X154761903Y-108782298D01*
X152798552Y-108782298D01*
X154834428Y-106746423D01*
X154864469Y-106721769D01*
X154920414Y-106653600D01*
X154962866Y-106601873D01*
X155035982Y-106465083D01*
X155057050Y-106395629D01*
X155081006Y-106316657D01*
X155092400Y-106200973D01*
X155092400Y-106200963D01*
X155096208Y-106162300D01*
X155092882Y-106128532D01*
X155156426Y-106154853D01*
G37*
G04 #@! TD.AperFunction*
D23*
X186248748Y-112380858D02*
X186234605Y-112395000D01*
X186248748Y-112409143D01*
X186069143Y-112588748D01*
X186055000Y-112574605D01*
X186040858Y-112588748D01*
X185861253Y-112409143D01*
X185875395Y-112395000D01*
X185861253Y-112380858D01*
X186040858Y-112201253D01*
X186055000Y-112215395D01*
X186069143Y-112201253D01*
X186248748Y-112380858D01*
G04 #@! TA.AperFunction,Conductor*
D24*
G36*
X186248748Y-112380858D02*
G01*
X186234605Y-112395000D01*
X186248748Y-112409143D01*
X186069143Y-112588748D01*
X186055000Y-112574605D01*
X186040858Y-112588748D01*
X185861253Y-112409143D01*
X185875395Y-112395000D01*
X185861253Y-112380858D01*
X186040858Y-112201253D01*
X186055000Y-112215395D01*
X186069143Y-112201253D01*
X186248748Y-112380858D01*
G37*
G04 #@! TD.AperFunction*
M02*
