M48
; DRILL file {KiCad (5.1.10)-1} date 10/20/21 20:00:11
; FORMAT={-:-/ absolute / inch / decimal}
; #@! TF.CreationDate,2021-10-20T20:00:11+02:00
; #@! TF.GenerationSoftware,Kicad,Pcbnew,(5.1.10)-1
; #@! TF.FileFunction,Plated,1,2,PTH
FMAT,2
INCH
T1C0.0157
T2C0.0315
T3C0.0394
T4C0.0469
%
G90
G05
T1
X6.2752Y-4.525
T2
X5.1Y-4.1281
X5.1Y-4.325
X5.275Y-4.125
X5.275Y-4.425
X5.375Y-4.125
X5.375Y-4.425
X5.475Y-4.125
X5.475Y-4.425
X5.575Y-4.125
X5.575Y-4.425
X5.675Y-4.125
X5.675Y-4.425
X5.775Y-4.125
X5.775Y-4.425
X5.875Y-2.9
X5.875Y-3.025
X5.875Y-3.15
X5.875Y-3.275
X5.875Y-4.125
X5.875Y-4.425
X5.975Y-4.125
X5.975Y-4.425
X6.125Y-4.125
X6.125Y-4.3219
X6.175Y-2.9
X6.175Y-3.025
X6.175Y-3.15
X6.175Y-3.275
X6.425Y-3.15
X6.525Y-3.3
X6.7219Y-3.3
X6.725Y-3.15
X6.725Y-3.975
X6.725Y-4.275
X6.875Y-3.9781
X6.875Y-4.175
X7.125Y-3.375
X7.125Y-3.675
X7.125Y-4.025
X7.125Y-4.125
X7.125Y-4.225
X7.125Y-4.325
X7.225Y-3.925
X7.225Y-4.025
X7.225Y-4.125
X7.225Y-4.225
X7.225Y-4.325
X7.225Y-4.425
X7.325Y-3.375
X7.325Y-3.675
X7.325Y-3.925
X7.325Y-4.025
X7.325Y-4.325
X7.325Y-4.425
X7.425Y-3.375
X7.425Y-3.675
X7.425Y-3.925
X7.425Y-4.025
X7.425Y-4.325
X7.425Y-4.425
X7.525Y-3.375
X7.525Y-3.675
X7.525Y-3.925
X7.525Y-4.025
X7.525Y-4.125
X7.525Y-4.225
X7.525Y-4.325
X7.525Y-4.425
X7.625Y-3.375
X7.625Y-3.675
X7.625Y-4.025
X7.625Y-4.125
X7.625Y-4.225
X7.625Y-4.325
X7.925Y-4.15
X7.925Y-4.3421
X8.1Y-4.15
X8.1Y-4.35
X8.2969Y-4.15
X8.2969Y-4.35
T3
X4.525Y-4.725
X4.625Y-4.725
X4.725Y-4.725
X4.825Y-4.725
X4.925Y-4.725
X5.025Y-4.725
X5.125Y-4.725
X5.225Y-4.725
X5.325Y-4.725
X5.375Y-3.875
X5.375Y-3.975
X5.425Y-4.725
X5.475Y-3.875
X5.475Y-3.975
X5.525Y-4.725
X5.575Y-3.875
X5.575Y-3.975
X5.625Y-2.9
X5.625Y-3.275
X5.625Y-4.725
X5.675Y-3.875
X5.675Y-3.975
X5.725Y-2.9
X5.725Y-3.275
X5.725Y-4.725
X5.775Y-3.875
X5.775Y-3.975
X5.825Y-4.725
X5.875Y-3.875
X5.875Y-3.975
X5.925Y-4.725
X5.975Y-3.875
X5.975Y-3.975
X6.025Y-4.725
X6.075Y-3.875
X6.075Y-3.975
X6.125Y-4.725
X6.225Y-4.725
X6.325Y-4.725
X6.425Y-4.725
X6.525Y-4.725
X6.625Y-2.975
X6.625Y-4.475
X6.625Y-4.725
X6.725Y-2.975
X6.725Y-4.475
X6.725Y-4.725
X6.825Y-4.475
X6.825Y-4.725
X6.925Y-4.725
X7.025Y-4.725
X7.125Y-4.725
X7.225Y-4.725
X7.325Y-4.725
X7.425Y-4.725
X7.525Y-4.725
X7.625Y-4.725
X7.725Y-4.725
X7.825Y-4.725
X7.925Y-4.725
X8.025Y-4.725
X8.125Y-4.725
X8.225Y-4.725
X8.325Y-4.725
T4
X4.9586Y-3.4664
X5.0293Y-3.3957
X5.1Y-3.325
X5.2086Y-3.2164
X5.2793Y-3.1457
X5.35Y-3.075
T0
M30
